STARTFONT 2.1
COMMENT
COMMENT Converted from OpenType font "RuthlessSketch_Italic.ttf" by "otf2bdf 3.0".
COMMENT
FONT -FreeType-Ruthless Sketch-Medium-I-Normal--22-160-100-100-P-121-ISO10646-1
SIZE 16 100 100
FONTBOUNDINGBOX 29 24 -10 -4
STARTPROPERTIES 19
FOUNDRY "FreeType"
FAMILY_NAME "Ruthless Sketch"
WEIGHT_NAME "Medium"
SLANT "I"
SETWIDTH_NAME "Normal"
ADD_STYLE_NAME ""
PIXEL_SIZE 22
POINT_SIZE 160
RESOLUTION_X 100
RESOLUTION_Y 100
SPACING "P"
AVERAGE_WIDTH 121
CHARSET_REGISTRY "ISO10646"
CHARSET_ENCODING "1"
FONT_ASCENT 20
FONT_DESCENT 4
COPYRIGHT "© 2024 GGBotNet. All Rights Reserved."
_OTF_FONTFILE "RuthlessSketch_Italic.ttf"
_OTF_PSNAME "RuthlessSketch-Italic"
ENDPROPERTIES
CHARS 1105
STARTCHAR 0020
ENCODING 32
SWIDTH 270 0
DWIDTH 6 0
BBX 0 0 0 0
BITMAP
ENDCHAR
STARTCHAR 0021
ENCODING 33
SWIDTH 270 0
DWIDTH 6 0
BBX 7 16 2 0
BITMAP
3E
7E
7E
7C
7C
78
78
78
78
70
60
00
60
F0
F0
E0
ENDCHAR
STARTCHAR 0022
ENCODING 34
SWIDTH 360 0
DWIDTH 8 0
BBX 9 8 3 8
BITMAP
7380
7780
E700
E700
E700
C600
C600
C400
ENDCHAR
STARTCHAR 0023
ENCODING 35
SWIDTH 495 0
DWIDTH 11 0
BBX 13 15 1 1
BITMAP
0398
0330
0730
1FF8
3FF0
3FF0
1CC0
19C0
7FE0
7FE0
FFE0
6700
6600
CE00
4C00
ENDCHAR
STARTCHAR 0024
ENCODING 36
SWIDTH 495 0
DWIDTH 11 0
BBX 13 20 1 -2
BITMAP
01C0
01C0
0380
07E0
1FF0
1FF8
3FB0
3F00
3F00
1FC0
0FC0
0FC0
4FC0
7FC0
7F80
FF80
FF00
FC00
1C00
1C00
ENDCHAR
STARTCHAR 0025
ENCODING 37
SWIDTH 540 0
DWIDTH 12 0
BBX 12 15 2 1
BITMAP
1830
3C70
6CE0
6CC0
6D80
7B80
3700
0EC0
0DE0
1B60
3B60
7360
E3C0
C180
8000
ENDCHAR
STARTCHAR 0026
ENCODING 38
SWIDTH 495 0
DWIDTH 11 0
BBX 12 15 1 0
BITMAP
0F80
1F80
1980
1B80
1F00
1E70
3F60
7FE0
73C0
73C0
F1C0
FFE0
7F60
7F40
0800
ENDCHAR
STARTCHAR 0027
ENCODING 39
SWIDTH 180 0
DWIDTH 4 0
BBX 4 8 3 8
BITMAP
70
F0
F0
F0
E0
E0
C0
C0
ENDCHAR
STARTCHAR 0028
ENCODING 40
SWIDTH 315 0
DWIDTH 7 0
BBX 10 21 1 -3
BITMAP
0180
03C0
0780
0F00
0E00
1C00
3800
3000
7000
7000
7000
7000
7000
E000
6000
6000
7000
7000
3800
3C00
1800
ENDCHAR
STARTCHAR 0029
ENCODING 41
SWIDTH 315 0
DWIDTH 7 0
BBX 9 21 0 -3
BITMAP
0600
0E00
0700
0300
0380
0380
0180
0180
0180
0380
0380
0380
0380
0300
0700
0E00
0E00
1C00
7800
F000
6000
ENDCHAR
STARTCHAR 002A
ENCODING 42
SWIDTH 315 0
DWIDTH 7 0
BBX 7 6 3 10
BITMAP
10
76
38
38
FC
20
ENDCHAR
STARTCHAR 002B
ENCODING 43
SWIDTH 450 0
DWIDTH 10 0
BBX 10 10 2 3
BITMAP
0700
0E00
0E00
0E00
FFC0
FFC0
FFC0
1C00
1C00
1C00
ENDCHAR
STARTCHAR 002C
ENCODING 44
SWIDTH 180 0
DWIDTH 4 0
BBX 6 8 -1 -4
BITMAP
18
3C
3C
38
30
F0
60
40
ENDCHAR
STARTCHAR 002D
ENCODING 45
SWIDTH 360 0
DWIDTH 8 0
BBX 8 4 2 6
BITMAP
3A
FF
FF
FF
ENDCHAR
STARTCHAR 002E
ENCODING 46
SWIDTH 180 0
DWIDTH 4 0
BBX 4 4 1 0
BITMAP
60
F0
F0
E0
ENDCHAR
STARTCHAR 002F
ENCODING 47
SWIDTH 450 0
DWIDTH 10 0
BBX 13 17 0 0
BITMAP
0038
0070
00F0
00E0
01E0
01C0
03C0
0780
0700
0F00
1E00
1E00
3C00
3C00
7800
7800
F000
ENDCHAR
STARTCHAR 0030
ENCODING 48
SWIDTH 360 0
DWIDTH 8 0
BBX 8 16 2 0
BITMAP
04
1E
3E
3F
7F
7F
77
E3
E7
E7
FF
FE
FE
FC
7C
38
ENDCHAR
STARTCHAR 0031
ENCODING 49
SWIDTH 405 0
DWIDTH 9 0
BBX 8 14 3 1
BITMAP
0F
3F
7F
EE
7E
1E
1E
3E
3E
3E
7C
7C
7C
FC
ENDCHAR
STARTCHAR 0032
ENCODING 50
SWIDTH 495 0
DWIDTH 11 0
BBX 11 15 1 0
BITMAP
0F80
1FC0
3FC0
3FC0
11C0
0380
0380
0700
0600
0FE0
1FE0
3FC0
7FC0
FF80
1C00
ENDCHAR
STARTCHAR 0033
ENCODING 51
SWIDTH 450 0
DWIDTH 10 0
BBX 10 15 1 0
BITMAP
0F80
1F80
1B00
0700
0E00
1F80
3FC0
1FC0
01C0
00C0
01C0
83C0
FF80
7F00
3C00
ENDCHAR
STARTCHAR 0034
ENCODING 52
SWIDTH 405 0
DWIDTH 9 0
BBX 9 15 2 0
BITMAP
0E00
1C00
1C00
3800
3800
7180
7F80
FF80
FF00
0C00
1C00
1C00
3C00
3C00
7C00
ENDCHAR
STARTCHAR 0035
ENCODING 53
SWIDTH 450 0
DWIDTH 10 0
BBX 12 15 1 0
BITMAP
07F0
0FE0
0E00
0E00
1F80
1F80
3FC0
03C0
01E0
01E0
01C0
83C0
FF80
FF00
3E00
ENDCHAR
STARTCHAR 0036
ENCODING 54
SWIDTH 495 0
DWIDTH 11 0
BBX 11 16 2 -1
BITMAP
03C0
0FE0
1FC0
3800
7800
7C00
FF00
FF80
F3C0
E3C0
E3C0
E380
E780
FF00
7E00
1000
ENDCHAR
STARTCHAR 0037
ENCODING 55
SWIDTH 405 0
DWIDTH 9 0
BBX 11 14 1 0
BITMAP
1FE0
3FE0
3FC0
3FC0
03C0
03C0
0780
0F80
1F00
1F00
3E00
7E00
FC00
FC00
ENDCHAR
STARTCHAR 0038
ENCODING 56
SWIDTH 495 0
DWIDTH 11 0
BBX 11 16 1 0
BITMAP
0180
07C0
0FC0
1CC0
1DC0
0F80
1F80
3FC0
3BC0
71E0
71E0
F1E0
FFE0
7FC0
7F80
1E00
ENDCHAR
STARTCHAR 0039
ENCODING 57
SWIDTH 450 0
DWIDTH 10 0
BBX 10 15 2 0
BITMAP
1F80
3FC0
7FC0
71C0
71C0
F3C0
FFC0
7FC0
0780
0380
0380
CF00
FF00
FE00
7C00
ENDCHAR
STARTCHAR 003A
ENCODING 58
SWIDTH 180 0
DWIDTH 4 0
BBX 5 11 1 0
BITMAP
38
78
78
70
00
00
00
60
F0
F0
E0
ENDCHAR
STARTCHAR 003B
ENCODING 59
SWIDTH 180 0
DWIDTH 4 0
BBX 7 15 -1 -4
BITMAP
0E
0E
1E
0E
00
00
00
18
3C
3C
38
30
F0
60
40
ENDCHAR
STARTCHAR 003C
ENCODING 60
SWIDTH 450 0
DWIDTH 10 0
BBX 11 12 2 2
BITMAP
0020
01E0
07E0
1FC0
FFC0
FC00
F800
7F00
3F80
1F80
0F80
0380
ENDCHAR
STARTCHAR 003D
ENCODING 61
SWIDTH 450 0
DWIDTH 10 0
BBX 12 8 1 4
BITMAP
3FF0
3FF0
3FE0
2000
0000
7FE0
7FC0
FFC0
ENDCHAR
STARTCHAR 003E
ENCODING 62
SWIDTH 450 0
DWIDTH 10 0
BBX 11 12 1 1
BITMAP
3000
3C00
3E00
3F80
3FC0
0FE0
01E0
1FE0
7F80
FE00
F000
C000
ENDCHAR
STARTCHAR 003F
ENCODING 63
SWIDTH 450 0
DWIDTH 10 0
BBX 10 16 3 0
BITMAP
3F00
7FC0
FFC0
F7C0
4380
0380
0780
3F00
7C00
7800
7000
0000
0000
F000
F000
E000
ENDCHAR
STARTCHAR 0040
ENCODING 64
SWIDTH 630 0
DWIDTH 14 0
BBX 15 19 1 -3
BITMAP
01F8
07FC
0FFE
1FFE
3F1E
3C1E
38FE
79FE
7B8E
738E
731C
F3FC
F3F8
F1C0
F000
FFF0
FFF0
7FE0
3F80
ENDCHAR
STARTCHAR 0041
ENCODING 65
SWIDTH 630 0
DWIDTH 14 0
BBX 14 16 0 -1
BITMAP
0070
0070
00F0
00F0
01F0
01F0
03F0
07F0
06F0
0CF8
1FF8
1FF8
3CF8
78F8
78FC
8000
ENDCHAR
STARTCHAR 0042
ENCODING 66
SWIDTH 495 0
DWIDTH 11 0
BBX 10 15 2 0
BITMAP
3F80
7F80
7FC0
7BC0
7980
7B80
7F00
7F80
7FC0
79C0
7BC0
FFC0
FF80
FF00
F800
ENDCHAR
STARTCHAR 0043
ENCODING 67
SWIDTH 450 0
DWIDTH 10 0
BBX 11 15 2 0
BITMAP
07C0
1FE0
3FE0
7FE0
7E00
F800
F800
F000
F9C0
FFC0
FF80
FF80
FF80
7F00
1C00
ENDCHAR
STARTCHAR 0044
ENCODING 68
SWIDTH 450 0
DWIDTH 10 0
BBX 10 15 2 0
BITMAP
3E00
7F00
7F80
7FC0
79C0
71C0
F1C0
F380
F780
FF00
FE00
FC00
F800
F000
C000
ENDCHAR
STARTCHAR 0045
ENCODING 69
SWIDTH 495 0
DWIDTH 11 0
BBX 9 16 3 0
BITMAP
0800
7F80
FF00
7F00
7E00
F000
F000
FE00
FC00
F000
FF00
FF00
FF00
FF00
FE00
E000
ENDCHAR
STARTCHAR 0046
ENCODING 70
SWIDTH 495 0
DWIDTH 11 0
BBX 13 16 1 0
BITMAP
0070
1FF8
3FF8
3FF8
3C00
3C00
7F00
7F00
7E00
7800
7000
F000
F000
F000
F000
F000
ENDCHAR
STARTCHAR 0047
ENCODING 71
SWIDTH 495 0
DWIDTH 11 0
BBX 12 15 1 0
BITMAP
03E0
07F0
0FF0
1E60
1C00
3800
38F0
71E0
71E0
73E0
FFE0
FFC0
FF80
7E00
3800
ENDCHAR
STARTCHAR 0048
ENCODING 72
SWIDTH 540 0
DWIDTH 12 0
BBX 14 15 1 0
BITMAP
0F84
1F3C
0F3C
1F78
1E78
1E78
3FF8
3FF0
3FF0
7FF0
7DF0
7DE0
F9E0
F9E0
7B00
ENDCHAR
STARTCHAR 0049
ENCODING 73
SWIDTH 315 0
DWIDTH 7 0
BBX 9 15 1 0
BITMAP
0F80
0F80
0F00
1F00
1F00
1E00
3E00
3E00
3E00
3C00
7C00
7C00
7800
F800
E000
ENDCHAR
STARTCHAR 004A
ENCODING 74
SWIDTH 450 0
DWIDTH 10 0
BBX 11 15 1 0
BITMAP
01E0
03E0
03E0
03E0
07E0
07E0
07E0
07C0
07C0
07C0
F7C0
F780
FF00
7E00
3C00
ENDCHAR
STARTCHAR 004B
ENCODING 75
SWIDTH 540 0
DWIDTH 12 0
BBX 14 15 1 0
BITMAP
3F90
1F3C
3F78
3FF0
3FE0
3FC0
7F80
7F00
7F80
7F80
FFC0
FDE0
F9E0
FCE0
F880
ENDCHAR
STARTCHAR 004C
ENCODING 76
SWIDTH 495 0
DWIDTH 11 0
BBX 11 15 1 0
BITMAP
07C0
0FC0
0F80
1F80
1F80
1F00
1F00
3F00
3E00
7E00
7FE0
7FC0
FFC0
FFC0
FF00
ENDCHAR
STARTCHAR 004D
ENCODING 77
SWIDTH 630 0
DWIDTH 14 0
BBX 14 15 1 0
BITMAP
0C04
0C0C
0E1C
1E3C
1F3C
1F7C
3FFC
3FFC
3FFC
7D7C
787C
78F8
F0F8
F0F8
E0E0
ENDCHAR
STARTCHAR 004E
ENCODING 78
SWIDTH 540 0
DWIDTH 12 0
BBX 15 15 0 0
BITMAP
078E
079E
0F9E
0FBC
1FBC
1FBC
1FB8
3FF8
3FF8
3DF8
3DF0
7DF0
79F0
79F0
F1C0
ENDCHAR
STARTCHAR 004F
ENCODING 79
SWIDTH 495 0
DWIDTH 11 0
BBX 11 16 2 0
BITMAP
0400
0F00
1F80
1FC0
3FE0
7FE0
79E0
F1E0
F1E0
F3E0
FFE0
FFC0
FFC0
FF80
7F80
3E00
ENDCHAR
STARTCHAR 0050
ENCODING 80
SWIDTH 495 0
DWIDTH 11 0
BBX 13 15 0 0
BITMAP
0FE0
0FF0
0FF8
0E78
1E38
1E78
1EF0
3FF0
3FE0
3E00
7E00
7E00
7C00
7C00
FC00
ENDCHAR
STARTCHAR 0051
ENCODING 81
SWIDTH 585 0
DWIDTH 13 0
BBX 11 16 2 -1
BITMAP
0F80
1FC0
3FE0
3FE0
79E0
78E0
F0E0
F1E0
F9E0
FFC0
FFC0
FF80
FFC0
7FE0
1BE0
03C0
ENDCHAR
STARTCHAR 0052
ENCODING 82
SWIDTH 585 0
DWIDTH 13 0
BBX 11 15 2 0
BITMAP
3F80
7FE0
7CE0
7C60
7C60
7CE0
7FC0
FF80
FF80
FF80
FB80
FBC0
F9C0
F9E0
F9C0
ENDCHAR
STARTCHAR 0053
ENCODING 83
SWIDTH 495 0
DWIDTH 11 0
BBX 13 15 1 0
BITMAP
07F8
0FF0
1FF0
1FE0
3FC0
3CC0
3E00
1F80
0FC0
03C0
43C0
FFC0
FFC0
FF80
7E00
ENDCHAR
STARTCHAR 0054
ENCODING 84
SWIDTH 540 0
DWIDTH 12 0
BBX 12 15 3 0
BITMAP
7FF0
FFF0
FFF0
FFF0
FF80
0E00
0E00
1E00
1E00
1C00
1C00
1C00
3C00
3800
3800
ENDCHAR
STARTCHAR 0055
ENCODING 85
SWIDTH 540 0
DWIDTH 12 0
BBX 13 15 2 0
BITMAP
1C78
3C78
3870
7870
78F0
70F0
F0F0
F9E0
FDE0
FFC0
FFC0
FF80
FF00
7E00
1800
ENDCHAR
STARTCHAR 0056
ENCODING 86
SWIDTH 585 0
DWIDTH 13 0
BBX 13 14 3 1
BITMAP
0038
F8F8
7CF0
7CF0
7DE0
7DE0
3DE0
3FC0
3FC0
1F80
1F80
0F00
0F00
0F00
ENDCHAR
STARTCHAR 0057
ENCODING 87
SWIDTH 720 0
DWIDTH 16 0
BBX 16 15 3 0
BITMAP
700F
F98E
F99E
F9BC
FBBC
FBFC
7FF8
7FF8
7FF0
7FF0
3DF0
39E0
38E0
18C0
1000
ENDCHAR
STARTCHAR 0058
ENCODING 88
SWIDTH 540 0
DWIDTH 12 0
BBX 15 15 1 0
BITMAP
1C1E
3E3C
3E78
3E78
3EF0
1FF0
0FE0
0FC0
0FC0
1FC0
1FC0
3DC0
79E0
78C0
F000
ENDCHAR
STARTCHAR 0059
ENCODING 89
SWIDTH 585 0
DWIDTH 13 0
BBX 13 15 3 0
BITMAP
1078
F078
F8F0
78E0
79C0
7BC0
3F80
3F00
3F00
3E00
1C00
1C00
1C00
3C00
3C00
ENDCHAR
STARTCHAR 005A
ENCODING 90
SWIDTH 585 0
DWIDTH 13 0
BBX 11 15 3 0
BITMAP
3FE0
7FC0
FF80
FF80
0700
0E00
1E00
1C00
3C00
3800
7800
7FE0
FFC0
FF80
0F00
ENDCHAR
STARTCHAR 005B
ENCODING 91
SWIDTH 315 0
DWIDTH 7 0
BBX 11 21 0 -3
BITMAP
0FE0
0FE0
0FE0
0E00
1E00
1C00
1C00
1C00
3C00
3C00
3800
3800
3800
7800
7800
7000
7000
F000
FE00
FE00
FE00
ENDCHAR
STARTCHAR 005C
ENCODING 92
SWIDTH 450 0
DWIDTH 10 0
BBX 6 18 4 -1
BITMAP
90
F0
F0
F0
F0
F0
F0
F0
70
78
78
78
78
38
38
38
3C
1C
ENDCHAR
STARTCHAR 005D
ENCODING 93
SWIDTH 315 0
DWIDTH 7 0
BBX 11 21 0 -3
BITMAP
0FE0
0FE0
0FE0
01E0
01C0
01C0
01C0
03C0
0380
0380
0380
0780
0780
0700
0700
0700
0F00
0E00
FE00
FE00
FE00
ENDCHAR
STARTCHAR 005E
ENCODING 94
SWIDTH 495 0
DWIDTH 11 0
BBX 10 9 2 7
BITMAP
0300
0780
0F80
1F80
3F80
3BC0
7BC0
F3C0
F3C0
ENDCHAR
STARTCHAR 005F
ENCODING 95
SWIDTH 360 0
DWIDTH 8 0
BBX 8 3 0 -3
BITMAP
FF
FF
FF
ENDCHAR
STARTCHAR 0060
ENCODING 96
SWIDTH 225 0
DWIDTH 5 0
BBX 4 3 4 16
BITMAP
F0
70
30
ENDCHAR
STARTCHAR 0061
ENCODING 97
SWIDTH 630 0
DWIDTH 14 0
BBX 14 16 0 -1
BITMAP
0070
0070
00F0
00F0
01F0
01F0
03F0
07F0
06F0
0CF8
1FF8
1FF8
3CF8
78F8
78FC
8000
ENDCHAR
STARTCHAR 0062
ENCODING 98
SWIDTH 495 0
DWIDTH 11 0
BBX 10 15 2 0
BITMAP
3F80
7F80
7FC0
7BC0
7980
7B80
7F00
7F80
7FC0
79C0
7BC0
FFC0
FF80
FF00
F800
ENDCHAR
STARTCHAR 0063
ENCODING 99
SWIDTH 450 0
DWIDTH 10 0
BBX 11 15 2 0
BITMAP
07C0
1FE0
3FE0
7FE0
7E00
F800
F800
F000
F9C0
FFC0
FF80
FF80
FF80
7F00
1C00
ENDCHAR
STARTCHAR 0064
ENCODING 100
SWIDTH 450 0
DWIDTH 10 0
BBX 10 15 2 0
BITMAP
3E00
7F00
7F80
7FC0
79C0
71C0
F1C0
F380
F780
FF00
FE00
FC00
F800
F000
C000
ENDCHAR
STARTCHAR 0065
ENCODING 101
SWIDTH 495 0
DWIDTH 11 0
BBX 9 16 3 0
BITMAP
0800
7F80
FF00
7F00
7E00
F000
F000
FE00
FC00
F000
FF00
FF00
FF00
FF00
FE00
E000
ENDCHAR
STARTCHAR 0066
ENCODING 102
SWIDTH 495 0
DWIDTH 11 0
BBX 13 16 1 0
BITMAP
0070
1FF8
3FF8
3FF8
3C00
3C00
7F00
7F00
7E00
7800
7000
F000
F000
F000
F000
F000
ENDCHAR
STARTCHAR 0067
ENCODING 103
SWIDTH 495 0
DWIDTH 11 0
BBX 12 15 1 0
BITMAP
03E0
07F0
0FF0
1E60
1C00
3800
38F0
71E0
71E0
73E0
FFE0
FFC0
FF80
7E00
3800
ENDCHAR
STARTCHAR 0068
ENCODING 104
SWIDTH 540 0
DWIDTH 12 0
BBX 14 15 1 0
BITMAP
0F84
1F3C
0F3C
1F78
1E78
1E78
3FF8
3FF0
3FF0
7FF0
7DF0
7DE0
F9E0
F9E0
7B00
ENDCHAR
STARTCHAR 0069
ENCODING 105
SWIDTH 315 0
DWIDTH 7 0
BBX 9 15 1 0
BITMAP
0F80
0F80
0F00
1F00
1F00
1E00
3E00
3E00
3E00
3C00
7C00
7C00
7800
F800
E000
ENDCHAR
STARTCHAR 006A
ENCODING 106
SWIDTH 450 0
DWIDTH 10 0
BBX 11 15 1 0
BITMAP
01E0
03E0
03E0
03E0
07E0
07E0
07E0
07C0
07C0
07C0
F7C0
F780
FF00
7E00
3C00
ENDCHAR
STARTCHAR 006B
ENCODING 107
SWIDTH 540 0
DWIDTH 12 0
BBX 14 15 1 0
BITMAP
3F90
1F3C
3F78
3FF0
3FE0
3FC0
7F80
7F00
7F80
7F80
FFC0
FDE0
F9E0
FCE0
F880
ENDCHAR
STARTCHAR 006C
ENCODING 108
SWIDTH 495 0
DWIDTH 11 0
BBX 11 15 1 0
BITMAP
07C0
0FC0
0F80
1F80
1F80
1F00
1F00
3F00
3E00
7E00
7FE0
7FC0
FFC0
FFC0
FF00
ENDCHAR
STARTCHAR 006D
ENCODING 109
SWIDTH 630 0
DWIDTH 14 0
BBX 14 15 1 0
BITMAP
0C04
0C0C
0E1C
1E3C
1F3C
1F7C
3FFC
3FFC
3FFC
7D7C
787C
78F8
F0F8
F0F8
E0E0
ENDCHAR
STARTCHAR 006E
ENCODING 110
SWIDTH 540 0
DWIDTH 12 0
BBX 15 15 0 0
BITMAP
078E
079E
0F9E
0FBC
1FBC
1FBC
1FB8
3FF8
3FF8
3DF8
3DF0
7DF0
79F0
79F0
F1C0
ENDCHAR
STARTCHAR 006F
ENCODING 111
SWIDTH 495 0
DWIDTH 11 0
BBX 11 16 2 0
BITMAP
0400
0F00
1F80
1FC0
3FE0
7FE0
79E0
F1E0
F1E0
F3E0
FFE0
FFC0
FFC0
FF80
7F80
3E00
ENDCHAR
STARTCHAR 0070
ENCODING 112
SWIDTH 495 0
DWIDTH 11 0
BBX 13 15 0 0
BITMAP
0FE0
0FF0
0FF8
0E78
1E38
1E78
1EF0
3FF0
3FE0
3E00
7E00
7E00
7C00
7C00
FC00
ENDCHAR
STARTCHAR 0071
ENCODING 113
SWIDTH 585 0
DWIDTH 13 0
BBX 11 16 2 -1
BITMAP
0F80
1FC0
3FE0
3FE0
79E0
78E0
F0E0
F1E0
F9E0
FFC0
FFC0
FF80
FFC0
7FE0
1BE0
03C0
ENDCHAR
STARTCHAR 0072
ENCODING 114
SWIDTH 585 0
DWIDTH 13 0
BBX 11 15 2 0
BITMAP
3F80
7FE0
7CE0
7C60
7C60
7CE0
7FC0
FF80
FF80
FF80
FB80
FBC0
F9C0
F9E0
F9C0
ENDCHAR
STARTCHAR 0073
ENCODING 115
SWIDTH 495 0
DWIDTH 11 0
BBX 13 15 1 0
BITMAP
07F8
0FF0
1FF0
1FE0
3FC0
3CC0
3E00
1F80
0FC0
03C0
43C0
FFC0
FFC0
FF80
7E00
ENDCHAR
STARTCHAR 0074
ENCODING 116
SWIDTH 540 0
DWIDTH 12 0
BBX 12 15 3 0
BITMAP
7FF0
FFF0
FFF0
FFF0
FF80
0E00
0E00
1E00
1E00
1C00
1C00
1C00
3C00
3800
3800
ENDCHAR
STARTCHAR 0075
ENCODING 117
SWIDTH 540 0
DWIDTH 12 0
BBX 13 15 2 0
BITMAP
1C78
3C78
3870
7870
78F0
70F0
F0F0
F9E0
FDE0
FFC0
FFC0
FF80
FF00
7E00
1800
ENDCHAR
STARTCHAR 0076
ENCODING 118
SWIDTH 585 0
DWIDTH 13 0
BBX 13 14 3 1
BITMAP
0038
F8F8
7CF0
7CF0
7DE0
7DE0
3DE0
3FC0
3FC0
1F80
1F80
0F00
0F00
0F00
ENDCHAR
STARTCHAR 0077
ENCODING 119
SWIDTH 720 0
DWIDTH 16 0
BBX 16 15 3 0
BITMAP
700F
F98E
F99E
F9BC
FBBC
FBFC
7FF8
7FF8
7FF0
7FF0
3DF0
39E0
38E0
18C0
1000
ENDCHAR
STARTCHAR 0078
ENCODING 120
SWIDTH 540 0
DWIDTH 12 0
BBX 15 15 1 0
BITMAP
1C1E
3E3C
3E78
3E78
3EF0
1FF0
0FE0
0FC0
0FC0
1FC0
1FC0
3DC0
79E0
78C0
F000
ENDCHAR
STARTCHAR 0079
ENCODING 121
SWIDTH 585 0
DWIDTH 13 0
BBX 13 15 3 0
BITMAP
1078
F078
F8F0
78E0
79C0
7BC0
3F80
3F00
3F00
3E00
1C00
1C00
1C00
3C00
3C00
ENDCHAR
STARTCHAR 007A
ENCODING 122
SWIDTH 585 0
DWIDTH 13 0
BBX 11 15 3 0
BITMAP
3FE0
7FC0
FF80
FF80
0700
0E00
1E00
1C00
3C00
3800
7800
7FE0
FFC0
FF80
0F00
ENDCHAR
STARTCHAR 007B
ENCODING 123
SWIDTH 315 0
DWIDTH 7 0
BBX 9 20 2 -2
BITMAP
0380
0780
0700
0E00
0C00
1C00
1C00
3800
7800
F000
F800
3800
3800
3000
7000
7000
7000
7000
7800
3800
ENDCHAR
STARTCHAR 007C
ENCODING 124
SWIDTH 180 0
DWIDTH 4 0
BBX 8 22 0 -3
BITMAP
07
0E
0E
0E
1E
1E
1C
1C
1C
3C
3C
38
38
38
78
78
70
70
70
F0
E0
E0
ENDCHAR
STARTCHAR 007D
ENCODING 125
SWIDTH 315 0
DWIDTH 7 0
BBX 9 21 0 -3
BITMAP
0400
0600
0F00
0700
0700
0700
0700
0700
0700
0700
0780
0780
0700
0E00
0C00
1C00
1800
3800
7800
F000
6000
ENDCHAR
STARTCHAR 007E
ENCODING 126
SWIDTH 450 0
DWIDTH 10 0
BBX 10 5 2 5
BITMAP
79C0
FFC0
FFC0
FF80
C600
ENDCHAR
STARTCHAR 00A0
ENCODING 160
SWIDTH 270 0
DWIDTH 6 0
BBX 0 0 0 0
BITMAP
ENDCHAR
STARTCHAR 00A1
ENCODING 161
SWIDTH 270 0
DWIDTH 6 0
BBX 8 16 0 -4
BITMAP
0F
0F
1E
04
00
1C
1C
3C
3C
3C
7C
78
F8
F8
F8
F8
ENDCHAR
STARTCHAR 00A2
ENCODING 162
SWIDTH 495 0
DWIDTH 11 0
BBX 11 19 2 -2
BITMAP
00E0
00E0
07E0
1FE0
3FE0
3FE0
7FE0
7FC0
F700
EE00
EE00
EE00
FC80
FF80
FF80
7F80
3E00
7000
7000
ENDCHAR
STARTCHAR 00A3
ENCODING 163
SWIDTH 540 0
DWIDTH 12 0
BBX 13 15 1 0
BITMAP
01F0
03F8
07F8
07F8
0F38
0F00
7FE0
7FE0
7FC0
1E00
1E00
FFB0
FFE0
FFE0
7FC0
ENDCHAR
STARTCHAR 00A4
ENCODING 164
SWIDTH 405 0
DWIDTH 9 0
BBX 10 9 2 3
BITMAP
3180
7FC0
7F80
7300
6300
6700
FF80
FF00
4000
ENDCHAR
STARTCHAR 00A5
ENCODING 165
SWIDTH 585 0
DWIDTH 13 0
BBX 14 15 2 0
BITMAP
083C
783C
7C78
3C70
3CE0
3DE0
3FE0
7FE0
7FE0
1F00
7FE0
FFC0
FFC0
1E00
1E00
ENDCHAR
STARTCHAR 00A6
ENCODING 166
SWIDTH 180 0
DWIDTH 4 0
BBX 8 22 0 -3
BITMAP
07
0E
0E
0E
0E
1E
1E
1C
1C
1C
00
00
00
38
78
70
70
70
70
F0
E0
E0
ENDCHAR
STARTCHAR 00A7
ENCODING 167
SWIDTH 495 0
DWIDTH 11 0
BBX 11 19 2 -2
BITMAP
07C0
1FC0
1FC0
3EC0
3C00
3E00
7F80
7FC0
F3E0
F1C0
FFC0
7F80
1F80
0F00
4F00
FF00
FE00
FC00
3000
ENDCHAR
STARTCHAR 00A8
ENCODING 168
SWIDTH 270 0
DWIDTH 6 0
BBX 6 2 4 16
BITMAP
CC
CC
ENDCHAR
STARTCHAR 00A9
ENCODING 169
SWIDTH 630 0
DWIDTH 14 0
BBX 14 14 2 1
BITMAP
03F0
0FF8
3E3C
381C
73CC
67CC
C60C
CE0C
CE1C
CF98
E718
F070
7FE0
3F80
ENDCHAR
STARTCHAR 00AA
ENCODING 170
SWIDTH 315 0
DWIDTH 7 0
BBX 6 8 2 7
BITMAP
0C
0C
1C
1C
2C
7C
4C
C8
ENDCHAR
STARTCHAR 00AB
ENCODING 171
SWIDTH 450 0
DWIDTH 10 0
BBX 11 9 1 0
BITMAP
0420
0C60
3DE0
7BE0
6700
F780
7BC0
39C0
18C0
ENDCHAR
STARTCHAR 00AC
ENCODING 172
SWIDTH 450 0
DWIDTH 10 0
BBX 10 6 2 4
BITMAP
2780
FFC0
FFC0
FFC0
0380
0380
ENDCHAR
STARTCHAR 00AD
ENCODING 173
SWIDTH 360 0
DWIDTH 8 0
BBX 8 4 2 6
BITMAP
2E
FF
FF
FF
ENDCHAR
STARTCHAR 00AE
ENCODING 174
SWIDTH 450 0
DWIDTH 10 0
BBX 9 10 3 6
BITMAP
1E00
7F00
6980
DC80
9C80
9D80
B500
C300
FE00
1800
ENDCHAR
STARTCHAR 00AF
ENCODING 175
SWIDTH 315 0
DWIDTH 7 0
BBX 7 2 4 16
BITMAP
FE
FC
ENDCHAR
STARTCHAR 00B0
ENCODING 176
SWIDTH 315 0
DWIDTH 7 0
BBX 7 7 3 9
BITMAP
38
7C
EE
CE
CC
FC
78
ENDCHAR
STARTCHAR 00B1
ENCODING 177
SWIDTH 450 0
DWIDTH 10 0
BBX 11 13 1 0
BITMAP
0700
0700
0700
0740
7FE0
7FE0
7FE0
0E00
0E00
0E00
0080
FF80
FF80
ENDCHAR
STARTCHAR 00B2
ENCODING 178
SWIDTH 270 0
DWIDTH 6 0
BBX 6 7 2 8
BITMAP
38
78
08
10
3C
78
F8
ENDCHAR
STARTCHAR 00B3
ENCODING 179
SWIDTH 225 0
DWIDTH 5 0
BBX 5 7 2 7
BITMAP
38
10
30
78
08
08
F8
ENDCHAR
STARTCHAR 00B4
ENCODING 180
SWIDTH 225 0
DWIDTH 5 0
BBX 5 3 4 16
BITMAP
38
70
C0
ENDCHAR
STARTCHAR 00B5
ENCODING 181
SWIDTH 540 0
DWIDTH 12 0
BBX 14 15 0 -3
BITMAP
1C38
1C38
3C3C
3C7C
3C78
3CF8
3DF8
7FF0
7FF0
7FE0
7FC0
7700
F000
E000
E000
ENDCHAR
STARTCHAR 00B6
ENCODING 182
SWIDTH 360 0
DWIDTH 8 0
BBX 10 18 2 -2
BITMAP
0FC0
3F80
7F80
7D80
7980
7B80
FB00
FB00
7B00
3B00
3600
3600
3600
7600
7E00
6C00
6C00
6C00
ENDCHAR
STARTCHAR 00B7
ENCODING 183
SWIDTH 180 0
DWIDTH 4 0
BBX 4 4 2 6
BITMAP
70
F0
F0
E0
ENDCHAR
STARTCHAR 00B8
ENCODING 184
SWIDTH 270 0
DWIDTH 6 0
BBX 6 5 0 -4
BITMAP
30
38
1C
FC
78
ENDCHAR
STARTCHAR 00B9
ENCODING 185
SWIDTH 225 0
DWIDTH 5 0
BBX 4 7 3 8
BITMAP
30
F0
30
70
70
60
E0
ENDCHAR
STARTCHAR 00BA
ENCODING 186
SWIDTH 270 0
DWIDTH 6 0
BBX 5 8 3 8
BITMAP
20
78
78
D8
D8
F8
F8
F0
ENDCHAR
STARTCHAR 00BB
ENCODING 187
SWIDTH 450 0
DWIDTH 10 0
BBX 11 10 1 0
BITMAP
6200
7300
7380
7BE0
18C0
79C0
F780
E700
8600
0800
ENDCHAR
STARTCHAR 00BC
ENCODING 188
SWIDTH 540 0
DWIDTH 12 0
BBX 12 15 2 1
BITMAP
1830
7870
18E0
38C0
3980
3380
7700
0E00
0CC0
1880
39E0
71E0
E0C0
C080
8180
ENDCHAR
STARTCHAR 00BD
ENCODING 189
SWIDTH 540 0
DWIDTH 12 0
BBX 12 15 2 1
BITMAP
1830
7870
18E0
38C0
3980
3380
7700
0E80
0FC0
1840
38C0
7080
E1E0
C3C0
8380
ENDCHAR
STARTCHAR 00BE
ENCODING 190
SWIDTH 540 0
DWIDTH 12 0
BBX 12 15 2 1
BITMAP
3830
1070
30E0
78C0
0980
0B80
FF00
0E00
0CC0
1880
39E0
71E0
E0C0
C080
8180
ENDCHAR
STARTCHAR 00BF
ENCODING 191
SWIDTH 450 0
DWIDTH 10 0
BBX 10 16 0 -4
BITMAP
0180
03C0
03C0
0380
0000
0380
0780
0F80
3F00
7C00
7000
7000
F1C0
FFC0
FF80
7F00
ENDCHAR
STARTCHAR 00C0
ENCODING 192
SWIDTH 630 0
DWIDTH 14 0
BBX 14 20 0 -1
BITMAP
00E0
00E0
0070
0000
0070
0070
00F0
00F0
01F0
01F0
03F0
07F0
06F0
0CF8
1FF8
1FF8
3CF8
78F8
78FC
8000
ENDCHAR
STARTCHAR 00C1
ENCODING 193
SWIDTH 630 0
DWIDTH 14 0
BBX 15 20 0 -1
BITMAP
000E
001C
0038
0000
0070
0070
00F0
00F0
01F0
01F0
03F0
07F0
06F0
0CF8
1FF8
1FF8
3CF8
78F8
78FC
8000
ENDCHAR
STARTCHAR 00C2
ENCODING 194
SWIDTH 630 0
DWIDTH 14 0
BBX 14 20 0 -1
BITMAP
0038
007C
00CC
0000
0070
0070
00F0
00F0
01F0
01F0
03F0
07F0
06F0
0CF8
1FF8
1FF8
3CF8
78F8
78FC
8000
ENDCHAR
STARTCHAR 00C3
ENCODING 195
SWIDTH 630 0
DWIDTH 14 0
BBX 15 20 0 -1
BITMAP
0066
00FE
00FC
0000
0070
0070
00F0
00F0
01F0
01F0
03F0
07F0
06F0
0CF8
1FF8
1FF8
3CF8
78F8
78FC
8000
ENDCHAR
STARTCHAR 00C4
ENCODING 196
SWIDTH 630 0
DWIDTH 14 0
BBX 14 19 0 -1
BITMAP
006C
00CC
0000
0070
0070
00F0
00F0
01F0
01F0
03F0
07F0
06F0
0CF8
1FF8
1FF8
3CF8
78F8
78FC
8000
ENDCHAR
STARTCHAR 00C5
ENCODING 197
SWIDTH 630 0
DWIDTH 14 0
BBX 14 20 0 -1
BITMAP
0078
00CC
00CC
01CC
00F8
0070
00F0
00F0
01F0
01F0
03F0
07F0
06F0
0CF8
1FF8
1FF8
3CF8
78F8
78FC
8000
ENDCHAR
STARTCHAR 00C6
ENCODING 198
SWIDTH 720 0
DWIDTH 16 0
BBX 16 15 1 0
BITMAP
00FF
00FE
01FE
01FE
03F0
07F0
07FC
0FFC
0DE0
19FE
3FFE
3FFE
79FE
F1FE
F1E0
ENDCHAR
STARTCHAR 00C7
ENCODING 199
SWIDTH 450 0
DWIDTH 10 0
BBX 11 19 2 -4
BITMAP
07C0
1FE0
3FE0
7FE0
7E00
F800
F800
F000
F9C0
FFC0
FF80
FF80
FF80
7F00
3C00
3800
1C00
FC00
7000
ENDCHAR
STARTCHAR 00C8
ENCODING 200
SWIDTH 495 0
DWIDTH 11 0
BBX 9 19 3 0
BITMAP
7800
3800
1C00
0800
7F80
FF00
7F00
7E00
F000
F000
FE00
FC00
F000
FF00
FF00
FF00
FF00
FE00
E000
ENDCHAR
STARTCHAR 00C9
ENCODING 201
SWIDTH 495 0
DWIDTH 11 0
BBX 9 20 3 0
BITMAP
0300
0600
0C00
1C00
0800
7F80
FF00
7F00
7E00
F000
F000
FE00
FC00
F000
FF00
FF00
FF00
FF00
FE00
E000
ENDCHAR
STARTCHAR 00CA
ENCODING 202
SWIDTH 495 0
DWIDTH 11 0
BBX 9 19 3 1
BITMAP
1C00
3F00
6600
0800
7F80
FF00
7F00
7E00
F000
F000
FE00
FC00
F000
FF00
FF00
FF00
FF00
FE00
E000
ENDCHAR
STARTCHAR 00CB
ENCODING 203
SWIDTH 495 0
DWIDTH 11 0
BBX 9 18 3 0
BITMAP
3600
6600
0800
7F80
FF00
7F00
7E00
F000
F000
FE00
FC00
F000
FF00
FF00
FF00
FF00
FE00
E000
ENDCHAR
STARTCHAR 00CC
ENCODING 204
SWIDTH 315 0
DWIDTH 7 0
BBX 9 19 1 0
BITMAP
0F00
0700
0300
0000
0F80
0F80
0F00
1F00
1F00
1E00
3E00
3E00
3E00
3C00
7C00
7C00
7800
F800
E000
ENDCHAR
STARTCHAR 00CD
ENCODING 205
SWIDTH 315 0
DWIDTH 7 0
BBX 11 19 1 0
BITMAP
00E0
01C0
0380
0000
0F80
0F80
0F00
1F00
1F00
1E00
3E00
3E00
3E00
3C00
7C00
7C00
7800
F800
E000
ENDCHAR
STARTCHAR 00CE
ENCODING 206
SWIDTH 315 0
DWIDTH 7 0
BBX 11 19 1 0
BITMAP
0380
07C0
0EE0
0000
0F80
0F80
0F00
1F00
1F00
1E00
3E00
3E00
3E00
3C00
7C00
7C00
7800
F800
E000
ENDCHAR
STARTCHAR 00CF
ENCODING 207
SWIDTH 315 0
DWIDTH 7 0
BBX 10 18 1 0
BITMAP
06C0
0EC0
0000
0F80
0F80
0F00
1F00
1F00
1E00
3E00
3E00
3E00
3C00
7C00
7C00
7800
F800
E000
ENDCHAR
STARTCHAR 00D0
ENCODING 208
SWIDTH 450 0
DWIDTH 10 0
BBX 11 15 2 0
BITMAP
3F00
3F80
3FC0
3FC0
79C0
7EE0
FFC0
FDC0
FB80
7F80
7F00
7E00
7C00
7800
4000
ENDCHAR
STARTCHAR 00D1
ENCODING 209
SWIDTH 540 0
DWIDTH 12 0
BBX 15 19 0 0
BITMAP
006C
00FC
00B8
0000
078E
079E
0F9E
0FBC
1FBC
1FBC
1FB8
3FF8
3FF8
3DF8
3DF0
7DF0
79F0
79F0
F1C0
ENDCHAR
STARTCHAR 00D2
ENCODING 210
SWIDTH 495 0
DWIDTH 11 0
BBX 11 19 2 0
BITMAP
1C00
1C00
0C00
0400
0F00
1F80
1FC0
3FE0
7FE0
79E0
F1E0
F1E0
F3E0
FFE0
FFC0
FFC0
FF80
7F80
3E00
ENDCHAR
STARTCHAR 00D3
ENCODING 211
SWIDTH 495 0
DWIDTH 11 0
BBX 11 19 2 0
BITMAP
01C0
0380
0700
0400
0F00
1F80
1FC0
3FE0
7FE0
79E0
F1E0
F1E0
F3E0
FFE0
FFC0
FFC0
FF80
7F80
3E00
ENDCHAR
STARTCHAR 00D4
ENCODING 212
SWIDTH 495 0
DWIDTH 11 0
BBX 11 19 2 0
BITMAP
0700
1F80
1980
0400
0F00
1F80
1FC0
3FE0
7FE0
79E0
F1E0
F1E0
F3E0
FFE0
FFC0
FFC0
FF80
7F80
3E00
ENDCHAR
STARTCHAR 00D5
ENCODING 213
SWIDTH 495 0
DWIDTH 11 0
BBX 11 19 2 0
BITMAP
0D80
1F80
1F00
0400
0F00
1F80
1FC0
3FE0
7FE0
79E0
F1E0
F1E0
F3E0
FFE0
FFC0
FFC0
FF80
7F80
3E00
ENDCHAR
STARTCHAR 00D6
ENCODING 214
SWIDTH 495 0
DWIDTH 11 0
BBX 11 18 2 0
BITMAP
1980
1980
0400
0F00
1F80
1FC0
3FE0
7FE0
79E0
F1E0
F1E0
F3E0
FFE0
FFC0
FFC0
FF80
7F80
3E00
ENDCHAR
STARTCHAR 00D7
ENCODING 215
SWIDTH 405 0
DWIDTH 9 0
BBX 9 8 2 3
BITMAP
3180
7B80
7F80
3F00
3E00
7F00
FF00
E600
ENDCHAR
STARTCHAR 00D8
ENCODING 216
SWIDTH 495 0
DWIDTH 11 0
BBX 15 16 0 0
BITMAP
010E
03DE
07FC
07F8
0FF8
1FF8
1FF8
3FF8
3BF8
3F78
3EF8
3FF0
3FF0
3FE0
7FE0
EF80
ENDCHAR
STARTCHAR 00D9
ENCODING 217
SWIDTH 540 0
DWIDTH 12 0
BBX 13 19 2 0
BITMAP
0700
0380
0180
0000
1C78
3C78
3870
7870
78F0
70F0
F0F0
F9E0
FDE0
FFC0
FFC0
FF80
FF00
7E00
1800
ENDCHAR
STARTCHAR 00DA
ENCODING 218
SWIDTH 540 0
DWIDTH 12 0
BBX 13 19 2 0
BITMAP
0070
00E0
00C0
0000
1C78
3C78
3870
7870
78F0
70F0
F0F0
F9E0
FDE0
FFC0
FFC0
FF80
FF00
7E00
1800
ENDCHAR
STARTCHAR 00DB
ENCODING 219
SWIDTH 540 0
DWIDTH 12 0
BBX 13 19 2 0
BITMAP
01C0
03E0
0770
0000
1C78
3C78
3870
7870
78F0
70F0
F0F0
F9E0
FDE0
FFC0
FFC0
FF80
FF00
7E00
1800
ENDCHAR
STARTCHAR 00DC
ENCODING 220
SWIDTH 540 0
DWIDTH 12 0
BBX 13 18 2 0
BITMAP
0360
0770
0000
1C78
3C78
3870
7870
78F0
70F0
F0F0
F9E0
FDE0
FFC0
FFC0
FF80
FF00
7E00
1800
ENDCHAR
STARTCHAR 00DD
ENCODING 221
SWIDTH 585 0
DWIDTH 13 0
BBX 13 19 3 0
BITMAP
00E0
01C0
0180
0000
1078
F078
F8F0
78E0
79C0
7BC0
3F80
3F00
3F00
3E00
1C00
1C00
1C00
3C00
3C00
ENDCHAR
STARTCHAR 00DE
ENCODING 222
SWIDTH 495 0
DWIDTH 11 0
BBX 11 15 1 0
BITMAP
3C00
3C00
3FC0
3FE0
3FE0
38E0
78E0
78E0
79E0
7BE0
7FC0
7F80
7800
F800
F000
ENDCHAR
STARTCHAR 00DF
ENCODING 223
SWIDTH 540 0
DWIDTH 12 0
BBX 12 16 1 0
BITMAP
0FC0
1FC0
3FE0
38E0
38C0
79C0
7B80
7BE0
73F0
70F0
70F0
70F0
73E0
F7E0
F780
E000
ENDCHAR
STARTCHAR 00E0
ENCODING 224
SWIDTH 630 0
DWIDTH 14 0
BBX 14 20 0 -1
BITMAP
00E0
00E0
0070
0000
0070
0070
00F0
00F0
01F0
01F0
03F0
07F0
06F0
0CF8
1FF8
1FF8
3CF8
78F8
78FC
8000
ENDCHAR
STARTCHAR 00E1
ENCODING 225
SWIDTH 630 0
DWIDTH 14 0
BBX 15 20 0 -1
BITMAP
000E
001C
0038
0000
0070
0070
00F0
00F0
01F0
01F0
03F0
07F0
06F0
0CF8
1FF8
1FF8
3CF8
78F8
78FC
8000
ENDCHAR
STARTCHAR 00E2
ENCODING 226
SWIDTH 630 0
DWIDTH 14 0
BBX 14 20 0 -1
BITMAP
0038
007C
00CC
0000
0070
0070
00F0
00F0
01F0
01F0
03F0
07F0
06F0
0CF8
1FF8
1FF8
3CF8
78F8
78FC
8000
ENDCHAR
STARTCHAR 00E3
ENCODING 227
SWIDTH 630 0
DWIDTH 14 0
BBX 15 20 0 -1
BITMAP
0066
00FE
00FC
0000
0070
0070
00F0
00F0
01F0
01F0
03F0
07F0
06F0
0CF8
1FF8
1FF8
3CF8
78F8
78FC
8000
ENDCHAR
STARTCHAR 00E4
ENCODING 228
SWIDTH 630 0
DWIDTH 14 0
BBX 14 19 0 -1
BITMAP
006C
00CC
0000
0070
0070
00F0
00F0
01F0
01F0
03F0
07F0
06F0
0CF8
1FF8
1FF8
3CF8
78F8
78FC
8000
ENDCHAR
STARTCHAR 00E5
ENCODING 229
SWIDTH 630 0
DWIDTH 14 0
BBX 14 20 0 -1
BITMAP
0078
00CC
00CC
01CC
00F8
0070
00F0
00F0
01F0
01F0
03F0
07F0
06F0
0CF8
1FF8
1FF8
3CF8
78F8
78FC
8000
ENDCHAR
STARTCHAR 00E6
ENCODING 230
SWIDTH 720 0
DWIDTH 16 0
BBX 16 15 1 0
BITMAP
00FF
00FE
01FE
01FE
03F0
07F0
07FC
0FFC
0DE0
19FE
3FFE
3FFE
79FE
F1FE
F1E0
ENDCHAR
STARTCHAR 00E7
ENCODING 231
SWIDTH 450 0
DWIDTH 10 0
BBX 11 19 2 -4
BITMAP
07C0
1FE0
3FE0
7FE0
7E00
F800
F800
F000
F9C0
FFC0
FF80
FF80
FF80
7F00
3C00
3800
1C00
FC00
7000
ENDCHAR
STARTCHAR 00E8
ENCODING 232
SWIDTH 495 0
DWIDTH 11 0
BBX 9 19 3 0
BITMAP
7800
3800
1C00
0800
7F80
FF00
7F00
7E00
F000
F000
FE00
FC00
F000
FF00
FF00
FF00
FF00
FE00
E000
ENDCHAR
STARTCHAR 00E9
ENCODING 233
SWIDTH 495 0
DWIDTH 11 0
BBX 9 20 3 0
BITMAP
0300
0600
0C00
1C00
0800
7F80
FF00
7F00
7E00
F000
F000
FE00
FC00
F000
FF00
FF00
FF00
FF00
FE00
E000
ENDCHAR
STARTCHAR 00EA
ENCODING 234
SWIDTH 495 0
DWIDTH 11 0
BBX 9 19 3 1
BITMAP
1C00
3F00
6600
0800
7F80
FF00
7F00
7E00
F000
F000
FE00
FC00
F000
FF00
FF00
FF00
FF00
FE00
E000
ENDCHAR
STARTCHAR 00EB
ENCODING 235
SWIDTH 495 0
DWIDTH 11 0
BBX 9 18 3 0
BITMAP
3600
6600
0800
7F80
FF00
7F00
7E00
F000
F000
FE00
FC00
F000
FF00
FF00
FF00
FF00
FE00
E000
ENDCHAR
STARTCHAR 00EC
ENCODING 236
SWIDTH 315 0
DWIDTH 7 0
BBX 9 19 1 0
BITMAP
0F00
0700
0300
0000
0F80
0F80
0F00
1F00
1F00
1E00
3E00
3E00
3E00
3C00
7C00
7C00
7800
F800
E000
ENDCHAR
STARTCHAR 00ED
ENCODING 237
SWIDTH 315 0
DWIDTH 7 0
BBX 11 19 1 0
BITMAP
00E0
01C0
0380
0000
0F80
0F80
0F00
1F00
1F00
1E00
3E00
3E00
3E00
3C00
7C00
7C00
7800
F800
E000
ENDCHAR
STARTCHAR 00EE
ENCODING 238
SWIDTH 315 0
DWIDTH 7 0
BBX 11 19 1 0
BITMAP
0380
07C0
0EE0
0000
0F80
0F80
0F00
1F00
1F00
1E00
3E00
3E00
3E00
3C00
7C00
7C00
7800
F800
E000
ENDCHAR
STARTCHAR 00EF
ENCODING 239
SWIDTH 315 0
DWIDTH 7 0
BBX 10 18 1 0
BITMAP
06C0
0EC0
0000
0F80
0F80
0F00
1F00
1F00
1E00
3E00
3E00
3E00
3C00
7C00
7C00
7800
F800
E000
ENDCHAR
STARTCHAR 00F0
ENCODING 240
SWIDTH 450 0
DWIDTH 10 0
BBX 11 15 2 0
BITMAP
3F00
3F80
3FC0
3FC0
79C0
7EE0
FFC0
FDC0
FB80
7F80
7F00
7E00
7C00
7800
4000
ENDCHAR
STARTCHAR 00F1
ENCODING 241
SWIDTH 540 0
DWIDTH 12 0
BBX 15 19 0 0
BITMAP
006C
00FC
00B8
0000
078E
079E
0F9E
0FBC
1FBC
1FBC
1FB8
3FF8
3FF8
3DF8
3DF0
7DF0
79F0
79F0
F1C0
ENDCHAR
STARTCHAR 00F2
ENCODING 242
SWIDTH 495 0
DWIDTH 11 0
BBX 11 19 2 0
BITMAP
1C00
1C00
0C00
0400
0F00
1F80
1FC0
3FE0
7FE0
79E0
F1E0
F1E0
F3E0
FFE0
FFC0
FFC0
FF80
7F80
3E00
ENDCHAR
STARTCHAR 00F3
ENCODING 243
SWIDTH 495 0
DWIDTH 11 0
BBX 11 19 2 0
BITMAP
01C0
0380
0700
0400
0F00
1F80
1FC0
3FE0
7FE0
79E0
F1E0
F1E0
F3E0
FFE0
FFC0
FFC0
FF80
7F80
3E00
ENDCHAR
STARTCHAR 00F4
ENCODING 244
SWIDTH 495 0
DWIDTH 11 0
BBX 11 19 2 0
BITMAP
0700
1F80
1980
0400
0F00
1F80
1FC0
3FE0
7FE0
79E0
F1E0
F1E0
F3E0
FFE0
FFC0
FFC0
FF80
7F80
3E00
ENDCHAR
STARTCHAR 00F5
ENCODING 245
SWIDTH 495 0
DWIDTH 11 0
BBX 11 19 2 0
BITMAP
0D80
1F80
1F00
0400
0F00
1F80
1FC0
3FE0
7FE0
79E0
F1E0
F1E0
F3E0
FFE0
FFC0
FFC0
FF80
7F80
3E00
ENDCHAR
STARTCHAR 00F6
ENCODING 246
SWIDTH 495 0
DWIDTH 11 0
BBX 11 18 2 0
BITMAP
1980
1980
0400
0F00
1F80
1FC0
3FE0
7FE0
79E0
F1E0
F1E0
F3E0
FFE0
FFC0
FFC0
FF80
7F80
3E00
ENDCHAR
STARTCHAR 00F7
ENCODING 247
SWIDTH 450 0
DWIDTH 10 0
BBX 10 12 2 2
BITMAP
0600
0F00
0F00
0E00
0000
FFC0
FFC0
F800
0800
1C00
3C00
3800
ENDCHAR
STARTCHAR 00F8
ENCODING 248
SWIDTH 495 0
DWIDTH 11 0
BBX 15 16 0 0
BITMAP
010E
03DE
07FC
07F8
0FF8
1FF8
1FF8
3FF8
3BF8
3F78
3EF8
3FF0
3FF0
3FE0
7FE0
EF80
ENDCHAR
STARTCHAR 00F9
ENCODING 249
SWIDTH 540 0
DWIDTH 12 0
BBX 13 19 2 0
BITMAP
0700
0380
0180
0000
1C78
3C78
3870
7870
78F0
70F0
F0F0
F9E0
FDE0
FFC0
FFC0
FF80
FF00
7E00
1800
ENDCHAR
STARTCHAR 00FA
ENCODING 250
SWIDTH 540 0
DWIDTH 12 0
BBX 13 19 2 0
BITMAP
0070
00E0
00C0
0000
1C78
3C78
3870
7870
78F0
70F0
F0F0
F9E0
FDE0
FFC0
FFC0
FF80
FF00
7E00
1800
ENDCHAR
STARTCHAR 00FB
ENCODING 251
SWIDTH 540 0
DWIDTH 12 0
BBX 13 19 2 0
BITMAP
01C0
03E0
0770
0000
1C78
3C78
3870
7870
78F0
70F0
F0F0
F9E0
FDE0
FFC0
FFC0
FF80
FF00
7E00
1800
ENDCHAR
STARTCHAR 00FC
ENCODING 252
SWIDTH 540 0
DWIDTH 12 0
BBX 13 18 2 0
BITMAP
0360
0770
0000
1C78
3C78
3870
7870
78F0
70F0
F0F0
F9E0
FDE0
FFC0
FFC0
FF80
FF00
7E00
1800
ENDCHAR
STARTCHAR 00FD
ENCODING 253
SWIDTH 585 0
DWIDTH 13 0
BBX 13 19 3 0
BITMAP
00E0
01C0
0180
0000
1078
F078
F8F0
78E0
79C0
7BC0
3F80
3F00
3F00
3E00
1C00
1C00
1C00
3C00
3C00
ENDCHAR
STARTCHAR 00FE
ENCODING 254
SWIDTH 495 0
DWIDTH 11 0
BBX 11 15 1 0
BITMAP
3C00
3C00
3FC0
3FE0
3FE0
38E0
78E0
78E0
79E0
7BE0
7FC0
7F80
7800
F800
F000
ENDCHAR
STARTCHAR 00FF
ENCODING 255
SWIDTH 585 0
DWIDTH 13 0
BBX 13 18 3 0
BITMAP
06E0
0EC0
0000
1078
F078
F8F0
78E0
79C0
7BC0
3F80
3F00
3F00
3E00
1C00
1C00
1C00
3C00
3C00
ENDCHAR
STARTCHAR 0100
ENCODING 256
SWIDTH 630 0
DWIDTH 14 0
BBX 15 19 0 -1
BITMAP
00FE
00FC
0000
0070
0070
00F0
00F0
01F0
01F0
03F0
07F0
06F0
0CF8
1FF8
1FF8
3CF8
78F8
78FC
8000
ENDCHAR
STARTCHAR 0101
ENCODING 257
SWIDTH 630 0
DWIDTH 14 0
BBX 15 19 0 -1
BITMAP
00FE
00FC
0000
0070
0070
00F0
00F0
01F0
01F0
03F0
07F0
06F0
0CF8
1FF8
1FF8
3CF8
78F8
78FC
8000
ENDCHAR
STARTCHAR 0102
ENCODING 258
SWIDTH 630 0
DWIDTH 14 0
BBX 15 20 0 -1
BITMAP
00CE
00FC
0078
0000
0070
0070
00F0
00F0
01F0
01F0
03F0
07F0
06F0
0CF8
1FF8
1FF8
3CF8
78F8
78FC
8000
ENDCHAR
STARTCHAR 0103
ENCODING 259
SWIDTH 630 0
DWIDTH 14 0
BBX 15 20 0 -1
BITMAP
00CE
00FC
0078
0000
0070
0070
00F0
00F0
01F0
01F0
03F0
07F0
06F0
0CF8
1FF8
1FF8
3CF8
78F8
78FC
8000
ENDCHAR
STARTCHAR 0104
ENCODING 260
SWIDTH 630 0
DWIDTH 14 0
BBX 14 19 0 -4
BITMAP
0070
0070
00F0
00F0
01F0
01F0
03F0
07F0
06F0
0CF8
1FF8
1FF8
3CF8
78F8
78FC
8180
0180
03F0
01F0
ENDCHAR
STARTCHAR 0105
ENCODING 261
SWIDTH 630 0
DWIDTH 14 0
BBX 14 19 0 -4
BITMAP
0070
0070
00F0
00F0
01F0
01F0
03F0
07F0
06F0
0CF8
1FF8
1FF8
3CF8
78F8
78FC
8180
0180
03F0
01F0
ENDCHAR
STARTCHAR 0106
ENCODING 262
SWIDTH 450 0
DWIDTH 10 0
BBX 12 19 2 0
BITMAP
0070
00E0
01C0
0000
07C0
1FE0
3FE0
7FE0
7E00
F800
F800
F000
F9C0
FFC0
FF80
FF80
FF80
7F00
1C00
ENDCHAR
STARTCHAR 0107
ENCODING 263
SWIDTH 450 0
DWIDTH 10 0
BBX 12 19 2 0
BITMAP
0070
00E0
01C0
0000
07C0
1FE0
3FE0
7FE0
7E00
F800
F800
F000
F9C0
FFC0
FF80
FF80
FF80
7F00
1C00
ENDCHAR
STARTCHAR 0108
ENCODING 264
SWIDTH 450 0
DWIDTH 10 0
BBX 11 19 2 0
BITMAP
01C0
03E0
0760
0000
07C0
1FE0
3FE0
7FE0
7E00
F800
F800
F000
F9C0
FFC0
FF80
FF80
FF80
7F00
1C00
ENDCHAR
STARTCHAR 0109
ENCODING 265
SWIDTH 450 0
DWIDTH 10 0
BBX 11 19 2 0
BITMAP
01C0
03E0
0760
0000
07C0
1FE0
3FE0
7FE0
7E00
F800
F800
F000
F9C0
FFC0
FF80
FF80
FF80
7F00
1C00
ENDCHAR
STARTCHAR 010A
ENCODING 266
SWIDTH 450 0
DWIDTH 10 0
BBX 11 18 2 0
BITMAP
0180
0180
0000
07C0
1FE0
3FE0
7FE0
7E00
F800
F800
F000
F9C0
FFC0
FF80
FF80
FF80
7F00
1C00
ENDCHAR
STARTCHAR 010B
ENCODING 267
SWIDTH 450 0
DWIDTH 10 0
BBX 11 18 2 0
BITMAP
0180
0180
0000
07C0
1FE0
3FE0
7FE0
7E00
F800
F800
F000
F9C0
FFC0
FF80
FF80
FF80
7F00
1C00
ENDCHAR
STARTCHAR 010C
ENCODING 268
SWIDTH 450 0
DWIDTH 10 0
BBX 12 19 2 0
BITMAP
0770
03E0
01C0
0000
07C0
1FE0
3FE0
7FE0
7E00
F800
F800
F000
F9C0
FFC0
FF80
FF80
FF80
7F00
1C00
ENDCHAR
STARTCHAR 010D
ENCODING 269
SWIDTH 450 0
DWIDTH 10 0
BBX 12 19 2 0
BITMAP
0770
03E0
01C0
0000
07C0
1FE0
3FE0
7FE0
7E00
F800
F800
F000
F9C0
FFC0
FF80
FF80
FF80
7F00
1C00
ENDCHAR
STARTCHAR 010E
ENCODING 270
SWIDTH 450 0
DWIDTH 10 0
BBX 10 19 2 1
BITMAP
3B80
1F00
0E00
0000
3E00
7F00
7F80
7FC0
79C0
71C0
F1C0
F380
F780
FF00
FE00
FC00
F800
F000
C000
ENDCHAR
STARTCHAR 010F
ENCODING 271
SWIDTH 450 0
DWIDTH 10 0
BBX 10 19 2 1
BITMAP
3B80
1F00
0E00
0000
3E00
7F00
7F80
7FC0
79C0
71C0
F1C0
F380
F780
FF00
FE00
FC00
F800
F000
C000
ENDCHAR
STARTCHAR 0110
ENCODING 272
SWIDTH 450 0
DWIDTH 10 0
BBX 11 15 2 0
BITMAP
3F00
3F80
3FC0
3FC0
79C0
7EE0
FFC0
FDC0
FB80
7F80
7F00
7E00
7C00
7800
4000
ENDCHAR
STARTCHAR 0111
ENCODING 273
SWIDTH 450 0
DWIDTH 10 0
BBX 11 15 2 0
BITMAP
3F00
3F80
3FC0
3FC0
79C0
7EE0
FFC0
FDC0
FB80
7F80
7F00
7E00
7C00
7800
4000
ENDCHAR
STARTCHAR 0112
ENCODING 274
SWIDTH 495 0
DWIDTH 11 0
BBX 9 18 3 0
BITMAP
7F00
7E00
0800
7F80
FF00
7F00
7E00
F000
F000
FE00
FC00
F000
FF00
FF00
FF00
FF00
FE00
E000
ENDCHAR
STARTCHAR 0113
ENCODING 275
SWIDTH 495 0
DWIDTH 11 0
BBX 9 18 3 0
BITMAP
7F00
7E00
0800
7F80
FF00
7F00
7E00
F000
F000
FE00
FC00
F000
FF00
FF00
FF00
FF00
FE00
E000
ENDCHAR
STARTCHAR 0114
ENCODING 276
SWIDTH 495 0
DWIDTH 11 0
BBX 9 20 3 0
BITMAP
0100
6300
3E00
3C00
0800
7F80
FF00
7F00
7E00
F000
F000
FE00
FC00
F000
FF00
FF00
FF00
FF00
FE00
E000
ENDCHAR
STARTCHAR 0115
ENCODING 277
SWIDTH 495 0
DWIDTH 11 0
BBX 9 20 3 0
BITMAP
0100
6300
3E00
3C00
0800
7F80
FF00
7F00
7E00
F000
F000
FE00
FC00
F000
FF00
FF00
FF00
FF00
FE00
E000
ENDCHAR
STARTCHAR 0116
ENCODING 278
SWIDTH 495 0
DWIDTH 11 0
BBX 9 18 3 0
BITMAP
1800
1800
0800
7F80
FF00
7F00
7E00
F000
F000
FE00
FC00
F000
FF00
FF00
FF00
FF00
FE00
E000
ENDCHAR
STARTCHAR 0117
ENCODING 279
SWIDTH 495 0
DWIDTH 11 0
BBX 9 18 3 0
BITMAP
1800
1800
0800
7F80
FF00
7F00
7E00
F000
F000
FE00
FC00
F000
FF00
FF00
FF00
FF00
FE00
E000
ENDCHAR
STARTCHAR 0118
ENCODING 280
SWIDTH 495 0
DWIDTH 11 0
BBX 9 19 3 -3
BITMAP
0800
7F80
FF00
7F00
7E00
F000
F000
FE00
FC00
F000
FF00
FF00
FF00
FF00
FE00
F000
3000
7600
7E00
ENDCHAR
STARTCHAR 0119
ENCODING 281
SWIDTH 495 0
DWIDTH 11 0
BBX 9 19 3 -3
BITMAP
0800
7F80
FF00
7F00
7E00
F000
F000
FE00
FC00
F000
FF00
FF00
FF00
FF00
FE00
F000
3000
7600
7E00
ENDCHAR
STARTCHAR 011A
ENCODING 282
SWIDTH 495 0
DWIDTH 11 0
BBX 9 19 3 1
BITMAP
7700
3E00
1C00
0800
7F80
FF00
7F00
7E00
F000
F000
FE00
FC00
F000
FF00
FF00
FF00
FF00
FE00
E000
ENDCHAR
STARTCHAR 011B
ENCODING 283
SWIDTH 495 0
DWIDTH 11 0
BBX 9 19 3 1
BITMAP
7700
3E00
1C00
0800
7F80
FF00
7F00
7E00
F000
F000
FE00
FC00
F000
FF00
FF00
FF00
FF00
FE00
E000
ENDCHAR
STARTCHAR 011C
ENCODING 284
SWIDTH 495 0
DWIDTH 11 0
BBX 12 19 1 0
BITMAP
00C0
03E0
0770
0000
03E0
07F0
0FF0
1E60
1C00
3800
38F0
71E0
71E0
73E0
FFE0
FFC0
FF80
7E00
3800
ENDCHAR
STARTCHAR 011D
ENCODING 285
SWIDTH 495 0
DWIDTH 11 0
BBX 12 19 1 0
BITMAP
00C0
03E0
0770
0000
03E0
07F0
0FF0
1E60
1C00
3800
38F0
71E0
71E0
73E0
FFE0
FFC0
FF80
7E00
3800
ENDCHAR
STARTCHAR 011E
ENCODING 286
SWIDTH 495 0
DWIDTH 11 0
BBX 12 19 1 0
BITMAP
0330
03F0
03E0
0000
03E0
07F0
0FF0
1E60
1C00
3800
38F0
71E0
71E0
73E0
FFE0
FFC0
FF80
7E00
3800
ENDCHAR
STARTCHAR 011F
ENCODING 287
SWIDTH 495 0
DWIDTH 11 0
BBX 12 19 1 0
BITMAP
0330
03F0
03E0
0000
03E0
07F0
0FF0
1E60
1C00
3800
38F0
71E0
71E0
73E0
FFE0
FFC0
FF80
7E00
3800
ENDCHAR
STARTCHAR 0120
ENCODING 288
SWIDTH 495 0
DWIDTH 11 0
BBX 12 18 1 0
BITMAP
00C0
01C0
0000
03E0
07F0
0FF0
1E60
1C00
3800
38F0
71E0
71E0
73E0
FFE0
FFC0
FF80
7E00
3800
ENDCHAR
STARTCHAR 0121
ENCODING 289
SWIDTH 495 0
DWIDTH 11 0
BBX 12 18 1 0
BITMAP
00C0
01C0
0000
03E0
07F0
0FF0
1E60
1C00
3800
38F0
71E0
71E0
73E0
FFE0
FFC0
FF80
7E00
3800
ENDCHAR
STARTCHAR 0122
ENCODING 290
SWIDTH 495 0
DWIDTH 11 0
BBX 12 19 1 -4
BITMAP
03E0
07F0
0FF0
1E60
1C00
3800
38F0
71E0
71E0
73E0
FFE0
FFC0
FF80
7E00
3800
3800
3800
7000
6000
ENDCHAR
STARTCHAR 0123
ENCODING 291
SWIDTH 495 0
DWIDTH 11 0
BBX 12 19 1 -4
BITMAP
03E0
07F0
0FF0
1E60
1C00
3800
38F0
71E0
71E0
73E0
FFE0
FFC0
FF80
7E00
3800
3800
3800
7000
6000
ENDCHAR
STARTCHAR 0124
ENCODING 292
SWIDTH 540 0
DWIDTH 12 0
BBX 14 19 1 0
BITMAP
0070
00F8
01DC
0000
0F84
1F3C
0F3C
1F78
1E78
1E78
3FF8
3FF0
3FF0
7FF0
7DF0
7DE0
F9E0
F9E0
7B00
ENDCHAR
STARTCHAR 0125
ENCODING 293
SWIDTH 540 0
DWIDTH 12 0
BBX 14 19 1 0
BITMAP
0070
00F8
01DC
0000
0F84
1F3C
0F3C
1F78
1E78
1E78
3FF8
3FF0
3FF0
7FF0
7DF0
7DE0
F9E0
F9E0
7B00
ENDCHAR
STARTCHAR 0126
ENCODING 294
SWIDTH 585 0
DWIDTH 13 0
BBX 14 15 1 0
BITMAP
0F84
1F7C
3FFC
3FFC
3FF8
1E78
3FF8
3FF0
3FF0
7FF0
7DF0
7DE0
F9E0
F9E0
7B00
ENDCHAR
STARTCHAR 0127
ENCODING 295
SWIDTH 585 0
DWIDTH 13 0
BBX 14 15 1 0
BITMAP
0F84
1F7C
3FFC
3FFC
3FF8
1E78
3FF8
3FF0
3FF0
7FF0
7DF0
7DE0
F9E0
F9E0
7B00
ENDCHAR
STARTCHAR 0128
ENCODING 296
SWIDTH 315 0
DWIDTH 7 0
BBX 11 19 1 0
BITMAP
0660
0FE0
0FC0
0000
0F80
0F80
0F00
1F00
1F00
1E00
3E00
3E00
3E00
3C00
7C00
7C00
7800
F800
E000
ENDCHAR
STARTCHAR 0129
ENCODING 297
SWIDTH 315 0
DWIDTH 7 0
BBX 11 19 1 0
BITMAP
0660
0FE0
0FC0
0000
0F80
0F80
0F00
1F00
1F00
1E00
3E00
3E00
3E00
3C00
7C00
7C00
7800
F800
E000
ENDCHAR
STARTCHAR 012A
ENCODING 298
SWIDTH 315 0
DWIDTH 7 0
BBX 11 18 1 0
BITMAP
0FE0
0FE0
0000
0F80
0F80
0F00
1F00
1F00
1E00
3E00
3E00
3E00
3C00
7C00
7C00
7800
F800
E000
ENDCHAR
STARTCHAR 012B
ENCODING 299
SWIDTH 315 0
DWIDTH 7 0
BBX 11 18 1 0
BITMAP
0FE0
0FE0
0000
0F80
0F80
0F00
1F00
1F00
1E00
3E00
3E00
3E00
3C00
7C00
7C00
7800
F800
E000
ENDCHAR
STARTCHAR 012C
ENCODING 300
SWIDTH 315 0
DWIDTH 7 0
BBX 11 19 1 0
BITMAP
0C60
07C0
0780
0000
0F80
0F80
0F00
1F00
1F00
1E00
3E00
3E00
3E00
3C00
7C00
7C00
7800
F800
E000
ENDCHAR
STARTCHAR 012D
ENCODING 301
SWIDTH 315 0
DWIDTH 7 0
BBX 11 19 1 0
BITMAP
0C60
07C0
0780
0000
0F80
0F80
0F00
1F00
1F00
1E00
3E00
3E00
3E00
3C00
7C00
7C00
7800
F800
E000
ENDCHAR
STARTCHAR 012E
ENCODING 302
SWIDTH 315 0
DWIDTH 7 0
BBX 9 19 1 -4
BITMAP
0F80
0F80
0F00
1F00
1F00
1E00
3E00
3E00
3E00
3C00
7C00
7C00
7800
F800
E000
6000
C000
FC00
7800
ENDCHAR
STARTCHAR 012F
ENCODING 303
SWIDTH 315 0
DWIDTH 7 0
BBX 9 19 1 -4
BITMAP
0F80
0F80
0F00
1F00
1F00
1E00
3E00
3E00
3E00
3C00
7C00
7C00
7800
F800
E000
6000
C000
FC00
7800
ENDCHAR
STARTCHAR 0130
ENCODING 304
SWIDTH 315 0
DWIDTH 7 0
BBX 9 18 1 0
BITMAP
0380
0300
0000
0F80
0F80
0F00
1F00
1F00
1E00
3E00
3E00
3E00
3C00
7C00
7C00
7800
F800
E000
ENDCHAR
STARTCHAR 0131
ENCODING 305
SWIDTH 315 0
DWIDTH 7 0
BBX 9 18 1 0
BITMAP
0380
0300
0000
0F80
0F80
0F00
1F00
1F00
1E00
3E00
3E00
3E00
3C00
7C00
7C00
7800
F800
E000
ENDCHAR
STARTCHAR 0132
ENCODING 306
SWIDTH 585 0
DWIDTH 13 0
BBX 15 15 1 0
BITMAP
0F1E
0E1E
1E3E
1E3C
1C3C
3C3C
3C7C
3C7C
3878
7878
7B78
7FF0
77F0
F3E0
C1C0
ENDCHAR
STARTCHAR 0133
ENCODING 307
SWIDTH 585 0
DWIDTH 13 0
BBX 15 15 1 0
BITMAP
0F1E
0E1E
1E3E
1E3C
1C3C
3C3C
3C7C
3C7C
3878
7878
7B78
7FF0
77F0
F3E0
C1C0
ENDCHAR
STARTCHAR 0134
ENCODING 308
SWIDTH 450 0
DWIDTH 10 0
BBX 13 19 1 0
BITMAP
00E0
01F8
03B0
0000
01E0
03E0
03E0
03E0
07E0
07E0
07E0
07C0
07C0
07C0
F7C0
F780
FF00
7E00
3C00
ENDCHAR
STARTCHAR 0135
ENCODING 309
SWIDTH 450 0
DWIDTH 10 0
BBX 13 19 1 0
BITMAP
00E0
01F8
03B0
0000
01E0
03E0
03E0
03E0
07E0
07E0
07E0
07C0
07C0
07C0
F7C0
F780
FF00
7E00
3C00
ENDCHAR
STARTCHAR 0136
ENCODING 310
SWIDTH 540 0
DWIDTH 12 0
BBX 14 19 1 -4
BITMAP
3F90
1F3C
3F78
3FF0
3FE0
3FC0
7F80
7F00
7F80
7F80
FFC0
FDE0
F9E0
FCE0
F880
0E00
0E00
1C00
0800
ENDCHAR
STARTCHAR 0137
ENCODING 311
SWIDTH 540 0
DWIDTH 12 0
BBX 14 19 1 -4
BITMAP
3F90
1F3C
3F78
3FF0
3FE0
3FC0
7F80
7F00
7F80
7F80
FFC0
FDE0
F9E0
FCE0
F880
0E00
0E00
1C00
0800
ENDCHAR
STARTCHAR 0138
ENCODING 312
SWIDTH 495 0
DWIDTH 11 0
BBX 13 12 1 0
BITMAP
3F20
3E78
3EF0
7FC0
7F80
7F80
7F00
FF80
FF80
FBC0
F9C0
F9A0
ENDCHAR
STARTCHAR 0139
ENCODING 313
SWIDTH 495 0
DWIDTH 11 0
BBX 12 19 1 0
BITMAP
0070
00E0
01C0
0000
07C0
0FC0
0F80
1F80
1F80
1F00
1F00
3F00
3E00
7E00
7FE0
7FC0
FFC0
FFC0
FF00
ENDCHAR
STARTCHAR 013A
ENCODING 314
SWIDTH 495 0
DWIDTH 11 0
BBX 12 19 1 0
BITMAP
0070
00E0
01C0
0000
07C0
0FC0
0F80
1F80
1F80
1F00
1F00
3F00
3E00
7E00
7FE0
7FC0
FFC0
FFC0
FF00
ENDCHAR
STARTCHAR 013B
ENCODING 315
SWIDTH 495 0
DWIDTH 11 0
BBX 11 19 1 -4
BITMAP
07C0
0FC0
0F80
1F80
1F80
1F00
1F00
3F00
3E00
7E00
7FE0
7FC0
FFC0
FFC0
FF00
1C00
1C00
3800
3000
ENDCHAR
STARTCHAR 013C
ENCODING 316
SWIDTH 495 0
DWIDTH 11 0
BBX 11 19 1 -4
BITMAP
07C0
0FC0
0F80
1F80
1F80
1F00
1F00
3F00
3E00
7E00
7FE0
7FC0
FFC0
FFC0
FF00
1C00
1C00
3800
3000
ENDCHAR
STARTCHAR 013D
ENCODING 317
SWIDTH 495 0
DWIDTH 11 0
BBX 13 16 1 0
BITMAP
0018
07D8
0FD8
0FB0
1FB0
1F80
1F00
1F00
3F00
3E00
7E00
7FE0
7FC0
FFC0
FFC0
FF00
ENDCHAR
STARTCHAR 013E
ENCODING 318
SWIDTH 495 0
DWIDTH 11 0
BBX 13 16 1 0
BITMAP
0018
07D8
0FD8
0FB0
1FB0
1F80
1F00
1F00
3F00
3E00
7E00
7FE0
7FC0
FFC0
FFC0
FF00
ENDCHAR
STARTCHAR 013F
ENCODING 319
SWIDTH 495 0
DWIDTH 11 0
BBX 11 15 1 0
BITMAP
07C0
0FC0
0F80
1F80
1F80
1F00
1F40
3FE0
3E00
7E00
7FE0
7FC0
FFC0
FFC0
FF00
ENDCHAR
STARTCHAR 0140
ENCODING 320
SWIDTH 495 0
DWIDTH 11 0
BBX 11 15 1 0
BITMAP
07C0
0FC0
0F80
1F80
1F80
1F00
1F40
3FE0
3E00
7E00
7FE0
7FC0
FFC0
FFC0
FF00
ENDCHAR
STARTCHAR 0141
ENCODING 321
SWIDTH 540 0
DWIDTH 12 0
BBX 13 15 1 0
BITMAP
03E0
07E0
0FD0
0FF8
0FF8
0FE0
1FC0
1F00
3F00
FE00
FFE0
FFE0
7FE0
7FE0
7F80
ENDCHAR
STARTCHAR 0142
ENCODING 322
SWIDTH 540 0
DWIDTH 12 0
BBX 13 15 1 0
BITMAP
03E0
07E0
0FD0
0FF8
0FF8
0FE0
1FC0
1F00
3F00
FE00
FFE0
FFE0
7FE0
7FE0
7F80
ENDCHAR
STARTCHAR 0143
ENCODING 323
SWIDTH 540 0
DWIDTH 12 0
BBX 15 19 0 0
BITMAP
000E
001C
0030
0000
078E
079E
0F9E
0FBC
1FBC
1FBC
1FB8
3FF8
3FF8
3DF8
3DF0
7DF0
79F0
79F0
F1C0
ENDCHAR
STARTCHAR 0144
ENCODING 324
SWIDTH 540 0
DWIDTH 12 0
BBX 15 19 0 0
BITMAP
000E
001C
0030
0000
078E
079E
0F9E
0FBC
1FBC
1FBC
1FB8
3FF8
3FF8
3DF8
3DF0
7DF0
79F0
79F0
F1C0
ENDCHAR
STARTCHAR 0145
ENCODING 325
SWIDTH 540 0
DWIDTH 12 0
BBX 15 19 0 -4
BITMAP
078E
079E
0F9E
0FBC
1FBC
1FBC
1FB8
3FF8
3FF8
3DF8
3DF0
7DF0
79F0
79F0
F1C0
0E00
0E00
1C00
1800
ENDCHAR
STARTCHAR 0146
ENCODING 326
SWIDTH 540 0
DWIDTH 12 0
BBX 15 19 0 -4
BITMAP
078E
079E
0F9E
0FBC
1FBC
1FBC
1FB8
3FF8
3FF8
3DF8
3DF0
7DF0
79F0
79F0
F1C0
0E00
0E00
1C00
1800
ENDCHAR
STARTCHAR 0147
ENCODING 327
SWIDTH 540 0
DWIDTH 12 0
BBX 15 19 0 0
BITMAP
00CC
00FC
0078
0000
078E
079E
0F9E
0FBC
1FBC
1FBC
1FB8
3FF8
3FF8
3DF8
3DF0
7DF0
79F0
79F0
F1C0
ENDCHAR
STARTCHAR 0148
ENCODING 328
SWIDTH 540 0
DWIDTH 12 0
BBX 15 19 0 0
BITMAP
00CC
00FC
0078
0000
078E
079E
0F9E
0FBC
1FBC
1FBC
1FB8
3FF8
3FF8
3DF8
3DF0
7DF0
79F0
79F0
F1C0
ENDCHAR
STARTCHAR 0149
ENCODING 329
SWIDTH 630 0
DWIDTH 14 0
BBX 14 16 3 0
BITMAP
7000
7718
7F3C
EF38
FF78
DF78
DF70
BF70
3FF0
3FE0
3FE0
7BE0
7BE0
7BC0
7BC0
E380
ENDCHAR
STARTCHAR 014A
ENCODING 330
SWIDTH 540 0
DWIDTH 12 0
BBX 13 19 1 -3
BITMAP
0800
3FE0
3FF0
3FF0
3FF8
3FF8
78F8
7878
7870
7070
70F0
70F0
70E0
F0E0
E1E0
E3C0
0FC0
0F80
0C00
ENDCHAR
STARTCHAR 014B
ENCODING 331
SWIDTH 540 0
DWIDTH 12 0
BBX 13 19 1 -3
BITMAP
0800
3FE0
3FF0
3FF0
3FF8
3FF8
78F8
7878
7870
7070
70F0
70F0
70E0
F0E0
E1E0
E3C0
0FC0
0F80
0C00
ENDCHAR
STARTCHAR 014C
ENCODING 332
SWIDTH 495 0
DWIDTH 11 0
BBX 11 18 2 0
BITMAP
1F80
1F80
0400
0F00
1F80
1FC0
3FE0
7FE0
79E0
F1E0
F1E0
F3E0
FFE0
FFC0
FFC0
FF80
7F80
3E00
ENDCHAR
STARTCHAR 014D
ENCODING 333
SWIDTH 495 0
DWIDTH 11 0
BBX 11 18 2 0
BITMAP
1F80
1F80
0400
0F00
1F80
1FC0
3FE0
7FE0
79E0
F1E0
F1E0
F3E0
FFE0
FFC0
FFC0
FF80
7F80
3E00
ENDCHAR
STARTCHAR 014E
ENCODING 334
SWIDTH 495 0
DWIDTH 11 0
BBX 11 19 2 0
BITMAP
19C0
1F80
0F00
0400
0F00
1F80
1FC0
3FE0
7FE0
79E0
F1E0
F1E0
F3E0
FFE0
FFC0
FFC0
FF80
7F80
3E00
ENDCHAR
STARTCHAR 014F
ENCODING 335
SWIDTH 495 0
DWIDTH 11 0
BBX 11 19 2 0
BITMAP
19C0
1F80
0F00
0400
0F00
1F80
1FC0
3FE0
7FE0
79E0
F1E0
F1E0
F3E0
FFE0
FFC0
FFC0
FF80
7F80
3E00
ENDCHAR
STARTCHAR 0150
ENCODING 336
SWIDTH 495 0
DWIDTH 11 0
BBX 12 19 2 0
BITMAP
07F0
0EC0
1980
0400
0F00
1F80
1FC0
3FE0
7FE0
79E0
F1E0
F1E0
F3E0
FFE0
FFC0
FFC0
FF80
7F80
3E00
ENDCHAR
STARTCHAR 0151
ENCODING 337
SWIDTH 495 0
DWIDTH 11 0
BBX 12 19 2 0
BITMAP
07F0
0EC0
1980
0400
0F00
1F80
1FC0
3FE0
7FE0
79E0
F1E0
F1E0
F3E0
FFE0
FFC0
FFC0
FF80
7F80
3E00
ENDCHAR
STARTCHAR 0152
ENCODING 338
SWIDTH 720 0
DWIDTH 16 0
BBX 15 15 2 0
BITMAP
01FE
07FC
1FFC
3FFC
3FE0
7FE0
F9F8
F1F8
F1C0
FFFC
FFFC
FFFC
FFFC
FFFC
7FC0
ENDCHAR
STARTCHAR 0153
ENCODING 339
SWIDTH 720 0
DWIDTH 16 0
BBX 15 15 2 0
BITMAP
01FE
07FC
1FFC
3FFC
3FE0
7FE0
F9F8
F1F8
F1C0
FFFC
FFFC
FFFC
FFFC
FFFC
7FC0
ENDCHAR
STARTCHAR 0154
ENCODING 340
SWIDTH 585 0
DWIDTH 13 0
BBX 11 19 2 0
BITMAP
0380
0700
0E00
0000
3F80
7FE0
7CE0
7C60
7C60
7CE0
7FC0
FF80
FF80
FF80
FB80
FBC0
F9C0
F9E0
F9C0
ENDCHAR
STARTCHAR 0155
ENCODING 341
SWIDTH 585 0
DWIDTH 13 0
BBX 11 19 2 0
BITMAP
0380
0700
0E00
0000
3F80
7FE0
7CE0
7C60
7C60
7CE0
7FC0
FF80
FF80
FF80
FB80
FBC0
F9C0
F9E0
F9C0
ENDCHAR
STARTCHAR 0156
ENCODING 342
SWIDTH 585 0
DWIDTH 13 0
BBX 11 19 2 -4
BITMAP
3F80
7FE0
7CE0
7C60
7C60
7CE0
7FC0
FF80
FF80
FF80
FB80
FBC0
F9C0
F9E0
F9C0
0E00
0E00
1C00
1800
ENDCHAR
STARTCHAR 0157
ENCODING 343
SWIDTH 585 0
DWIDTH 13 0
BBX 11 19 2 -4
BITMAP
3F80
7FE0
7CE0
7C60
7C60
7CE0
7FC0
FF80
FF80
FF80
FB80
FBC0
F9C0
F9E0
F9C0
0E00
0E00
1C00
1800
ENDCHAR
STARTCHAR 0158
ENCODING 344
SWIDTH 585 0
DWIDTH 13 0
BBX 11 19 2 0
BITMAP
3B80
3F00
0E00
0000
3F80
7FE0
7CE0
7C60
7C60
7CE0
7FC0
FF80
FF80
FF80
FB80
FBC0
F9C0
F9E0
F9C0
ENDCHAR
STARTCHAR 0159
ENCODING 345
SWIDTH 585 0
DWIDTH 13 0
BBX 11 19 2 0
BITMAP
3B80
3F00
0E00
0000
3F80
7FE0
7CE0
7C60
7C60
7CE0
7FC0
FF80
FF80
FF80
FB80
FBC0
F9C0
F9E0
F9C0
ENDCHAR
STARTCHAR 015A
ENCODING 346
SWIDTH 495 0
DWIDTH 11 0
BBX 13 19 1 0
BITMAP
0070
0060
00C0
0000
07F8
0FF0
1FF0
1FE0
3FC0
3CC0
3E00
1F80
0FC0
03C0
43C0
FFC0
FFC0
FF80
7E00
ENDCHAR
STARTCHAR 015B
ENCODING 347
SWIDTH 495 0
DWIDTH 11 0
BBX 13 19 1 0
BITMAP
0070
0060
00C0
0000
07F8
0FF0
1FF0
1FE0
3FC0
3CC0
3E00
1F80
0FC0
03C0
43C0
FFC0
FFC0
FF80
7E00
ENDCHAR
STARTCHAR 015C
ENCODING 348
SWIDTH 495 0
DWIDTH 11 0
BBX 13 19 1 0
BITMAP
00E0
03F0
0730
0000
07F8
0FF0
1FF0
1FE0
3FC0
3CC0
3E00
1F80
0FC0
03C0
43C0
FFC0
FFC0
FF80
7E00
ENDCHAR
STARTCHAR 015D
ENCODING 349
SWIDTH 495 0
DWIDTH 11 0
BBX 13 19 1 0
BITMAP
00E0
03F0
0730
0000
07F8
0FF0
1FF0
1FE0
3FC0
3CC0
3E00
1F80
0FC0
03C0
43C0
FFC0
FFC0
FF80
7E00
ENDCHAR
STARTCHAR 015E
ENCODING 350
SWIDTH 495 0
DWIDTH 11 0
BBX 13 19 1 -4
BITMAP
07F8
0FF0
1FF0
1FE0
3FC0
3CC0
3E00
1F80
0FC0
03C0
43C0
FFC0
FFC0
FF80
7E00
1C00
0E00
7E00
3800
ENDCHAR
STARTCHAR 015F
ENCODING 351
SWIDTH 495 0
DWIDTH 11 0
BBX 13 19 1 -4
BITMAP
07F8
0FF0
1FF0
1FE0
3FC0
3CC0
3E00
1F80
0FC0
03C0
43C0
FFC0
FFC0
FF80
7E00
1C00
0E00
7E00
3800
ENDCHAR
STARTCHAR 0160
ENCODING 352
SWIDTH 495 0
DWIDTH 11 0
BBX 13 19 1 0
BITMAP
0338
03F0
01C0
0000
07F8
0FF0
1FF0
1FE0
3FC0
3CC0
3E00
1F80
0FC0
03C0
43C0
FFC0
FFC0
FF80
7E00
ENDCHAR
STARTCHAR 0161
ENCODING 353
SWIDTH 495 0
DWIDTH 11 0
BBX 13 19 1 0
BITMAP
0338
03F0
01C0
0000
07F8
0FF0
1FF0
1FE0
3FC0
3CC0
3E00
1F80
0FC0
03C0
43C0
FFC0
FFC0
FF80
7E00
ENDCHAR
STARTCHAR 0162
ENCODING 354
SWIDTH 540 0
DWIDTH 12 0
BBX 12 19 3 -4
BITMAP
7FF0
FFF0
FFF0
FFF0
FF80
0E00
0E00
1E00
1E00
1C00
1C00
1C00
3C00
3800
3800
1800
0C00
FC00
7800
ENDCHAR
STARTCHAR 0163
ENCODING 355
SWIDTH 540 0
DWIDTH 12 0
BBX 12 19 3 -4
BITMAP
7FF0
FFF0
FFF0
FFF0
FF80
0E00
0E00
1E00
1E00
1C00
1C00
1C00
3C00
3800
3800
1800
0C00
FC00
7800
ENDCHAR
STARTCHAR 0164
ENCODING 356
SWIDTH 540 0
DWIDTH 12 0
BBX 12 19 3 0
BITMAP
0EE0
07C0
0780
0000
7FF0
FFF0
FFF0
FFF0
FF80
0E00
0E00
1E00
1E00
1C00
1C00
1C00
3C00
3800
3800
ENDCHAR
STARTCHAR 0165
ENCODING 357
SWIDTH 540 0
DWIDTH 12 0
BBX 12 19 3 0
BITMAP
0EE0
07C0
0780
0000
7FF0
FFF0
FFF0
FFF0
FF80
0E00
0E00
1E00
1E00
1C00
1C00
1C00
3C00
3800
3800
ENDCHAR
STARTCHAR 0166
ENCODING 358
SWIDTH 540 0
DWIDTH 12 0
BBX 12 15 3 0
BITMAP
7FF0
FFF0
FFF0
FFF0
FF80
0E00
0E00
7FC0
FFC0
FF80
1C00
1C00
3C00
3800
3800
ENDCHAR
STARTCHAR 0167
ENCODING 359
SWIDTH 540 0
DWIDTH 12 0
BBX 12 15 3 0
BITMAP
7FF0
FFF0
FFF0
FFF0
FF80
0E00
0E00
7FC0
FFC0
FF80
1C00
1C00
3C00
3800
3800
ENDCHAR
STARTCHAR 0168
ENCODING 360
SWIDTH 540 0
DWIDTH 12 0
BBX 13 19 2 0
BITMAP
01B0
03F0
06E0
0000
1C78
3C78
3870
7870
78F0
70F0
F0F0
F9E0
FDE0
FFC0
FFC0
FF80
FF00
7E00
1800
ENDCHAR
STARTCHAR 0169
ENCODING 361
SWIDTH 540 0
DWIDTH 12 0
BBX 13 19 2 0
BITMAP
01B0
03F0
06E0
0000
1C78
3C78
3870
7870
78F0
70F0
F0F0
F9E0
FDE0
FFC0
FFC0
FF80
FF00
7E00
1800
ENDCHAR
STARTCHAR 016A
ENCODING 362
SWIDTH 540 0
DWIDTH 12 0
BBX 13 18 2 0
BITMAP
07F0
07F0
0000
1C78
3C78
3870
7870
78F0
70F0
F0F0
F9E0
FDE0
FFC0
FFC0
FF80
FF00
7E00
1800
ENDCHAR
STARTCHAR 016B
ENCODING 363
SWIDTH 540 0
DWIDTH 12 0
BBX 13 18 2 0
BITMAP
07F0
07F0
0000
1C78
3C78
3870
7870
78F0
70F0
F0F0
F9E0
FDE0
FFC0
FFC0
FF80
FF00
7E00
1800
ENDCHAR
STARTCHAR 016C
ENCODING 364
SWIDTH 540 0
DWIDTH 12 0
BBX 13 19 2 0
BITMAP
0310
03F0
01E0
0000
1C78
3C78
3870
7870
78F0
70F0
F0F0
F9E0
FDE0
FFC0
FFC0
FF80
FF00
7E00
1800
ENDCHAR
STARTCHAR 016D
ENCODING 365
SWIDTH 540 0
DWIDTH 12 0
BBX 13 19 2 0
BITMAP
0310
03F0
01E0
0000
1C78
3C78
3870
7870
78F0
70F0
F0F0
F9E0
FDE0
FFC0
FFC0
FF80
FF00
7E00
1800
ENDCHAR
STARTCHAR 016E
ENCODING 366
SWIDTH 540 0
DWIDTH 12 0
BBX 13 20 2 0
BITMAP
01E0
0370
0630
0760
03C0
1C78
3C78
3870
7870
78F0
70F0
F0F0
F9E0
FDE0
FFC0
FFC0
FF80
FF00
7E00
1800
ENDCHAR
STARTCHAR 016F
ENCODING 367
SWIDTH 540 0
DWIDTH 12 0
BBX 13 20 2 0
BITMAP
01E0
0370
0630
0760
03C0
1C78
3C78
3870
7870
78F0
70F0
F0F0
F9E0
FDE0
FFC0
FFC0
FF80
FF00
7E00
1800
ENDCHAR
STARTCHAR 0170
ENCODING 368
SWIDTH 540 0
DWIDTH 12 0
BBX 14 19 2 0
BITMAP
01DC
03B8
0370
0000
1C78
3C78
3870
7870
78F0
70F0
F0F0
F9E0
FDE0
FFC0
FFC0
FF80
FF00
7E00
1800
ENDCHAR
STARTCHAR 0171
ENCODING 369
SWIDTH 540 0
DWIDTH 12 0
BBX 14 19 2 0
BITMAP
01DC
03B8
0370
0000
1C78
3C78
3870
7870
78F0
70F0
F0F0
F9E0
FDE0
FFC0
FFC0
FF80
FF00
7E00
1800
ENDCHAR
STARTCHAR 0172
ENCODING 370
SWIDTH 540 0
DWIDTH 12 0
BBX 13 19 2 -4
BITMAP
1C78
3C78
3870
7870
78F0
70F0
F0F0
F9E0
FDE0
FFC0
FFC0
FF80
FF00
7E00
1800
3000
6000
7E00
3C00
ENDCHAR
STARTCHAR 0173
ENCODING 371
SWIDTH 540 0
DWIDTH 12 0
BBX 13 19 2 -4
BITMAP
1C78
3C78
3870
7870
78F0
70F0
F0F0
F9E0
FDE0
FFC0
FFC0
FF80
FF00
7E00
1800
3000
6000
7E00
3C00
ENDCHAR
STARTCHAR 0174
ENCODING 372
SWIDTH 720 0
DWIDTH 16 0
BBX 16 19 3 0
BITMAP
01E0
03F0
0770
0000
700F
F98E
F99E
F9BC
FBBC
FBFC
7FF8
7FF8
7FF0
7FF0
3DF0
39E0
38E0
18C0
1000
ENDCHAR
STARTCHAR 0175
ENCODING 373
SWIDTH 720 0
DWIDTH 16 0
BBX 16 19 3 0
BITMAP
01E0
03F0
0770
0000
700F
F98E
F99E
F9BC
FBBC
FBFC
7FF8
7FF8
7FF0
7FF0
3DF0
39E0
38E0
18C0
1000
ENDCHAR
STARTCHAR 0176
ENCODING 374
SWIDTH 585 0
DWIDTH 13 0
BBX 13 19 3 0
BITMAP
0380
07C0
0CC0
0000
1078
F078
F8F0
78E0
79C0
7BC0
3F80
3F00
3F00
3E00
1C00
1C00
1C00
3C00
3C00
ENDCHAR
STARTCHAR 0177
ENCODING 375
SWIDTH 585 0
DWIDTH 13 0
BBX 13 19 3 0
BITMAP
0380
07C0
0CC0
0000
1078
F078
F8F0
78E0
79C0
7BC0
3F80
3F00
3F00
3E00
1C00
1C00
1C00
3C00
3C00
ENDCHAR
STARTCHAR 0178
ENCODING 376
SWIDTH 585 0
DWIDTH 13 0
BBX 13 18 3 0
BITMAP
06E0
0EC0
0000
1078
F078
F8F0
78E0
79C0
7BC0
3F80
3F00
3F00
3E00
1C00
1C00
1C00
3C00
3C00
ENDCHAR
STARTCHAR 0179
ENCODING 377
SWIDTH 585 0
DWIDTH 13 0
BBX 11 19 3 0
BITMAP
01C0
0380
0300
0000
3FE0
7FC0
FF80
FF80
0700
0E00
1E00
1C00
3C00
3800
7800
7FE0
FFC0
FF80
0F00
ENDCHAR
STARTCHAR 017A
ENCODING 378
SWIDTH 585 0
DWIDTH 13 0
BBX 11 19 3 0
BITMAP
01C0
0380
0300
0000
3FE0
7FC0
FF80
FF80
0700
0E00
1E00
1C00
3C00
3800
7800
7FE0
FFC0
FF80
0F00
ENDCHAR
STARTCHAR 017B
ENCODING 379
SWIDTH 585 0
DWIDTH 13 0
BBX 11 18 3 0
BITMAP
0700
0600
0000
3FE0
7FC0
FF80
FF80
0700
0E00
1E00
1C00
3C00
3800
7800
7FE0
FFC0
FF80
0F00
ENDCHAR
STARTCHAR 017C
ENCODING 380
SWIDTH 585 0
DWIDTH 13 0
BBX 11 18 3 0
BITMAP
0700
0600
0000
3FE0
7FC0
FF80
FF80
0700
0E00
1E00
1C00
3C00
3800
7800
7FE0
FFC0
FF80
0F00
ENDCHAR
STARTCHAR 017D
ENCODING 381
SWIDTH 585 0
DWIDTH 13 0
BBX 11 19 3 0
BITMAP
0CC0
0F80
0700
0000
3FE0
7FC0
FF80
FF80
0700
0E00
1E00
1C00
3C00
3800
7800
7FE0
FFC0
FF80
0F00
ENDCHAR
STARTCHAR 017E
ENCODING 382
SWIDTH 585 0
DWIDTH 13 0
BBX 11 19 3 0
BITMAP
0CC0
0F80
0700
0000
3FE0
7FC0
FF80
FF80
0700
0E00
1E00
1C00
3C00
3800
7800
7FE0
FFC0
FF80
0F00
ENDCHAR
STARTCHAR 017F
ENCODING 383
SWIDTH 405 0
DWIDTH 9 0
BBX 11 18 1 -3
BITMAP
0FE0
1FE0
3FE0
3C00
3800
3800
7800
7800
7800
7800
7000
7000
7000
F000
F000
E000
E000
E000
ENDCHAR
STARTCHAR 0180
ENCODING 384
SWIDTH 495 0
DWIDTH 11 0
BBX 11 15 1 0
BITMAP
1FC0
3FC0
3FE0
3DE0
3CC0
3DC0
3F80
3FC0
3FE0
3EE0
FEE0
FDE0
7FC0
7F80
7C00
ENDCHAR
STARTCHAR 0181
ENCODING 385
SWIDTH 675 0
DWIDTH 15 0
BBX 14 15 2 0
BITMAP
1FF0
3FF8
3FF8
7F38
6738
E730
6FF0
7FF8
7FF8
0F3C
0F3C
0F78
0FF8
0FE0
0F00
ENDCHAR
STARTCHAR 0186
ENCODING 390
SWIDTH 450 0
DWIDTH 10 0
BBX 12 15 1 0
BITMAP
0F80
3FE0
3FE0
3FF0
03F0
01F0
01E0
01E0
77E0
7FE0
7FC0
FFC0
FF80
7F00
3800
ENDCHAR
STARTCHAR 0187
ENCODING 391
SWIDTH 450 0
DWIDTH 10 0
BBX 12 19 2 0
BITMAP
0070
01F0
01F0
03C0
07C0
1FE0
3FE0
7FE0
7E00
F800
F800
F000
F9C0
FFC0
FF80
FF80
FF80
7F00
1C00
ENDCHAR
STARTCHAR 0188
ENCODING 392
SWIDTH 450 0
DWIDTH 10 0
BBX 12 19 2 0
BITMAP
0070
01F0
01F0
03C0
07C0
1FE0
3FE0
7FE0
7E00
F800
F800
F000
F9C0
FFC0
FF80
FF80
FF80
7F00
1C00
ENDCHAR
STARTCHAR 0189
ENCODING 393
SWIDTH 450 0
DWIDTH 10 0
BBX 11 15 2 0
BITMAP
3F00
3F80
3FC0
3FC0
79C0
7EE0
FFC0
FDC0
FB80
7F80
7F00
7E00
7C00
7800
4000
ENDCHAR
STARTCHAR 018A
ENCODING 394
SWIDTH 630 0
DWIDTH 14 0
BBX 14 15 2 0
BITMAP
1FE0
3FF0
3FF8
7FF8
679C
EF1C
6F1C
7F38
7F78
0FF0
0FE0
0FC0
0F80
0F00
0C00
ENDCHAR
STARTCHAR 018F
ENCODING 399
SWIDTH 450 0
DWIDTH 10 0
BBX 10 15 2 0
BITMAP
1F80
3F80
7FC0
23C0
01C0
01C0
FFC0
FFC0
F3C0
F3C0
FF80
FF80
FF80
7F00
3C00
ENDCHAR
STARTCHAR 0190
ENCODING 400
SWIDTH 450 0
DWIDTH 10 0
BBX 10 16 2 0
BITMAP
0200
1FC0
3FC0
7EC0
7800
7800
7800
7F00
3F00
7C00
7000
F000
F980
FF80
7F00
7E00
ENDCHAR
STARTCHAR 0191
ENCODING 401
SWIDTH 495 0
DWIDTH 11 0
BBX 16 19 -2 -3
BITMAP
000E
03FF
07FF
07FF
0780
0780
0FE0
0FE0
0FC0
0F00
0F00
1E00
1E00
1E00
1E00
3C00
7C00
F800
F000
ENDCHAR
STARTCHAR 0192
ENCODING 402
SWIDTH 495 0
DWIDTH 11 0
BBX 16 19 -2 -3
BITMAP
000E
03FF
07FF
07FF
0780
0780
0FE0
0FE0
0FC0
0F00
0F00
1E00
1E00
1E00
1E00
3C00
7C00
F800
F000
ENDCHAR
STARTCHAR 0193
ENCODING 403
SWIDTH 495 0
DWIDTH 11 0
BBX 14 19 1 0
BITMAP
003C
007C
00F8
00F0
03E0
07F0
0FF0
1E60
1C00
3800
38F0
71E0
71E0
73E0
FFE0
FFC0
FF80
7E00
3800
ENDCHAR
STARTCHAR 0194
ENCODING 404
SWIDTH 585 0
DWIDTH 13 0
BBX 13 18 3 -3
BITMAP
F020
7078
70F8
70F0
71E0
79E0
7BC0
3B80
3F80
3F00
1E00
3E00
7E00
E600
E600
FC00
7800
3000
ENDCHAR
STARTCHAR 0197
ENCODING 407
SWIDTH 360 0
DWIDTH 8 0
BBX 10 15 1 0
BITMAP
07C0
0F80
0F80
0F00
1F00
1F00
7F80
7F00
7F00
3E00
3E00
7C00
7C00
7C00
E000
ENDCHAR
STARTCHAR 0198
ENCODING 408
SWIDTH 585 0
DWIDTH 13 0
BBX 15 15 1 0
BITMAP
3F9C
1F3C
3F7E
3FEE
3FCC
3FDC
7FB8
7F30
7F80
7F80
FFC0
FDE0
F9E0
FCE0
F880
ENDCHAR
STARTCHAR 0199
ENCODING 409
SWIDTH 585 0
DWIDTH 13 0
BBX 15 15 1 0
BITMAP
3F9C
1F3C
3F7E
3FEE
3FCC
3FDC
7FB8
7F30
7F80
7F80
FFC0
FDE0
F9E0
FCE0
F880
ENDCHAR
STARTCHAR 019D
ENCODING 413
SWIDTH 540 0
DWIDTH 12 0
BBX 17 18 -2 -3
BITMAP
01E380
01E780
03E780
03EF00
07EF00
07EF00
07EE00
0FFE00
0FFE00
0F7E00
0F7C00
1F7C00
1E7C00
1E7C00
3C7000
7C0000
F80000
F00000
ENDCHAR
STARTCHAR 01A0
ENCODING 416
SWIDTH 540 0
DWIDTH 12 0
BBX 13 16 2 0
BITMAP
0418
0F18
1F98
1FD8
3FF0
7FF0
79E0
F1E0
F1E0
F3E0
FFE0
FFC0
FFC0
FF80
7F80
3E00
ENDCHAR
STARTCHAR 01A1
ENCODING 417
SWIDTH 540 0
DWIDTH 12 0
BBX 13 16 2 0
BITMAP
0418
0F18
1F98
1FD8
3FF0
7FF0
79E0
F1E0
F1E0
F3E0
FFE0
FFC0
FFC0
FF80
7F80
3E00
ENDCHAR
STARTCHAR 01AF
ENCODING 431
SWIDTH 585 0
DWIDTH 13 0
BBX 14 16 2 0
BITMAP
000C
38EC
78EC
70EC
71FC
71F8
71F0
F1E0
F3E0
F7C0
FFC0
FFC0
FF80
7F00
7F00
3C00
ENDCHAR
STARTCHAR 01B0
ENCODING 432
SWIDTH 585 0
DWIDTH 13 0
BBX 14 16 2 0
BITMAP
000C
38EC
78EC
70EC
71FC
71F8
71F0
F1E0
F3E0
F7C0
FFC0
FFC0
FF80
7F00
7F00
3C00
ENDCHAR
STARTCHAR 01B1
ENCODING 433
SWIDTH 585 0
DWIDTH 13 0
BBX 14 15 2 1
BITMAP
7E7C
7E7C
7E7C
3C70
3878
7038
7038
F078
F070
F0F0
F9F0
FFE0
FFC0
FF80
7E00
ENDCHAR
STARTCHAR 01B2
ENCODING 434
SWIDTH 540 0
DWIDTH 12 0
BBX 12 15 2 1
BITMAP
73C0
71E0
71E0
70F0
70F0
F0F0
F0F0
F9F0
F9E0
FFE0
7FE0
7FC0
7F80
3F00
0C00
ENDCHAR
STARTCHAR 01B3
ENCODING 435
SWIDTH 675 0
DWIDTH 15 0
BBX 14 15 3 0
BITMAP
1078
F07C
F8FC
79FC
79DC
7BDC
3FB8
3F38
3F70
3E00
1C00
1C00
1C00
3C00
3C00
ENDCHAR
STARTCHAR 01B4
ENCODING 436
SWIDTH 675 0
DWIDTH 15 0
BBX 14 15 3 0
BITMAP
1078
F07C
F8FC
79FC
79DC
7BDC
3FB8
3F38
3F70
3E00
1C00
1C00
1C00
3C00
3C00
ENDCHAR
STARTCHAR 01B5
ENCODING 437
SWIDTH 585 0
DWIDTH 13 0
BBX 11 15 3 0
BITMAP
3FE0
7FC0
FF80
FF80
0700
0E00
FFC0
FFC0
FF80
3800
7800
7FE0
FFC0
FF80
0F00
ENDCHAR
STARTCHAR 01B6
ENCODING 438
SWIDTH 585 0
DWIDTH 13 0
BBX 11 15 3 0
BITMAP
3FE0
7FC0
FF80
FF80
0700
0E00
FFC0
FFC0
FF80
3800
7800
7FE0
FFC0
FF80
0F00
ENDCHAR
STARTCHAR 01B7
ENCODING 439
SWIDTH 495 0
DWIDTH 11 0
BBX 11 15 1 0
BITMAP
1FE0
1FE0
00E0
01C0
0780
0FC0
3FC0
1FE0
00E0
00E0
80E0
FBC0
FFC0
FF80
3E00
ENDCHAR
STARTCHAR 01BB
ENCODING 443
SWIDTH 495 0
DWIDTH 11 0
BBX 12 15 1 0
BITMAP
0F80
1FC0
3FC0
3FC0
11C0
03F0
3FF0
3FE0
0600
0FE0
1FE0
3FC0
7FC0
FF80
1C00
ENDCHAR
STARTCHAR 01C0
ENCODING 448
SWIDTH 180 0
DWIDTH 4 0
BBX 6 15 1 0
BITMAP
1C
3C
38
38
38
78
78
70
70
70
F0
F0
E0
E0
E0
ENDCHAR
STARTCHAR 01C1
ENCODING 449
SWIDTH 270 0
DWIDTH 6 0
BBX 9 15 1 0
BITMAP
1B80
3B00
3B00
3F00
3700
7700
7600
7E00
6E00
6E00
EC00
EC00
FC00
DC00
DC00
ENDCHAR
STARTCHAR 01C2
ENCODING 450
SWIDTH 315 0
DWIDTH 7 0
BBX 8 15 1 0
BITMAP
0E
0E
0E
1F
3F
7F
3C
1C
3C
7E
FE
FE
38
78
70
ENDCHAR
STARTCHAR 01C3
ENCODING 451
SWIDTH 180 0
DWIDTH 4 0
BBX 6 16 1 0
BITMAP
0C
1C
3C
3C
3C
3C
38
78
78
70
70
00
60
F0
E0
E0
ENDCHAR
STARTCHAR 01CA
ENCODING 458
SWIDTH 720 0
DWIDTH 16 0
BBX 19 15 0 0
BITMAP
0631E0
0F71E0
0EE1E0
0EE3C0
1EE3C0
1EE3C0
1EC3C0
3FC3C0
3FC380
3F8380
3FBB80
77BF00
77BF00
77BE00
E71C00
ENDCHAR
STARTCHAR 01CB
ENCODING 459
SWIDTH 720 0
DWIDTH 16 0
BBX 19 15 0 0
BITMAP
0631E0
0F71E0
0EE1E0
0EE3C0
1EE3C0
1EE3C0
1EC3C0
3FC3C0
3FC380
3F8380
3FBB80
77BF00
77BF00
77BE00
E71C00
ENDCHAR
STARTCHAR 01CC
ENCODING 460
SWIDTH 720 0
DWIDTH 16 0
BBX 19 15 0 0
BITMAP
0631E0
0F71E0
0EE1E0
0EE3C0
1EE3C0
1EE3C0
1EC3C0
3FC3C0
3FC380
3F8380
3FBB80
77BF00
77BF00
77BE00
E71C00
ENDCHAR
STARTCHAR 01CD
ENCODING 461
SWIDTH 630 0
DWIDTH 14 0
BBX 15 20 0 -1
BITMAP
00CE
00FC
0070
0000
0070
0070
00F0
00F0
01F0
01F0
03F0
07F0
06F0
0CF8
1FF8
1FF8
3CF8
78F8
78FC
8000
ENDCHAR
STARTCHAR 01CE
ENCODING 462
SWIDTH 630 0
DWIDTH 14 0
BBX 15 20 0 -1
BITMAP
00CE
00FC
0070
0000
0070
0070
00F0
00F0
01F0
01F0
03F0
07F0
06F0
0CF8
1FF8
1FF8
3CF8
78F8
78FC
8000
ENDCHAR
STARTCHAR 01CF
ENCODING 463
SWIDTH 315 0
DWIDTH 7 0
BBX 11 19 1 0
BITMAP
0EE0
07C0
0380
0000
0F80
0F80
0F00
1F00
1F00
1E00
3E00
3E00
3E00
3C00
7C00
7C00
7800
F800
E000
ENDCHAR
STARTCHAR 01D0
ENCODING 464
SWIDTH 315 0
DWIDTH 7 0
BBX 11 19 1 0
BITMAP
0EE0
07C0
0380
0000
0F80
0F80
0F00
1F00
1F00
1E00
3E00
3E00
3E00
3C00
7C00
7C00
7800
F800
E000
ENDCHAR
STARTCHAR 01D1
ENCODING 465
SWIDTH 495 0
DWIDTH 11 0
BBX 11 19 2 0
BITMAP
3980
1F00
0E00
0400
0F00
1F80
1FC0
3FE0
7FE0
79E0
F1E0
F1E0
F3E0
FFE0
FFC0
FFC0
FF80
7F80
3E00
ENDCHAR
STARTCHAR 01D2
ENCODING 466
SWIDTH 495 0
DWIDTH 11 0
BBX 11 19 2 0
BITMAP
3980
1F00
0E00
0400
0F00
1F80
1FC0
3FE0
7FE0
79E0
F1E0
F1E0
F3E0
FFE0
FFC0
FFC0
FF80
7F80
3E00
ENDCHAR
STARTCHAR 01D3
ENCODING 467
SWIDTH 540 0
DWIDTH 12 0
BBX 13 19 2 0
BITMAP
0330
03F0
01C0
0000
1C78
3C78
3870
7870
78F0
70F0
F0F0
F9E0
FDE0
FFC0
FFC0
FF80
FF00
7E00
1800
ENDCHAR
STARTCHAR 01D4
ENCODING 468
SWIDTH 540 0
DWIDTH 12 0
BBX 13 19 2 0
BITMAP
0330
03F0
01C0
0000
1C78
3C78
3870
7870
78F0
70F0
F0F0
F9E0
FDE0
FFC0
FFC0
FF80
FF00
7E00
1800
ENDCHAR
STARTCHAR 01D5
ENCODING 469
SWIDTH 540 0
DWIDTH 12 0
BBX 13 20 2 0
BITMAP
03F0
03F0
0220
0760
0000
1C78
3C78
3870
7870
78F0
70F0
F0F0
F9E0
FDE0
FFC0
FFC0
FF80
FF00
7E00
1800
ENDCHAR
STARTCHAR 01D6
ENCODING 470
SWIDTH 540 0
DWIDTH 12 0
BBX 13 20 2 0
BITMAP
03F0
03F0
0220
0760
0000
1C78
3C78
3870
7870
78F0
70F0
F0F0
F9E0
FDE0
FFC0
FFC0
FF80
FF00
7E00
1800
ENDCHAR
STARTCHAR 01D7
ENCODING 471
SWIDTH 540 0
DWIDTH 12 0
BBX 13 20 2 0
BITMAP
0070
00E0
0220
0760
0000
1C78
3C78
3870
7870
78F0
70F0
F0F0
F9E0
FDE0
FFC0
FFC0
FF80
FF00
7E00
1800
ENDCHAR
STARTCHAR 01D8
ENCODING 472
SWIDTH 540 0
DWIDTH 12 0
BBX 13 20 2 0
BITMAP
0070
00E0
0220
0760
0000
1C78
3C78
3870
7870
78F0
70F0
F0F0
F9E0
FDE0
FFC0
FFC0
FF80
FF00
7E00
1800
ENDCHAR
STARTCHAR 01D9
ENCODING 473
SWIDTH 540 0
DWIDTH 12 0
BBX 13 20 2 0
BITMAP
03B8
01E0
0220
0760
0000
1C78
3C78
3870
7870
78F0
70F0
F0F0
F9E0
FDE0
FFC0
FFC0
FF80
FF00
7E00
1800
ENDCHAR
STARTCHAR 01DA
ENCODING 474
SWIDTH 540 0
DWIDTH 12 0
BBX 13 20 2 0
BITMAP
03B8
01E0
0220
0760
0000
1C78
3C78
3870
7870
78F0
70F0
F0F0
F9E0
FDE0
FFC0
FFC0
FF80
FF00
7E00
1800
ENDCHAR
STARTCHAR 01DB
ENCODING 475
SWIDTH 540 0
DWIDTH 12 0
BBX 13 20 2 0
BITMAP
0380
01C0
0220
0760
0000
1C78
3C78
3870
7870
78F0
70F0
F0F0
F9E0
FDE0
FFC0
FFC0
FF80
FF00
7E00
1800
ENDCHAR
STARTCHAR 01DC
ENCODING 476
SWIDTH 540 0
DWIDTH 12 0
BBX 13 20 2 0
BITMAP
0380
01C0
0220
0760
0000
1C78
3C78
3870
7870
78F0
70F0
F0F0
F9E0
FDE0
FFC0
FFC0
FF80
FF00
7E00
1800
ENDCHAR
STARTCHAR 01DE
ENCODING 478
SWIDTH 630 0
DWIDTH 14 0
BBX 15 21 0 -1
BITMAP
007E
00F8
004C
00CC
0000
0070
0070
00F0
00F0
01F0
01F0
03F0
07F0
06F0
0CF8
1FF8
1FF8
3CF8
78F8
78FC
8000
ENDCHAR
STARTCHAR 01DF
ENCODING 479
SWIDTH 630 0
DWIDTH 14 0
BBX 15 21 0 -1
BITMAP
007E
00F8
004C
00CC
0000
0070
0070
00F0
00F0
01F0
01F0
03F0
07F0
06F0
0CF8
1FF8
1FF8
3CF8
78F8
78FC
8000
ENDCHAR
STARTCHAR 01E0
ENCODING 480
SWIDTH 630 0
DWIDTH 14 0
BBX 15 21 0 -1
BITMAP
007E
00F8
0010
0030
0000
0070
0070
00F0
00F0
01F0
01F0
03F0
07F0
06F0
0CF8
1FF8
1FF8
3CF8
78F8
78FC
8000
ENDCHAR
STARTCHAR 01E1
ENCODING 481
SWIDTH 630 0
DWIDTH 14 0
BBX 15 21 0 -1
BITMAP
007E
00F8
0010
0030
0000
0070
0070
00F0
00F0
01F0
01F0
03F0
07F0
06F0
0CF8
1FF8
1FF8
3CF8
78F8
78FC
8000
ENDCHAR
STARTCHAR 01E2
ENCODING 482
SWIDTH 720 0
DWIDTH 16 0
BBX 16 18 1 0
BITMAP
007F
007F
0000
00FF
00FE
01FE
01FE
03F0
07F0
07FC
0FFC
0DE0
19FE
3FFE
3FFE
79FE
F1FE
F1E0
ENDCHAR
STARTCHAR 01E3
ENCODING 483
SWIDTH 720 0
DWIDTH 16 0
BBX 16 18 1 0
BITMAP
007F
007F
0000
00FF
00FE
01FE
01FE
03F0
07F0
07FC
0FFC
0DE0
19FE
3FFE
3FFE
79FE
F1FE
F1E0
ENDCHAR
STARTCHAR 01E4
ENCODING 484
SWIDTH 540 0
DWIDTH 12 0
BBX 12 15 2 0
BITMAP
03E0
07F0
0FF0
1E60
1C00
FE00
FCF0
FDE0
71E0
73E0
FFE0
FFC0
FF80
7E00
3800
ENDCHAR
STARTCHAR 01E5
ENCODING 485
SWIDTH 540 0
DWIDTH 12 0
BBX 12 15 2 0
BITMAP
03E0
07F0
0FF0
1E60
1C00
FE00
FCF0
FDE0
71E0
73E0
FFE0
FFC0
FF80
7E00
3800
ENDCHAR
STARTCHAR 01E6
ENCODING 486
SWIDTH 495 0
DWIDTH 11 0
BBX 12 19 1 0
BITMAP
0330
03F0
01C0
0000
03E0
07F0
0FF0
1E60
1C00
3800
38F0
71E0
71E0
73E0
FFE0
FFC0
FF80
7E00
3800
ENDCHAR
STARTCHAR 01E7
ENCODING 487
SWIDTH 495 0
DWIDTH 11 0
BBX 12 19 1 0
BITMAP
0330
03F0
01C0
0000
03E0
07F0
0FF0
1E60
1C00
3800
38F0
71E0
71E0
73E0
FFE0
FFC0
FF80
7E00
3800
ENDCHAR
STARTCHAR 01E8
ENCODING 488
SWIDTH 540 0
DWIDTH 12 0
BBX 14 19 1 0
BITMAP
01DC
01F8
00F0
0000
3F90
1F3C
3F78
3FF0
3FE0
3FC0
7F80
7F00
7F80
7F80
FFC0
FDE0
F9E0
FCE0
F880
ENDCHAR
STARTCHAR 01E9
ENCODING 489
SWIDTH 540 0
DWIDTH 12 0
BBX 14 19 1 0
BITMAP
01DC
01F8
00F0
0000
3F90
1F3C
3F78
3FF0
3FE0
3FC0
7F80
7F00
7F80
7F80
FFC0
FDE0
F9E0
FCE0
F880
ENDCHAR
STARTCHAR 01EA
ENCODING 490
SWIDTH 495 0
DWIDTH 11 0
BBX 11 20 2 -4
BITMAP
0400
0F00
1F80
1FC0
3FE0
7FE0
79E0
F1E0
F1E0
F3E0
FFE0
FFC0
FFC0
FF80
7F80
3E00
1800
3800
3F00
0E00
ENDCHAR
STARTCHAR 01EB
ENCODING 491
SWIDTH 495 0
DWIDTH 11 0
BBX 11 20 2 -4
BITMAP
0400
0F00
1F80
1FC0
3FE0
7FE0
79E0
F1E0
F1E0
F3E0
FFE0
FFC0
FFC0
FF80
7F80
3E00
1800
3800
3F00
0E00
ENDCHAR
STARTCHAR 01EC
ENCODING 492
SWIDTH 495 0
DWIDTH 11 0
BBX 11 22 2 -4
BITMAP
1F80
1F80
0400
0F00
1F80
1FC0
3FE0
7FE0
79E0
F1E0
F1E0
F3E0
FFE0
FFC0
FFC0
FF80
7F80
3E00
1800
3800
3F00
0E00
ENDCHAR
STARTCHAR 01ED
ENCODING 493
SWIDTH 495 0
DWIDTH 11 0
BBX 11 22 2 -4
BITMAP
1F80
1F80
0400
0F00
1F80
1FC0
3FE0
7FE0
79E0
F1E0
F1E0
F3E0
FFE0
FFC0
FFC0
FF80
7F80
3E00
1800
3800
3F00
0E00
ENDCHAR
STARTCHAR 01EE
ENCODING 494
SWIDTH 495 0
DWIDTH 11 0
BBX 11 19 1 0
BITMAP
0660
07E0
0380
0000
1FE0
1FE0
00E0
01C0
0780
0FC0
3FC0
1FE0
00E0
00E0
80E0
FBC0
FFC0
FF80
3E00
ENDCHAR
STARTCHAR 01EF
ENCODING 495
SWIDTH 495 0
DWIDTH 11 0
BBX 11 19 1 0
BITMAP
0660
07E0
0380
0000
1FE0
1FE0
00E0
01C0
0780
0FC0
3FC0
1FE0
00E0
00E0
80E0
FBC0
FFC0
FF80
3E00
ENDCHAR
STARTCHAR 01F0
ENCODING 496
SWIDTH 450 0
DWIDTH 10 0
BBX 13 19 1 0
BITMAP
0198
01F0
00E0
0000
01E0
03E0
03E0
03E0
07E0
07E0
07E0
07C0
07C0
07C0
F7C0
F780
FF00
7E00
3C00
ENDCHAR
STARTCHAR 01F4
ENCODING 500
SWIDTH 495 0
DWIDTH 11 0
BBX 12 19 1 0
BITMAP
0070
00E0
00C0
0000
03E0
07F0
0FF0
1E60
1C00
3800
38F0
71E0
71E0
73E0
FFE0
FFC0
FF80
7E00
3800
ENDCHAR
STARTCHAR 01F5
ENCODING 501
SWIDTH 495 0
DWIDTH 11 0
BBX 12 19 1 0
BITMAP
0070
00E0
00C0
0000
03E0
07F0
0FF0
1E60
1C00
3800
38F0
71E0
71E0
73E0
FFE0
FFC0
FF80
7E00
3800
ENDCHAR
STARTCHAR 01F8
ENCODING 504
SWIDTH 540 0
DWIDTH 12 0
BBX 15 19 0 0
BITMAP
00E0
00E0
0060
0000
078E
079E
0F9E
0FBC
1FBC
1FBC
1FB8
3FF8
3FF8
3DF8
3DF0
7DF0
79F0
79F0
F1C0
ENDCHAR
STARTCHAR 01F9
ENCODING 505
SWIDTH 540 0
DWIDTH 12 0
BBX 15 19 0 0
BITMAP
00E0
00E0
0060
0000
078E
079E
0F9E
0FBC
1FBC
1FBC
1FB8
3FF8
3FF8
3DF8
3DF0
7DF0
79F0
79F0
F1C0
ENDCHAR
STARTCHAR 01FE
ENCODING 510
SWIDTH 495 0
DWIDTH 11 0
BBX 15 19 0 0
BITMAP
0070
00E0
01C0
010E
03DE
07FC
07F8
0FF8
1FF8
1FF8
3FF8
3BF8
3F78
3EF8
3FF0
3FF0
3FE0
7FE0
EF80
ENDCHAR
STARTCHAR 01FF
ENCODING 511
SWIDTH 495 0
DWIDTH 11 0
BBX 15 19 0 0
BITMAP
0070
00E0
01C0
010E
03DE
07FC
07F8
0FF8
1FF8
1FF8
3FF8
3BF8
3F78
3EF8
3FF0
3FF0
3FE0
7FE0
EF80
ENDCHAR
STARTCHAR 0218
ENCODING 536
SWIDTH 495 0
DWIDTH 11 0
BBX 13 19 1 -4
BITMAP
07F8
0FF0
1FF0
1FE0
3FC0
3CC0
3E00
1F80
0FC0
03C0
43C0
FFC0
FFC0
FF80
7E00
3800
3800
3000
2000
ENDCHAR
STARTCHAR 0219
ENCODING 537
SWIDTH 495 0
DWIDTH 11 0
BBX 13 19 1 -4
BITMAP
07F8
0FF0
1FF0
1FE0
3FC0
3CC0
3E00
1F80
0FC0
03C0
43C0
FFC0
FFC0
FF80
7E00
3800
3800
3000
2000
ENDCHAR
STARTCHAR 021A
ENCODING 538
SWIDTH 540 0
DWIDTH 12 0
BBX 12 19 3 -4
BITMAP
7FF0
FFF0
FFF0
FFF0
FF80
0E00
0E00
1E00
1E00
1C00
1C00
1C00
3C00
3800
3800
3800
7800
7000
6000
ENDCHAR
STARTCHAR 021B
ENCODING 539
SWIDTH 540 0
DWIDTH 12 0
BBX 12 19 3 -4
BITMAP
7FF0
FFF0
FFF0
FFF0
FF80
0E00
0E00
1E00
1E00
1C00
1C00
1C00
3C00
3800
3800
3800
7800
7000
6000
ENDCHAR
STARTCHAR 021E
ENCODING 542
SWIDTH 540 0
DWIDTH 12 0
BBX 14 19 1 0
BITMAP
01DC
00F8
0070
0000
0F84
1F3C
0F3C
1F78
1E78
1E78
3FF8
3FF0
3FF0
7FF0
7DF0
7DE0
F9E0
F9E0
7B00
ENDCHAR
STARTCHAR 021F
ENCODING 543
SWIDTH 540 0
DWIDTH 12 0
BBX 14 19 1 0
BITMAP
01DC
00F8
0070
0000
0F84
1F3C
0F3C
1F78
1E78
1E78
3FF8
3FF0
3FF0
7FF0
7DF0
7DE0
F9E0
F9E0
7B00
ENDCHAR
STARTCHAR 0224
ENCODING 548
SWIDTH 585 0
DWIDTH 13 0
BBX 11 18 3 -3
BITMAP
3FE0
7FC0
FF80
FF80
0700
0E00
1E00
1C00
3C00
3800
7800
7FE0
FFE0
FFC0
03C0
0FC0
0F80
0E00
ENDCHAR
STARTCHAR 0225
ENCODING 549
SWIDTH 585 0
DWIDTH 13 0
BBX 11 18 3 -3
BITMAP
3FE0
7FC0
FF80
FF80
0700
0E00
1E00
1C00
3C00
3800
7800
7FE0
FFE0
FFC0
03C0
0FC0
0F80
0E00
ENDCHAR
STARTCHAR 0226
ENCODING 550
SWIDTH 630 0
DWIDTH 14 0
BBX 14 19 0 -1
BITMAP
0030
0030
0000
0070
0070
00F0
00F0
01F0
01F0
03F0
07F0
06F0
0CF8
1FF8
1FF8
3CF8
78F8
78FC
8000
ENDCHAR
STARTCHAR 0227
ENCODING 551
SWIDTH 630 0
DWIDTH 14 0
BBX 14 19 0 -1
BITMAP
0030
0030
0000
0070
0070
00F0
00F0
01F0
01F0
03F0
07F0
06F0
0CF8
1FF8
1FF8
3CF8
78F8
78FC
8000
ENDCHAR
STARTCHAR 0228
ENCODING 552
SWIDTH 495 0
DWIDTH 11 0
BBX 9 20 3 -4
BITMAP
0800
7F80
FF00
7F00
7E00
F000
F000
FE00
FC00
F000
FF00
FF00
FF00
FF00
FE00
F800
1800
0C00
FC00
7800
ENDCHAR
STARTCHAR 0229
ENCODING 553
SWIDTH 495 0
DWIDTH 11 0
BBX 9 20 3 -4
BITMAP
0800
7F80
FF00
7F00
7E00
F000
F000
FE00
FC00
F000
FF00
FF00
FF00
FF00
FE00
F800
1800
0C00
FC00
7800
ENDCHAR
STARTCHAR 022A
ENCODING 554
SWIDTH 495 0
DWIDTH 11 0
BBX 11 20 2 0
BITMAP
1FC0
1FC0
0900
1980
0500
0F00
1F80
1FC0
3FE0
7FE0
79E0
F1E0
F1E0
F3E0
FFE0
FFC0
FFC0
FF80
7F80
3E00
ENDCHAR
STARTCHAR 022B
ENCODING 555
SWIDTH 495 0
DWIDTH 11 0
BBX 11 20 2 0
BITMAP
1FC0
1FC0
0900
1980
0500
0F00
1F80
1FC0
3FE0
7FE0
79E0
F1E0
F1E0
F3E0
FFE0
FFC0
FFC0
FF80
7F80
3E00
ENDCHAR
STARTCHAR 022C
ENCODING 556
SWIDTH 495 0
DWIDTH 11 0
BBX 11 20 2 0
BITMAP
1FC0
1F00
1D80
1F80
0400
0F00
1F80
1FC0
3FE0
7FE0
79E0
F1E0
F1E0
F3E0
FFE0
FFC0
FFC0
FF80
7F80
3E00
ENDCHAR
STARTCHAR 022D
ENCODING 557
SWIDTH 495 0
DWIDTH 11 0
BBX 11 20 2 0
BITMAP
1FC0
1F00
1D80
1F80
0400
0F00
1F80
1FC0
3FE0
7FE0
79E0
F1E0
F1E0
F3E0
FFE0
FFC0
FFC0
FF80
7F80
3E00
ENDCHAR
STARTCHAR 022E
ENCODING 558
SWIDTH 495 0
DWIDTH 11 0
BBX 11 18 2 0
BITMAP
0600
0E00
0400
0F00
1F80
1FC0
3FE0
7FE0
79E0
F1E0
F1E0
F3E0
FFE0
FFC0
FFC0
FF80
7F80
3E00
ENDCHAR
STARTCHAR 022F
ENCODING 559
SWIDTH 495 0
DWIDTH 11 0
BBX 11 18 2 0
BITMAP
0600
0E00
0400
0F00
1F80
1FC0
3FE0
7FE0
79E0
F1E0
F1E0
F3E0
FFE0
FFC0
FFC0
FF80
7F80
3E00
ENDCHAR
STARTCHAR 0230
ENCODING 560
SWIDTH 495 0
DWIDTH 11 0
BBX 11 20 2 0
BITMAP
1FC0
1F00
0600
0600
0400
0F00
1F80
1FC0
3FE0
7FE0
79E0
F1E0
F1E0
F3E0
FFE0
FFC0
FFC0
FF80
7F80
3E00
ENDCHAR
STARTCHAR 0231
ENCODING 561
SWIDTH 495 0
DWIDTH 11 0
BBX 11 20 2 0
BITMAP
1FC0
1F00
0600
0600
0400
0F00
1F80
1FC0
3FE0
7FE0
79E0
F1E0
F1E0
F3E0
FFE0
FFC0
FFC0
FF80
7F80
3E00
ENDCHAR
STARTCHAR 0232
ENCODING 562
SWIDTH 585 0
DWIDTH 13 0
BBX 13 18 3 0
BITMAP
0FE0
0FE0
0000
1078
F078
F8F0
78E0
79C0
7BC0
3F80
3F00
3F00
3E00
1C00
1C00
1C00
3C00
3C00
ENDCHAR
STARTCHAR 0233
ENCODING 563
SWIDTH 585 0
DWIDTH 13 0
BBX 13 18 3 0
BITMAP
0FE0
0FE0
0000
1078
F078
F8F0
78E0
79C0
7BC0
3F80
3F00
3F00
3E00
1C00
1C00
1C00
3C00
3C00
ENDCHAR
STARTCHAR 0241
ENCODING 577
SWIDTH 450 0
DWIDTH 10 0
BBX 10 16 3 0
BITMAP
1C00
7F80
7FC0
FFC0
C380
0380
0780
0780
1F00
7C00
7800
7000
7000
F000
E000
E000
ENDCHAR
STARTCHAR 0242
ENCODING 578
SWIDTH 450 0
DWIDTH 10 0
BBX 10 16 3 0
BITMAP
1C00
7F80
7FC0
FFC0
C380
0380
0780
0780
1F00
7C00
7800
7000
7000
F000
E000
E000
ENDCHAR
STARTCHAR 0243
ENCODING 579
SWIDTH 495 0
DWIDTH 11 0
BBX 11 15 1 0
BITMAP
1FC0
3FC0
3FE0
3DE0
3CC0
3DC0
3F80
3FC0
3FE0
3EE0
FEE0
FDE0
7FC0
7F80
7C00
ENDCHAR
STARTCHAR 0244
ENCODING 580
SWIDTH 540 0
DWIDTH 12 0
BBX 13 15 2 0
BITMAP
1E38
1C38
3C78
7FF8
7FF8
FFF8
78F0
F8F0
FDE0
FFE0
FFC0
FFC0
7F80
7F00
1800
ENDCHAR
STARTCHAR 0253
ENCODING 595
SWIDTH 675 0
DWIDTH 15 0
BBX 14 15 2 0
BITMAP
1FF0
3FF8
3FF8
7F38
6738
E730
6FF0
7FF8
7FF8
0F3C
0F3C
0F78
0FF8
0FE0
0F00
ENDCHAR
STARTCHAR 0254
ENCODING 596
SWIDTH 450 0
DWIDTH 10 0
BBX 12 15 1 0
BITMAP
0F80
3FE0
3FE0
3FF0
03F0
01F0
01E0
01E0
77E0
7FE0
7FC0
FFC0
FF80
7F00
3800
ENDCHAR
STARTCHAR 0256
ENCODING 598
SWIDTH 450 0
DWIDTH 10 0
BBX 11 15 2 0
BITMAP
3F00
3F80
3FC0
3FC0
79C0
7EE0
FFC0
FDC0
FB80
7F80
7F00
7E00
7C00
7800
4000
ENDCHAR
STARTCHAR 0257
ENCODING 599
SWIDTH 630 0
DWIDTH 14 0
BBX 14 15 2 0
BITMAP
1FE0
3FF0
3FF8
7FF8
679C
EF1C
6F1C
7F38
7F78
0FF0
0FE0
0FC0
0F80
0F00
0C00
ENDCHAR
STARTCHAR 0259
ENCODING 601
SWIDTH 450 0
DWIDTH 10 0
BBX 10 15 2 0
BITMAP
1F80
3F80
7FC0
23C0
01C0
01C0
FFC0
FFC0
F3C0
F3C0
FF80
FF80
FF80
7F00
3C00
ENDCHAR
STARTCHAR 025B
ENCODING 603
SWIDTH 450 0
DWIDTH 10 0
BBX 10 16 2 0
BITMAP
0200
1FC0
3FC0
7EC0
7800
7800
7800
7F00
3F00
7C00
7000
F000
F980
FF80
7F00
7E00
ENDCHAR
STARTCHAR 0260
ENCODING 608
SWIDTH 495 0
DWIDTH 11 0
BBX 14 19 1 0
BITMAP
003C
007C
00F8
00F0
03E0
07F0
0FF0
1E60
1C00
3800
38F0
71E0
71E0
73E0
FFE0
FFC0
FF80
7E00
3800
ENDCHAR
STARTCHAR 0263
ENCODING 611
SWIDTH 585 0
DWIDTH 13 0
BBX 13 18 3 -3
BITMAP
F020
7078
70F8
70F0
71E0
79E0
7BC0
3B80
3F80
3F00
1E00
3E00
7E00
E600
E600
FC00
7800
3000
ENDCHAR
STARTCHAR 0268
ENCODING 616
SWIDTH 360 0
DWIDTH 8 0
BBX 10 15 1 0
BITMAP
07C0
0F80
0F80
0F00
1F00
1F00
7F80
7F00
7F00
3E00
3E00
7C00
7C00
7C00
E000
ENDCHAR
STARTCHAR 0272
ENCODING 626
SWIDTH 540 0
DWIDTH 12 0
BBX 17 18 -2 -3
BITMAP
01E380
01E780
03E780
03EF00
07EF00
07EF00
07EE00
0FFE00
0FFE00
0F7E00
0F7C00
1F7C00
1E7C00
1E7C00
3C7000
7C0000
F80000
F00000
ENDCHAR
STARTCHAR 0278
ENCODING 632
SWIDTH 630 0
DWIDTH 14 0
BBX 14 17 2 0
BITMAP
01E0
05E0
3FFC
3FFC
7FFC
7FFC
FBBC
F7BC
F7BC
F73C
FF78
FFF0
FFF0
FFE0
FFC0
1C00
3C00
ENDCHAR
STARTCHAR 0289
ENCODING 649
SWIDTH 540 0
DWIDTH 12 0
BBX 13 15 2 0
BITMAP
1E38
1C38
3C78
7FF8
7FF8
FFF8
78F0
F8F0
FDE0
FFE0
FFC0
FFC0
7F80
7F00
1800
ENDCHAR
STARTCHAR 028B
ENCODING 651
SWIDTH 540 0
DWIDTH 12 0
BBX 12 15 2 1
BITMAP
73C0
71E0
71E0
70F0
70F0
F0F0
F0F0
F9F0
F9E0
FFE0
7FE0
7FC0
7F80
3F00
0C00
ENDCHAR
STARTCHAR 0292
ENCODING 658
SWIDTH 495 0
DWIDTH 11 0
BBX 11 15 1 0
BITMAP
1FE0
1FE0
00E0
01C0
0780
0FC0
3FC0
1FE0
00E0
00E0
80E0
FBC0
FFC0
FF80
3E00
ENDCHAR
STARTCHAR 0294
ENCODING 660
SWIDTH 450 0
DWIDTH 10 0
BBX 10 16 3 0
BITMAP
1C00
7F80
7FC0
FFC0
C380
0380
0780
0780
1F00
7C00
7800
7000
7000
F000
E000
E000
ENDCHAR
STARTCHAR 0295
ENCODING 661
SWIDTH 450 0
DWIDTH 10 0
BBX 11 16 2 0
BITMAP
0380
3FC0
7FC0
7FE0
78C0
7000
F000
F000
7C00
3E00
1E00
1E00
1C00
1C00
1C00
3C00
ENDCHAR
STARTCHAR 0296
ENCODING 662
SWIDTH 450 0
DWIDTH 10 0
BBX 10 16 1 0
BITMAP
0700
0700
0700
0F00
0F00
0F00
0F00
0FC0
03C0
01C0
01C0
43C0
F7C0
FF80
FF80
7E00
ENDCHAR
STARTCHAR 02B9
ENCODING 697
SWIDTH 180 0
DWIDTH 4 0
BBX 6 8 2 8
BITMAP
1C
18
38
30
70
60
60
C0
ENDCHAR
STARTCHAR 02BA
ENCODING 698
SWIDTH 360 0
DWIDTH 8 0
BBX 10 8 2 8
BITMAP
1DC0
1980
3B80
3300
7700
6600
6600
C400
ENDCHAR
STARTCHAR 02BB
ENCODING 699
SWIDTH 180 0
DWIDTH 4 0
BBX 5 8 2 8
BITMAP
18
38
38
78
70
70
F0
E0
ENDCHAR
STARTCHAR 02BC
ENCODING 700
SWIDTH 180 0
DWIDTH 4 0
BBX 5 8 3 8
BITMAP
78
70
70
F0
E0
E0
C0
80
ENDCHAR
STARTCHAR 02BD
ENCODING 701
SWIDTH 180 0
DWIDTH 4 0
BBX 4 8 3 8
BITMAP
70
F0
F0
F0
F0
F0
60
40
ENDCHAR
STARTCHAR 02C6
ENCODING 710
SWIDTH 315 0
DWIDTH 7 0
BBX 7 3 4 16
BITMAP
38
7C
EE
ENDCHAR
STARTCHAR 02C7
ENCODING 711
SWIDTH 315 0
DWIDTH 7 0
BBX 7 3 4 16
BITMAP
EE
7C
38
ENDCHAR
STARTCHAR 02C8
ENCODING 712
SWIDTH 90 0
DWIDTH 2 0
BBX 2 3 4 16
BITMAP
C0
C0
C0
ENDCHAR
STARTCHAR 02C9
ENCODING 713
SWIDTH 315 0
DWIDTH 7 0
BBX 7 2 4 16
BITMAP
FE
FC
ENDCHAR
STARTCHAR 02CA
ENCODING 714
SWIDTH 225 0
DWIDTH 5 0
BBX 5 3 4 16
BITMAP
38
70
C0
ENDCHAR
STARTCHAR 02CB
ENCODING 715
SWIDTH 225 0
DWIDTH 5 0
BBX 4 3 4 16
BITMAP
F0
70
30
ENDCHAR
STARTCHAR 02CC
ENCODING 716
SWIDTH 90 0
DWIDTH 2 0
BBX 2 4 0 -4
BITMAP
C0
C0
C0
C0
ENDCHAR
STARTCHAR 02CD
ENCODING 717
SWIDTH 315 0
DWIDTH 7 0
BBX 7 2 0 -3
BITMAP
FE
FC
ENDCHAR
STARTCHAR 02D0
ENCODING 720
SWIDTH 180 0
DWIDTH 4 0
BBX 7 11 0 0
BITMAP
1E
3C
1C
18
00
00
00
30
30
70
F0
ENDCHAR
STARTCHAR 02D1
ENCODING 721
SWIDTH 180 0
DWIDTH 4 0
BBX 5 4 2 7
BITMAP
78
F0
70
60
ENDCHAR
STARTCHAR 02D8
ENCODING 728
SWIDTH 315 0
DWIDTH 7 0
BBX 7 3 4 16
BITMAP
C6
FC
78
ENDCHAR
STARTCHAR 02D9
ENCODING 729
SWIDTH 135 0
DWIDTH 3 0
BBX 2 2 4 16
BITMAP
C0
C0
ENDCHAR
STARTCHAR 02DA
ENCODING 730
SWIDTH 315 0
DWIDTH 7 0
BBX 6 6 4 13
BITMAP
7C
EC
CC
CC
F8
60
ENDCHAR
STARTCHAR 02DB
ENCODING 731
SWIDTH 270 0
DWIDTH 6 0
BBX 6 5 0 -3
BITMAP
20
60
C0
FC
78
ENDCHAR
STARTCHAR 02DC
ENCODING 732
SWIDTH 315 0
DWIDTH 7 0
BBX 7 3 4 16
BITMAP
66
FE
FC
ENDCHAR
STARTCHAR 02DD
ENCODING 733
SWIDTH 405 0
DWIDTH 9 0
BBX 9 3 4 16
BITMAP
3F80
7600
CC00
ENDCHAR
STARTCHAR 0300
ENCODING 768
SWIDTH 0 0
DWIDTH 0 0
BBX 4 3 -5 16
BITMAP
E0
60
70
ENDCHAR
STARTCHAR 0301
ENCODING 769
SWIDTH 0 0
DWIDTH 0 0
BBX 5 3 -3 16
BITMAP
38
70
E0
ENDCHAR
STARTCHAR 0302
ENCODING 770
SWIDTH 0 0
DWIDTH 0 0
BBX 7 3 -6 16
BITMAP
38
7C
EE
ENDCHAR
STARTCHAR 0303
ENCODING 771
SWIDTH 0 0
DWIDTH 0 0
BBX 7 3 -6 16
BITMAP
66
FE
FC
ENDCHAR
STARTCHAR 0304
ENCODING 772
SWIDTH 0 0
DWIDTH 0 0
BBX 7 2 -6 16
BITMAP
FE
FE
ENDCHAR
STARTCHAR 0305
ENCODING 773
SWIDTH 0 0
DWIDTH 0 0
BBX 9 2 -7 16
BITMAP
7F80
FF00
ENDCHAR
STARTCHAR 0306
ENCODING 774
SWIDTH 0 0
DWIDTH 0 0
BBX 6 3 -5 16
BITMAP
CC
FC
F8
ENDCHAR
STARTCHAR 0307
ENCODING 775
SWIDTH 0 0
DWIDTH 0 0
BBX 3 2 -4 16
BITMAP
60
E0
ENDCHAR
STARTCHAR 0308
ENCODING 776
SWIDTH 0 0
DWIDTH 0 0
BBX 6 2 -6 16
BITMAP
6C
EC
ENDCHAR
STARTCHAR 030A
ENCODING 778
SWIDTH 0 0
DWIDTH 0 0
BBX 7 5 -6 15
BITMAP
3C
66
E6
EC
78
ENDCHAR
STARTCHAR 030B
ENCODING 779
SWIDTH 0 0
DWIDTH 0 0
BBX 8 3 -5 16
BITMAP
7F
6E
CC
ENDCHAR
STARTCHAR 030C
ENCODING 780
SWIDTH 0 0
DWIDTH 0 0
BBX 7 3 -6 16
BITMAP
EE
7C
38
ENDCHAR
STARTCHAR 030D
ENCODING 781
SWIDTH 0 0
DWIDTH 0 0
BBX 3 3 -4 16
BITMAP
60
40
C0
ENDCHAR
STARTCHAR 0311
ENCODING 785
SWIDTH 0 0
DWIDTH 0 0
BBX 7 3 -6 16
BITMAP
3C
7C
CE
ENDCHAR
STARTCHAR 0323
ENCODING 803
SWIDTH 0 0
DWIDTH 0 0
BBX 3 2 -8 -4
BITMAP
40
E0
ENDCHAR
STARTCHAR 0326
ENCODING 806
SWIDTH 0 0
DWIDTH 0 0
BBX 4 4 -9 -4
BITMAP
70
70
E0
40
ENDCHAR
STARTCHAR 0327
ENCODING 807
SWIDTH 0 0
DWIDTH 0 0
BBX 6 6 -10 -4
BITMAP
38
38
38
1C
FC
78
ENDCHAR
STARTCHAR 0328
ENCODING 808
SWIDTH 0 0
DWIDTH 0 0
BBX 6 5 -9 -3
BITMAP
20
60
C0
FC
78
ENDCHAR
STARTCHAR 0329
ENCODING 809
SWIDTH 0 0
DWIDTH 0 0
BBX 3 4 -8 -4
BITMAP
60
40
C0
C0
ENDCHAR
STARTCHAR 0331
ENCODING 817
SWIDTH 0 0
DWIDTH 0 0
BBX 7 2 -10 -3
BITMAP
FE
FE
ENDCHAR
STARTCHAR 0342
ENCODING 834
SWIDTH 0 0
DWIDTH 0 0
BBX 7 3 -6 16
BITMAP
66
FE
FC
ENDCHAR
STARTCHAR 0344
ENCODING 836
SWIDTH 0 0
DWIDTH 0 0
BBX 6 4 -6 16
BITMAP
0C
18
74
EC
ENDCHAR
STARTCHAR 0345
ENCODING 837
SWIDTH 0 0
DWIDTH 0 0
BBX 3 4 -7 -4
BITMAP
C0
80
E0
E0
ENDCHAR
STARTCHAR 0374
ENCODING 884
SWIDTH 180 0
DWIDTH 4 0
BBX 5 4 3 12
BITMAP
38
70
E0
40
ENDCHAR
STARTCHAR 0375
ENCODING 885
SWIDTH 180 0
DWIDTH 4 0
BBX 4 4 0 -4
BITMAP
30
70
E0
C0
ENDCHAR
STARTCHAR 037A
ENCODING 890
SWIDTH 180 0
DWIDTH 4 0
BBX 4 4 0 -4
BITMAP
C0
C0
F0
70
ENDCHAR
STARTCHAR 037B
ENCODING 891
SWIDTH 450 0
DWIDTH 10 0
BBX 12 15 1 0
BITMAP
0F80
3FE0
3FE0
3FF0
03F0
01F0
01E0
01E0
77E0
7FE0
7FC0
FFC0
FF80
7F00
3800
ENDCHAR
STARTCHAR 037E
ENCODING 894
SWIDTH 180 0
DWIDTH 4 0
BBX 6 15 0 -4
BITMAP
1C
1C
3C
1C
00
00
00
38
78
78
70
70
E0
E0
40
ENDCHAR
STARTCHAR 037F
ENCODING 895
SWIDTH 450 0
DWIDTH 10 0
BBX 11 15 1 0
BITMAP
01E0
03E0
03E0
03E0
07E0
07E0
07E0
07C0
07C0
07C0
F7C0
F780
FF00
7E00
3C00
ENDCHAR
STARTCHAR 0384
ENCODING 900
SWIDTH 135 0
DWIDTH 3 0
BBX 4 3 3 13
BITMAP
30
60
C0
ENDCHAR
STARTCHAR 0385
ENCODING 901
SWIDTH 270 0
DWIDTH 6 0
BBX 6 4 4 16
BITMAP
0C
18
5C
CC
ENDCHAR
STARTCHAR 0386
ENCODING 902
SWIDTH 630 0
DWIDTH 14 0
BBX 14 17 0 -1
BITMAP
0180
0370
0670
00F0
00F0
01F0
01F0
03F0
07F0
06F0
0CF8
1FF8
1FF8
3CF8
78F8
78FC
8000
ENDCHAR
STARTCHAR 0387
ENCODING 903
SWIDTH 180 0
DWIDTH 4 0
BBX 4 4 2 7
BITMAP
70
70
F0
70
ENDCHAR
STARTCHAR 0388
ENCODING 904
SWIDTH 585 0
DWIDTH 13 0
BBX 11 16 3 0
BITMAP
7200
7FE0
DFC0
1FC0
1FC0
1C00
1C00
3F80
3F80
3C00
3FC0
3FC0
3FC0
3FC0
3F80
3800
ENDCHAR
STARTCHAR 0389
ENCODING 905
SWIDTH 585 0
DWIDTH 13 0
BBX 14 16 2 0
BITMAP
3800
3F84
7F3C
0F3C
1F38
1E78
1E78
3FF8
3FF0
3FF0
7FF0
7DF0
7DE0
79E0
F9E0
7B00
ENDCHAR
STARTCHAR 038A
ENCODING 906
SWIDTH 360 0
DWIDTH 8 0
BBX 9 16 2 0
BITMAP
3800
3F80
6F80
0F00
1F00
1F00
1E00
3E00
3E00
3E00
3C00
7C00
7C00
7C00
F800
E000
ENDCHAR
STARTCHAR 038C
ENCODING 908
SWIDTH 540 0
DWIDTH 12 0
BBX 12 16 2 0
BITMAP
3A00
3F00
6FC0
1FC0
3FE0
3FE0
7DE0
79F0
F1E0
F9E0
FFE0
FFE0
FFC0
7FC0
7F80
3E00
ENDCHAR
STARTCHAR 038E
ENCODING 910
SWIDTH 675 0
DWIDTH 15 0
BBX 15 16 3 0
BITMAP
7000
641E
FC1C
3C3C
3E78
1E70
1EE0
1FE0
0FC0
0F80
0F80
0700
0700
0F00
0F00
0F00
ENDCHAR
STARTCHAR 038F
ENCODING 911
SWIDTH 630 0
DWIDTH 14 0
BBX 15 16 1 0
BITMAP
1C00
1FF8
3FFC
0FFC
1FFE
1E3E
3C1E
3C1E
381C
381C
3838
3C38
1C70
7CFC
FCF8
FCF8
ENDCHAR
STARTCHAR 0390
ENCODING 912
SWIDTH 315 0
DWIDTH 7 0
BBX 10 20 1 0
BITMAP
00C0
0180
05C0
0EC0
0000
0F80
0F80
0F00
1F00
1F00
1E00
3E00
3E00
3E00
3C00
7C00
7C00
7800
F800
E000
ENDCHAR
STARTCHAR 0391
ENCODING 913
SWIDTH 630 0
DWIDTH 14 0
BBX 14 16 0 -1
BITMAP
0070
0070
00F0
00F0
01F0
01F0
03F0
07F0
06F0
0CF8
1FF8
1FF8
3CF8
78F8
78FC
8000
ENDCHAR
STARTCHAR 0392
ENCODING 914
SWIDTH 495 0
DWIDTH 11 0
BBX 10 15 2 0
BITMAP
3F80
7F80
7FC0
7BC0
7980
7B80
7F00
7F80
7FC0
79C0
7BC0
FFC0
FF80
FF00
F800
ENDCHAR
STARTCHAR 0393
ENCODING 915
SWIDTH 495 0
DWIDTH 11 0
BBX 13 16 1 0
BITMAP
0070
1FF8
3FF8
3FF8
3C00
3C00
7800
7800
7800
7800
7000
F000
F000
F000
F000
F000
ENDCHAR
STARTCHAR 0394
ENCODING 916
SWIDTH 585 0
DWIDTH 13 0
BBX 13 15 0 0
BITMAP
0078
00F0
01F0
01F0
03F0
07F8
0FF8
0F78
1F78
1E78
3C78
3CF8
7FF8
7FF8
FFF8
ENDCHAR
STARTCHAR 0395
ENCODING 917
SWIDTH 495 0
DWIDTH 11 0
BBX 9 16 3 0
BITMAP
0800
7F80
FF00
7F00
7E00
F000
F000
FE00
FC00
F000
FF00
FF00
FF00
FF00
FE00
E000
ENDCHAR
STARTCHAR 0396
ENCODING 918
SWIDTH 585 0
DWIDTH 13 0
BBX 11 15 3 0
BITMAP
3FE0
7FC0
FF80
FF80
0700
0E00
1E00
1C00
3C00
3800
7800
7FE0
FFC0
FF80
0F00
ENDCHAR
STARTCHAR 0397
ENCODING 919
SWIDTH 540 0
DWIDTH 12 0
BBX 14 15 1 0
BITMAP
0F84
1F3C
0F3C
1F78
1E78
1E78
3FF8
3FF0
3FF0
7FF0
7DF0
7DE0
F9E0
F9E0
7B00
ENDCHAR
STARTCHAR 0398
ENCODING 920
SWIDTH 495 0
DWIDTH 11 0
BBX 11 15 2 0
BITMAP
0FC0
3FE0
3FE0
7FE0
7FE0
F9E0
F7E0
FFE0
F9E0
F3C0
FFC0
FFC0
7F80
7F00
1E00
ENDCHAR
STARTCHAR 0399
ENCODING 921
SWIDTH 315 0
DWIDTH 7 0
BBX 9 15 1 0
BITMAP
0F80
0F80
0F00
1F00
1F00
1E00
3E00
3E00
3E00
3C00
7C00
7C00
7800
F800
E000
ENDCHAR
STARTCHAR 039A
ENCODING 922
SWIDTH 540 0
DWIDTH 12 0
BBX 14 15 1 0
BITMAP
3F90
1F3C
3F78
3FF0
3FE0
3FC0
7F80
7F00
7F80
7F80
FFC0
FDE0
F9E0
FCE0
F880
ENDCHAR
STARTCHAR 039B
ENCODING 923
SWIDTH 585 0
DWIDTH 13 0
BBX 12 15 1 0
BITMAP
0700
0700
0F80
0F80
0FC0
1FC0
1FC0
3DE0
3DE0
79E0
79F0
F9F0
F9F0
F1F0
E000
ENDCHAR
STARTCHAR 039C
ENCODING 924
SWIDTH 630 0
DWIDTH 14 0
BBX 14 15 1 0
BITMAP
0C04
0C0C
0E1C
1E3C
1F3C
1F7C
3FFC
3FFC
3FFC
7D7C
787C
78F8
F0F8
F0F8
E0E0
ENDCHAR
STARTCHAR 039D
ENCODING 925
SWIDTH 540 0
DWIDTH 12 0
BBX 15 15 0 0
BITMAP
078E
079E
0F9E
0FBC
1FBC
1FBC
1FB8
3FF8
3FF8
3DF8
3DF0
7DF0
79F0
79F0
F1C0
ENDCHAR
STARTCHAR 039E
ENCODING 926
SWIDTH 450 0
DWIDTH 10 0
BBX 12 15 1 0
BITMAP
1FF0
3FF0
3FF0
07F0
0000
0B00
3FC0
3FC0
3F00
0000
0000
FFC0
FFC0
FFC0
7F80
ENDCHAR
STARTCHAR 039F
ENCODING 927
SWIDTH 495 0
DWIDTH 11 0
BBX 11 16 2 0
BITMAP
0400
0F00
1F80
1FC0
3FE0
7FE0
79E0
F1E0
F1E0
F3E0
FFE0
FFC0
FFC0
FF80
7F80
3E00
ENDCHAR
STARTCHAR 03A0
ENCODING 928
SWIDTH 540 0
DWIDTH 12 0
BBX 14 15 1 0
BITMAP
1FFC
3FFC
3FF8
3FF8
3C78
3878
7870
78F0
78F0
78F0
78F0
78E0
F1E0
F1E0
F1E0
ENDCHAR
STARTCHAR 03A1
ENCODING 929
SWIDTH 495 0
DWIDTH 11 0
BBX 13 15 0 0
BITMAP
0FE0
0FF0
0FF8
0E78
1E38
1E78
1EF0
3FF0
3FE0
3E00
7E00
7E00
7C00
7C00
FC00
ENDCHAR
STARTCHAR 03A3
ENCODING 931
SWIDTH 450 0
DWIDTH 10 0
BBX 12 15 1 0
BITMAP
3FF0
3FF0
3FF0
3C00
3E00
0F00
0780
0380
0780
1E00
3C00
7FC0
FFC0
FFC0
FF80
ENDCHAR
STARTCHAR 03A4
ENCODING 932
SWIDTH 540 0
DWIDTH 12 0
BBX 12 15 3 0
BITMAP
7FF0
FFF0
FFF0
FFF0
FF80
0E00
0E00
1E00
1E00
1C00
1C00
1C00
3C00
3800
3800
ENDCHAR
STARTCHAR 03A5
ENCODING 933
SWIDTH 585 0
DWIDTH 13 0
BBX 13 15 3 0
BITMAP
1078
F078
F8F0
78E0
79C0
7BC0
3F80
3F00
3F00
3E00
1C00
1C00
1C00
3C00
3C00
ENDCHAR
STARTCHAR 03A6
ENCODING 934
SWIDTH 630 0
DWIDTH 14 0
BBX 14 17 2 0
BITMAP
01E0
05E0
3FFC
3FFC
7FFC
7FFC
FBBC
F7BC
F7BC
F73C
FF78
FFF0
FFF0
FFE0
FFC0
1C00
3C00
ENDCHAR
STARTCHAR 03A7
ENCODING 935
SWIDTH 540 0
DWIDTH 12 0
BBX 15 15 1 0
BITMAP
1C1E
3E3C
3E78
3E78
3EF0
1FF0
0FE0
0FC0
0FC0
1FC0
1FC0
3DC0
79E0
78C0
F000
ENDCHAR
STARTCHAR 03A8
ENCODING 936
SWIDTH 720 0
DWIDTH 16 0
BBX 17 15 2 0
BITMAP
78C780
79E780
71C700
71CF00
71CF00
73CE00
F3DE00
7BBC00
7FFC00
7FF800
3FF000
07C000
070000
070000
0F0000
ENDCHAR
STARTCHAR 03A9
ENCODING 937
SWIDTH 585 0
DWIDTH 13 0
BBX 15 16 0 0
BITMAP
0040
03F8
07FC
0FFE
1FFE
1E1E
1C1E
3C1E
3C1E
3C1C
1C1C
1C38
1C70
7C7C
7CFC
FCF8
ENDCHAR
STARTCHAR 03AA
ENCODING 938
SWIDTH 315 0
DWIDTH 7 0
BBX 10 18 1 0
BITMAP
06C0
0EC0
0000
0F80
0F80
0F00
1F00
1F00
1E00
3E00
3E00
3E00
3C00
7C00
7C00
7800
F800
E000
ENDCHAR
STARTCHAR 03AB
ENCODING 939
SWIDTH 585 0
DWIDTH 13 0
BBX 13 18 3 0
BITMAP
06E0
0EC0
0000
1078
F078
F8F0
78E0
79C0
7BC0
3F80
3F00
3F00
3E00
1C00
1C00
1C00
3C00
3C00
ENDCHAR
STARTCHAR 03AC
ENCODING 940
SWIDTH 630 0
DWIDTH 14 0
BBX 14 17 0 -1
BITMAP
0180
0370
0670
00F0
00F0
01F0
01F0
03F0
07F0
06F0
0CF8
1FF8
1FF8
3CF8
78F8
78FC
8000
ENDCHAR
STARTCHAR 03AD
ENCODING 941
SWIDTH 585 0
DWIDTH 13 0
BBX 11 16 3 0
BITMAP
7200
7FE0
DFC0
1FC0
1FC0
1C00
1C00
3F80
3F80
3C00
3FC0
3FC0
3FC0
3FC0
3F80
3800
ENDCHAR
STARTCHAR 03AE
ENCODING 942
SWIDTH 585 0
DWIDTH 13 0
BBX 14 16 2 0
BITMAP
3800
3F84
7F3C
0F3C
1F38
1E78
1E78
3FF8
3FF0
3FF0
7FF0
7DF0
7DE0
79E0
F9E0
7B00
ENDCHAR
STARTCHAR 03AF
ENCODING 943
SWIDTH 360 0
DWIDTH 8 0
BBX 9 16 2 0
BITMAP
3800
3F80
6F80
0F00
1F00
1F00
1E00
3E00
3E00
3E00
3C00
7C00
7C00
7C00
F800
E000
ENDCHAR
STARTCHAR 03B0
ENCODING 944
SWIDTH 585 0
DWIDTH 13 0
BBX 13 20 3 0
BITMAP
00C0
0180
0740
0EC0
0000
1078
F078
F8F0
78E0
79C0
7BC0
3F80
3F00
3F00
3E00
1C00
1C00
1C00
3C00
3C00
ENDCHAR
STARTCHAR 03B1
ENCODING 945
SWIDTH 630 0
DWIDTH 14 0
BBX 14 16 0 -1
BITMAP
0070
0070
00F0
00F0
01F0
01F0
03F0
07F0
06F0
0CF8
1FF8
1FF8
3CF8
78F8
78FC
8000
ENDCHAR
STARTCHAR 03B2
ENCODING 946
SWIDTH 495 0
DWIDTH 11 0
BBX 10 15 2 0
BITMAP
3F80
7F80
7FC0
7BC0
7980
7B80
7F00
7F80
7FC0
79C0
7BC0
FFC0
FF80
FF00
F800
ENDCHAR
STARTCHAR 03B3
ENCODING 947
SWIDTH 495 0
DWIDTH 11 0
BBX 13 16 1 0
BITMAP
0070
1FF8
3FF8
3FF8
3C00
3C00
7800
7800
7800
7800
7000
F000
F000
F000
F000
F000
ENDCHAR
STARTCHAR 03B4
ENCODING 948
SWIDTH 585 0
DWIDTH 13 0
BBX 13 15 0 0
BITMAP
0078
00F0
01F0
01F0
03F0
07F8
0FF8
0F78
1F78
1E78
3C78
3CF8
7FF8
7FF8
FFF8
ENDCHAR
STARTCHAR 03B5
ENCODING 949
SWIDTH 495 0
DWIDTH 11 0
BBX 9 16 3 0
BITMAP
0800
7F80
FF00
7F00
7E00
F000
F000
FE00
FC00
F000
FF00
FF00
FF00
FF00
FE00
E000
ENDCHAR
STARTCHAR 03B6
ENCODING 950
SWIDTH 585 0
DWIDTH 13 0
BBX 11 15 3 0
BITMAP
3FE0
7FC0
FF80
FF80
0700
0E00
1E00
1C00
3C00
3800
7800
7FE0
FFC0
FF80
0F00
ENDCHAR
STARTCHAR 03B7
ENCODING 951
SWIDTH 540 0
DWIDTH 12 0
BBX 14 15 1 0
BITMAP
0F84
1F3C
0F3C
1F78
1E78
1E78
3FF8
3FF0
3FF0
7FF0
7DF0
7DE0
F9E0
F9E0
7B00
ENDCHAR
STARTCHAR 03B8
ENCODING 952
SWIDTH 495 0
DWIDTH 11 0
BBX 11 15 2 0
BITMAP
0FC0
3FE0
3FE0
7FE0
7FE0
F9E0
F7E0
FFE0
F9E0
F3C0
FFC0
FFC0
7F80
7F00
1E00
ENDCHAR
STARTCHAR 03B9
ENCODING 953
SWIDTH 315 0
DWIDTH 7 0
BBX 9 15 1 0
BITMAP
0F80
0F80
0F00
1F00
1F00
1E00
3E00
3E00
3E00
3C00
7C00
7C00
7800
F800
E000
ENDCHAR
STARTCHAR 03BA
ENCODING 954
SWIDTH 540 0
DWIDTH 12 0
BBX 14 15 1 0
BITMAP
3F90
1F3C
3F78
3FF0
3FE0
3FC0
7F80
7F00
7F80
7F80
FFC0
FDE0
F9E0
FCE0
F880
ENDCHAR
STARTCHAR 03BB
ENCODING 955
SWIDTH 585 0
DWIDTH 13 0
BBX 12 15 1 0
BITMAP
0700
0700
0F80
0F80
0FC0
1FC0
1FC0
3DE0
3DE0
79E0
79F0
F9F0
F9F0
F1F0
E000
ENDCHAR
STARTCHAR 03BC
ENCODING 956
SWIDTH 630 0
DWIDTH 14 0
BBX 14 15 1 0
BITMAP
0C04
0C0C
0E1C
1E3C
1F3C
1F7C
3FFC
3FFC
3FFC
7D7C
787C
78F8
F0F8
F0F8
E0E0
ENDCHAR
STARTCHAR 03BD
ENCODING 957
SWIDTH 540 0
DWIDTH 12 0
BBX 15 15 0 0
BITMAP
078E
079E
0F9E
0FBC
1FBC
1FBC
1FB8
3FF8
3FF8
3DF8
3DF0
7DF0
79F0
79F0
F1C0
ENDCHAR
STARTCHAR 03BE
ENCODING 958
SWIDTH 450 0
DWIDTH 10 0
BBX 12 15 1 0
BITMAP
1FF0
3FF0
3FF0
07F0
0000
0B00
3FC0
3FC0
3F00
0000
0000
FFC0
FFC0
FFC0
7F80
ENDCHAR
STARTCHAR 03BF
ENCODING 959
SWIDTH 495 0
DWIDTH 11 0
BBX 11 16 2 0
BITMAP
0400
0F00
1F80
1FC0
3FE0
7FE0
79E0
F1E0
F1E0
F3E0
FFE0
FFC0
FFC0
FF80
7F80
3E00
ENDCHAR
STARTCHAR 03C0
ENCODING 960
SWIDTH 540 0
DWIDTH 12 0
BBX 14 15 1 0
BITMAP
1FFC
3FFC
3FF8
3FF8
3C78
3878
7870
78F0
78F0
78F0
78F0
78E0
F1E0
F1E0
F1E0
ENDCHAR
STARTCHAR 03C1
ENCODING 961
SWIDTH 495 0
DWIDTH 11 0
BBX 13 15 0 0
BITMAP
0FE0
0FF0
0FF8
0E78
1E38
1E78
1EF0
3FF0
3FE0
3E00
7E00
7E00
7C00
7C00
FC00
ENDCHAR
STARTCHAR 03C2
ENCODING 962
SWIDTH 495 0
DWIDTH 11 0
BBX 11 18 2 -3
BITMAP
03C0
1FE0
3FE0
7FE0
7C60
F000
F000
E000
F000
F800
FF00
FF80
7F80
3F80
0780
1F00
3E00
3C00
ENDCHAR
STARTCHAR 03C3
ENCODING 963
SWIDTH 450 0
DWIDTH 10 0
BBX 12 15 1 0
BITMAP
3FF0
3FF0
3FF0
3C00
3E00
0F00
0780
0380
0780
1E00
3C00
7FC0
FFC0
FFC0
FF80
ENDCHAR
STARTCHAR 03C4
ENCODING 964
SWIDTH 540 0
DWIDTH 12 0
BBX 12 15 3 0
BITMAP
7FF0
FFF0
FFF0
FFF0
FF80
0E00
0E00
1E00
1E00
1C00
1C00
1C00
3C00
3800
3800
ENDCHAR
STARTCHAR 03C5
ENCODING 965
SWIDTH 585 0
DWIDTH 13 0
BBX 13 15 3 0
BITMAP
1078
F078
F8F0
78E0
79C0
7BC0
3F80
3F00
3F00
3E00
1C00
1C00
1C00
3C00
3C00
ENDCHAR
STARTCHAR 03C6
ENCODING 966
SWIDTH 630 0
DWIDTH 14 0
BBX 14 17 2 0
BITMAP
01E0
05E0
3FFC
3FFC
7FFC
7FFC
FBBC
F7BC
F7BC
F73C
FF78
FFF0
FFF0
FFE0
FFC0
1C00
3C00
ENDCHAR
STARTCHAR 03C7
ENCODING 967
SWIDTH 540 0
DWIDTH 12 0
BBX 15 15 1 0
BITMAP
1C1E
3E3C
3E78
3E78
3EF0
1FF0
0FE0
0FC0
0FC0
1FC0
1FC0
3DC0
79E0
78C0
F000
ENDCHAR
STARTCHAR 03C8
ENCODING 968
SWIDTH 720 0
DWIDTH 16 0
BBX 17 15 2 0
BITMAP
78C780
79E780
71C700
71CF00
71CF00
73CE00
F3DE00
7BBC00
7FFC00
7FF800
3FF000
07C000
070000
070000
0F0000
ENDCHAR
STARTCHAR 03C9
ENCODING 969
SWIDTH 585 0
DWIDTH 13 0
BBX 15 16 0 0
BITMAP
0040
03F8
07FC
0FFE
1FFE
1E1E
1C1E
3C1E
3C1E
3C1C
1C1C
1C38
1C70
7C7C
7CFC
FCF8
ENDCHAR
STARTCHAR 03CA
ENCODING 970
SWIDTH 315 0
DWIDTH 7 0
BBX 10 18 1 0
BITMAP
06C0
0EC0
0000
0F80
0F80
0F00
1F00
1F00
1E00
3E00
3E00
3E00
3C00
7C00
7C00
7800
F800
E000
ENDCHAR
STARTCHAR 03CB
ENCODING 971
SWIDTH 585 0
DWIDTH 13 0
BBX 13 18 3 0
BITMAP
06E0
0EC0
0000
1078
F078
F8F0
78E0
79C0
7BC0
3F80
3F00
3F00
3E00
1C00
1C00
1C00
3C00
3C00
ENDCHAR
STARTCHAR 03CC
ENCODING 972
SWIDTH 540 0
DWIDTH 12 0
BBX 12 16 2 0
BITMAP
3A00
3F00
6FC0
1FC0
3FE0
3FE0
7DE0
79F0
F1E0
F9E0
FFE0
FFE0
FFC0
7FC0
7F80
3E00
ENDCHAR
STARTCHAR 03CD
ENCODING 973
SWIDTH 675 0
DWIDTH 15 0
BBX 15 16 3 0
BITMAP
7000
641E
FC1C
3C3C
3E78
1E70
1EE0
1FE0
0FC0
0F80
0F80
0700
0700
0F00
0F00
0F00
ENDCHAR
STARTCHAR 03CE
ENCODING 974
SWIDTH 630 0
DWIDTH 14 0
BBX 15 16 1 0
BITMAP
1C00
1FF8
3FFC
0FFC
1FFE
1E3E
3C1E
3C1E
381C
381C
3838
3C38
1C70
7CFC
FCF8
FCF8
ENDCHAR
STARTCHAR 03D2
ENCODING 978
SWIDTH 630 0
DWIDTH 14 0
BBX 14 15 3 0
BITMAP
F038
F87C
F8FC
79F8
3DF8
1F80
1F00
1F00
1E00
1E00
3C00
3C00
3C00
3C00
3C00
ENDCHAR
STARTCHAR 03D3
ENCODING 979
SWIDTH 720 0
DWIDTH 16 0
BBX 16 16 3 0
BITMAP
7000
7C0E
DE1F
1E3F
0F7E
077E
07E0
07E0
07C0
0780
0780
0700
0700
0F00
0F00
0F00
ENDCHAR
STARTCHAR 03D4
ENCODING 980
SWIDTH 630 0
DWIDTH 14 0
BBX 14 18 3 0
BITMAP
06E0
0EC0
0000
F038
F87C
F8FC
79F8
3DF8
1F80
1F00
1F00
1E00
1E00
3C00
3C00
3C00
3C00
3C00
ENDCHAR
STARTCHAR 03D5
ENCODING 981
SWIDTH 630 0
DWIDTH 14 0
BBX 14 17 2 0
BITMAP
01E0
05E0
3FFC
3FFC
7FFC
7FFC
FBBC
F7BC
F7BC
F73C
FF78
FFF0
FFF0
FFE0
FFC0
1C00
3C00
ENDCHAR
STARTCHAR 03D8
ENCODING 984
SWIDTH 495 0
DWIDTH 11 0
BBX 11 18 2 -3
BITMAP
07E0
1FE0
1FE0
3FE0
7FE0
79E0
F0E0
F1E0
F1E0
FBC0
FFC0
FF80
FF80
FF00
7C00
3800
3800
3800
ENDCHAR
STARTCHAR 03D9
ENCODING 985
SWIDTH 495 0
DWIDTH 11 0
BBX 11 18 2 -3
BITMAP
07E0
1FE0
1FE0
3FE0
7FE0
79E0
F0E0
F1E0
F1E0
FBC0
FFC0
FF80
FF80
FF00
7C00
3800
3800
3800
ENDCHAR
STARTCHAR 03DA
ENCODING 986
SWIDTH 495 0
DWIDTH 11 0
BBX 12 19 2 -3
BITMAP
00C0
0FF0
1FF0
3FE0
7FE0
7800
F000
F000
E000
E000
F000
FC00
FF80
FF80
7F80
0780
1F00
3E00
3C00
ENDCHAR
STARTCHAR 03DB
ENCODING 987
SWIDTH 495 0
DWIDTH 11 0
BBX 12 19 2 -3
BITMAP
00C0
0FF0
1FF0
3FE0
7FE0
7800
F000
F000
E000
E000
F000
FC00
FF80
FF80
7F80
0780
1F00
3E00
3C00
ENDCHAR
STARTCHAR 03F2
ENCODING 1010
SWIDTH 450 0
DWIDTH 10 0
BBX 11 15 2 0
BITMAP
07C0
1FE0
3FE0
7FE0
7E00
F800
F800
F000
F9C0
FFC0
FF80
FF80
FF80
7F00
1C00
ENDCHAR
STARTCHAR 03F3
ENCODING 1011
SWIDTH 450 0
DWIDTH 10 0
BBX 11 15 1 0
BITMAP
01E0
03E0
03E0
03E0
07E0
07E0
07E0
07C0
07C0
07C0
F7C0
F780
FF00
7E00
3C00
ENDCHAR
STARTCHAR 03F4
ENCODING 1012
SWIDTH 495 0
DWIDTH 11 0
BBX 11 15 2 0
BITMAP
1F80
1FC0
3FE0
3FE0
7FE0
79E0
FFE0
FFE0
F1E0
FBE0
FFC0
FFC0
FF80
7F80
3E00
ENDCHAR
STARTCHAR 03F7
ENCODING 1015
SWIDTH 495 0
DWIDTH 11 0
BBX 11 15 1 0
BITMAP
3C00
3C00
3FC0
3FE0
3FE0
38E0
78E0
78E0
79E0
7BE0
7FC0
7F80
7800
F800
F000
ENDCHAR
STARTCHAR 03F8
ENCODING 1016
SWIDTH 495 0
DWIDTH 11 0
BBX 11 15 1 0
BITMAP
3C00
3C00
3FC0
3FE0
3FE0
38E0
78E0
78E0
79E0
7BE0
7FC0
7F80
7800
F800
F000
ENDCHAR
STARTCHAR 03F9
ENCODING 1017
SWIDTH 450 0
DWIDTH 10 0
BBX 11 15 2 0
BITMAP
07C0
1FE0
3FE0
7FE0
7E00
F800
F800
F000
F9C0
FFC0
FF80
FF80
FF80
7F00
1C00
ENDCHAR
STARTCHAR 03FA
ENCODING 1018
SWIDTH 585 0
DWIDTH 13 0
BBX 13 15 1 0
BITMAP
1818
1C38
1EF8
3FF8
3FF8
3F78
7C78
7C78
7878
7878
F878
F878
F878
F078
F078
ENDCHAR
STARTCHAR 03FB
ENCODING 1019
SWIDTH 585 0
DWIDTH 13 0
BBX 13 15 1 0
BITMAP
1818
1C38
1EF8
3FF8
3FF8
3F78
7C78
7C78
7878
7878
F878
F878
F878
F078
F078
ENDCHAR
STARTCHAR 03FD
ENCODING 1021
SWIDTH 450 0
DWIDTH 10 0
BBX 12 15 1 0
BITMAP
0F80
3FE0
3FE0
3FF0
03F0
01F0
01E0
01E0
77E0
7FE0
7FC0
FFC0
FF80
7F00
3800
ENDCHAR
STARTCHAR 0400
ENCODING 1024
SWIDTH 495 0
DWIDTH 11 0
BBX 9 19 3 0
BITMAP
7800
3800
1C00
0800
7F80
FF00
7F00
7E00
F000
F000
FE00
FC00
F000
FF00
FF00
FF00
FF00
FE00
E000
ENDCHAR
STARTCHAR 0401
ENCODING 1025
SWIDTH 495 0
DWIDTH 11 0
BBX 9 18 3 0
BITMAP
3600
6600
0800
7F80
FF00
7F00
7E00
F000
F000
FE00
FC00
F000
FF00
FF00
FF00
FF00
FE00
E000
ENDCHAR
STARTCHAR 0402
ENCODING 1026
SWIDTH 675 0
DWIDTH 15 0
BBX 13 18 3 -3
BITMAP
7FF0
FFF0
FFF0
0F00
0F00
0FF0
1FF8
1FF8
1E78
1C78
1C78
1C70
3C70
3C70
38F0
01E0
03E0
0300
ENDCHAR
STARTCHAR 0403
ENCODING 1027
SWIDTH 495 0
DWIDTH 11 0
BBX 13 19 1 0
BITMAP
00E0
01C0
0180
0070
1FF8
3FF8
3FF8
3C00
3C00
7800
7800
7800
7800
7000
F000
F000
F000
F000
F000
ENDCHAR
STARTCHAR 0404
ENCODING 1028
SWIDTH 495 0
DWIDTH 11 0
BBX 11 15 2 0
BITMAP
07C0
1FE0
3FE0
3FE0
7FE0
7840
FF80
FF00
FF00
E000
FF80
FF80
FF80
7F80
1E00
ENDCHAR
STARTCHAR 0405
ENCODING 1029
SWIDTH 495 0
DWIDTH 11 0
BBX 13 15 1 0
BITMAP
07F8
0FF0
1FF0
1FE0
3FC0
3CC0
3E00
1F80
0FC0
03C0
43C0
FFC0
FFC0
FF80
7E00
ENDCHAR
STARTCHAR 0406
ENCODING 1030
SWIDTH 315 0
DWIDTH 7 0
BBX 9 15 1 0
BITMAP
0F80
0F80
0F00
1F00
1F00
1E00
3E00
3E00
3E00
3C00
7C00
7C00
7800
F800
E000
ENDCHAR
STARTCHAR 0407
ENCODING 1031
SWIDTH 315 0
DWIDTH 7 0
BBX 10 18 1 0
BITMAP
06C0
0EC0
0000
0F80
0F80
0F00
1F00
1F00
1E00
3E00
3E00
3E00
3C00
7C00
7C00
7800
F800
E000
ENDCHAR
STARTCHAR 0408
ENCODING 1032
SWIDTH 450 0
DWIDTH 10 0
BBX 11 15 1 0
BITMAP
01E0
03E0
03E0
03E0
07E0
07E0
07E0
07C0
07C0
07C0
F7C0
F780
FF00
7E00
3C00
ENDCHAR
STARTCHAR 0409
ENCODING 1033
SWIDTH 720 0
DWIDTH 16 0
BBX 16 15 1 0
BITMAP
03F8
03F8
07F8
07F0
0FF0
0FFC
1EFE
1EFF
3CE7
3DE7
79C7
79CF
FBFE
F3FE
E3F8
ENDCHAR
STARTCHAR 040A
ENCODING 1034
SWIDTH 720 0
DWIDTH 16 0
BBX 16 15 1 0
BITMAP
0F38
1E78
1E78
1E70
1EF0
3EFC
3FFE
3FFF
3FE7
7FE7
79C7
79CF
FBFE
FBFE
73F8
ENDCHAR
STARTCHAR 040B
ENCODING 1035
SWIDTH 675 0
DWIDTH 15 0
BBX 13 15 3 0
BITMAP
7FF0
FFF0
FFF0
0F00
0F00
0FF0
1FF8
1FF8
1E78
1C78
1C78
1C70
3C70
3CF0
38F0
ENDCHAR
STARTCHAR 040C
ENCODING 1036
SWIDTH 540 0
DWIDTH 12 0
BBX 14 19 1 0
BITMAP
001C
0038
0060
0000
3F90
1F3C
3F78
3FF0
3FE0
3FC0
7F80
7F00
7F80
7F80
FFC0
FDE0
F9E0
FCE0
F880
ENDCHAR
STARTCHAR 040D
ENCODING 1037
SWIDTH 540 0
DWIDTH 12 0
BBX 12 19 2 0
BITMAP
0E00
0600
0700
0000
38F0
79F0
79F0
79F0
79E0
7BE0
7FE0
77E0
7FE0
FDE0
FDE0
F9E0
F3C0
F3C0
E1C0
ENDCHAR
STARTCHAR 040E
ENCODING 1038
SWIDTH 495 0
DWIDTH 11 0
BBX 13 19 1 0
BITMAP
0630
07E0
03C0
0000
3E78
1EF0
1EF0
1EE0
1FE0
0FE0
0FC0
0FC0
0FC0
0F80
7F80
7F80
FF00
FE00
F000
ENDCHAR
STARTCHAR 040F
ENCODING 1039
SWIDTH 495 0
DWIDTH 11 0
BBX 13 18 1 -3
BITMAP
1838
3C78
3C78
3C78
3C70
78F0
78F0
78F0
70F0
70F0
F0E0
FFE0
FFE0
FFE0
FE00
1C00
1C00
1C00
ENDCHAR
STARTCHAR 0410
ENCODING 1040
SWIDTH 630 0
DWIDTH 14 0
BBX 14 16 0 -1
BITMAP
0070
0070
00F0
00F0
01F0
01F0
03F0
07F0
06F0
0CF8
1FF8
1FF8
3CF8
78F8
78FC
8000
ENDCHAR
STARTCHAR 0411
ENCODING 1041
SWIDTH 495 0
DWIDTH 11 0
BBX 11 15 2 0
BITMAP
3FC0
3FE0
3FE0
7FE0
7800
7800
7F80
7FC0
FFC0
F1C0
F380
F380
FF00
FE00
F800
ENDCHAR
STARTCHAR 0412
ENCODING 1042
SWIDTH 495 0
DWIDTH 11 0
BBX 10 15 2 0
BITMAP
3F80
7F80
7FC0
7BC0
7980
7B80
7F00
7F80
7FC0
79C0
7BC0
FFC0
FF80
FF00
F800
ENDCHAR
STARTCHAR 0413
ENCODING 1043
SWIDTH 495 0
DWIDTH 11 0
BBX 13 16 1 0
BITMAP
0070
1FF8
3FF8
3FF8
3C00
3C00
7800
7800
7800
7800
7000
F000
F000
F000
F000
F000
ENDCHAR
STARTCHAR 0414
ENCODING 1044
SWIDTH 585 0
DWIDTH 13 0
BBX 13 18 1 -3
BITMAP
00E0
01E0
01E0
03E0
07E0
07E0
0FE0
0EE0
1EE0
3CE0
3CE0
79E0
FFF8
FFF0
FFF0
E0E0
E0E0
E1C0
ENDCHAR
STARTCHAR 0415
ENCODING 1045
SWIDTH 495 0
DWIDTH 11 0
BBX 9 16 3 0
BITMAP
0800
7F80
FF00
7F00
7E00
F000
F000
FE00
FC00
F000
FF00
FF00
FF00
FF00
FE00
E000
ENDCHAR
STARTCHAR 0416
ENCODING 1046
SWIDTH 675 0
DWIDTH 15 0
BBX 17 15 1 0
BITMAP
1CE380
3FE700
3FEF00
3FEF00
1FFE00
1FFC00
1FFC00
1FF800
1FFC00
3FFC00
7FFE00
7BFE00
FBDE00
F39C00
E38000
ENDCHAR
STARTCHAR 0417
ENCODING 1047
SWIDTH 450 0
DWIDTH 10 0
BBX 10 15 2 1
BITMAP
3F80
7FC0
7FC0
43C0
03C0
03C0
3F80
3F80
2780
03C0
07C0
FF80
FF80
FF00
FC00
ENDCHAR
STARTCHAR 0418
ENCODING 1048
SWIDTH 540 0
DWIDTH 12 0
BBX 12 15 2 0
BITMAP
38F0
79F0
79F0
79F0
79E0
7BE0
7FE0
77E0
7FE0
FDE0
FDE0
F9E0
F3C0
F3C0
E1C0
ENDCHAR
STARTCHAR 0419
ENCODING 1049
SWIDTH 540 0
DWIDTH 12 0
BBX 12 19 2 0
BITMAP
0C60
0FC0
0780
0000
38F0
79F0
79F0
79F0
79E0
7BE0
7FE0
77E0
7FE0
FDE0
FDE0
F9E0
F3C0
F3C0
E1C0
ENDCHAR
STARTCHAR 041A
ENCODING 1050
SWIDTH 540 0
DWIDTH 12 0
BBX 14 15 1 0
BITMAP
3F90
1F3C
3F78
3FF0
3FE0
3FC0
7F80
7F00
7F80
7F80
FFC0
FDE0
F9E0
FCE0
F880
ENDCHAR
STARTCHAR 041B
ENCODING 1051
SWIDTH 585 0
DWIDTH 13 0
BBX 12 15 1 0
BITMAP
0700
0700
0F80
0F80
0FC0
1FC0
1FC0
3DE0
3DE0
79E0
79F0
F9F0
F9F0
F1F0
E000
ENDCHAR
STARTCHAR 041C
ENCODING 1052
SWIDTH 630 0
DWIDTH 14 0
BBX 14 15 1 0
BITMAP
0C04
0C0C
0E1C
1E3C
1F3C
1F7C
3FFC
3FFC
3FFC
7D7C
787C
78F8
F0F8
F0F8
E0E0
ENDCHAR
STARTCHAR 041D
ENCODING 1053
SWIDTH 540 0
DWIDTH 12 0
BBX 14 15 1 0
BITMAP
0F84
1F3C
0F3C
1F78
1E78
1E78
3FF8
3FF0
3FF0
7FF0
7DF0
7DE0
F9E0
F9E0
7B00
ENDCHAR
STARTCHAR 041E
ENCODING 1054
SWIDTH 495 0
DWIDTH 11 0
BBX 11 16 2 0
BITMAP
0400
0F00
1F80
1FC0
3FE0
7FE0
79E0
F1E0
F1E0
F3E0
FFE0
FFC0
FFC0
FF80
7F80
3E00
ENDCHAR
STARTCHAR 041F
ENCODING 1055
SWIDTH 540 0
DWIDTH 12 0
BBX 14 15 1 0
BITMAP
1FFC
3FFC
3FF8
3FF8
3C78
3878
7870
78F0
78F0
78F0
78F0
78E0
F1E0
F1E0
F1E0
ENDCHAR
STARTCHAR 0420
ENCODING 1056
SWIDTH 495 0
DWIDTH 11 0
BBX 13 15 0 0
BITMAP
0FE0
0FF0
0FF8
0E78
1E38
1E78
1EF0
3FF0
3FE0
3E00
7E00
7E00
7C00
7C00
FC00
ENDCHAR
STARTCHAR 0421
ENCODING 1057
SWIDTH 450 0
DWIDTH 10 0
BBX 11 15 2 0
BITMAP
07C0
1FE0
3FE0
7FE0
7E00
F800
F800
F000
F9C0
FFC0
FF80
FF80
FF80
7F00
1C00
ENDCHAR
STARTCHAR 0422
ENCODING 1058
SWIDTH 540 0
DWIDTH 12 0
BBX 12 15 3 0
BITMAP
7FF0
FFF0
FFF0
FFF0
FF80
0E00
0E00
1E00
1E00
1C00
1C00
1C00
3C00
3800
3800
ENDCHAR
STARTCHAR 0423
ENCODING 1059
SWIDTH 495 0
DWIDTH 11 0
BBX 13 15 1 0
BITMAP
3E78
1EF0
1EF0
1EE0
1FE0
0FE0
0FC0
0FC0
0FC0
0F80
7F80
7F80
FF00
FE00
F000
ENDCHAR
STARTCHAR 0424
ENCODING 1060
SWIDTH 630 0
DWIDTH 14 0
BBX 14 17 2 0
BITMAP
01E0
05E0
3FFC
3FFC
7FFC
7FFC
FBBC
F7BC
F7BC
F73C
FF78
FFF0
FFF0
FFE0
FFC0
1C00
3C00
ENDCHAR
STARTCHAR 0425
ENCODING 1061
SWIDTH 540 0
DWIDTH 12 0
BBX 15 15 1 0
BITMAP
1C1E
3E3C
3E78
3E78
3EF0
1FF0
0FE0
0FC0
0FC0
1FC0
1FC0
3DC0
79E0
78C0
F000
ENDCHAR
STARTCHAR 0426
ENCODING 1062
SWIDTH 495 0
DWIDTH 11 0
BBX 13 18 1 -3
BITMAP
1C18
1C38
3C78
3C78
3C78
3870
3870
78F0
78F0
70F0
F0E0
FFE0
FFE0
FFE0
13C0
01C0
01C0
03C0
ENDCHAR
STARTCHAR 0427
ENCODING 1063
SWIDTH 495 0
DWIDTH 11 0
BBX 11 15 2 0
BITMAP
39E0
79E0
79E0
71E0
71E0
71C0
F1C0
FFC0
7FC0
7FC0
1BC0
03C0
0380
0380
0380
ENDCHAR
STARTCHAR 0428
ENCODING 1064
SWIDTH 720 0
DWIDTH 16 0
BBX 17 15 2 0
BITMAP
38E780
78E780
79E700
79E700
71CF00
71CF00
73CF00
F3CE00
F3CE00
F39E00
FFFE00
FFFC00
FFFC00
FFFC00
FFFC00
ENDCHAR
STARTCHAR 0429
ENCODING 1065
SWIDTH 720 0
DWIDTH 16 0
BBX 17 18 2 -3
BITMAP
380780
78E700
78C700
78C700
79CF00
79CF00
F9CE00
F9DE00
FB9E00
F39E00
FF9C00
FFFC00
FFFC00
FFFC00
FFF800
003800
007800
007800
ENDCHAR
STARTCHAR 042A
ENCODING 1066
SWIDTH 630 0
DWIDTH 14 0
BBX 12 15 3 0
BITMAP
FC00
7C00
FC00
FC00
1C00
1FE0
1FE0
1FF0
3CF0
3C70
3C70
38E0
3FE0
7FC0
7E00
ENDCHAR
STARTCHAR 042B
ENCODING 1067
SWIDTH 630 0
DWIDTH 14 0
BBX 16 15 1 0
BITMAP
3C07
3C07
3C07
3C07
3C0F
3F8F
7FCE
7FCE
78EE
78EE
79DE
7BDC
7FDC
FF1C
701C
ENDCHAR
STARTCHAR 042C
ENCODING 1068
SWIDTH 495 0
DWIDTH 11 0
BBX 11 15 1 0
BITMAP
3C00
3C00
3C00
3C00
3C00
3F80
7FC0
7FC0
78E0
78E0
79E0
79C0
7FC0
FF80
FF00
ENDCHAR
STARTCHAR 042D
ENCODING 1069
SWIDTH 495 0
DWIDTH 11 0
BBX 12 15 1 0
BITMAP
0FC0
1FE0
3FE0
3FE0
3FF0
20F0
1FF0
1FE0
1FE0
01E0
7FC0
FFC0
FF80
FF00
3800
ENDCHAR
STARTCHAR 042E
ENCODING 1070
SWIDTH 675 0
DWIDTH 15 0
BBX 16 16 1 0
BITMAP
0018
0E3C
0E7E
1E7E
1EFE
1EFF
3EEF
3FCF
3FCE
7FCE
7FDE
7DFC
FDFC
F9FC
F8F8
0070
ENDCHAR
STARTCHAR 042F
ENCODING 1071
SWIDTH 495 0
DWIDTH 11 0
BBX 13 16 1 -1
BITMAP
07F8
0FF8
1DF0
39F0
31F0
39F0
3FF0
3FF0
1FF0
1FF0
3BE0
3BE0
73E0
F3E0
E3C0
6000
ENDCHAR
STARTCHAR 0430
ENCODING 1072
SWIDTH 630 0
DWIDTH 14 0
BBX 14 16 0 -1
BITMAP
0070
0070
00F0
00F0
01F0
01F0
03F0
07F0
06F0
0CF8
1FF8
1FF8
3CF8
78F8
78FC
8000
ENDCHAR
STARTCHAR 0431
ENCODING 1073
SWIDTH 495 0
DWIDTH 11 0
BBX 11 15 2 0
BITMAP
3FC0
3FE0
3FE0
7FE0
7800
7800
7F80
7FC0
FFC0
F1C0
F380
F380
FF00
FE00
F800
ENDCHAR
STARTCHAR 0432
ENCODING 1074
SWIDTH 495 0
DWIDTH 11 0
BBX 10 15 2 0
BITMAP
3F80
7F80
7FC0
7BC0
7980
7B80
7F00
7F80
7FC0
79C0
7BC0
FFC0
FF80
FF00
F800
ENDCHAR
STARTCHAR 0433
ENCODING 1075
SWIDTH 495 0
DWIDTH 11 0
BBX 13 16 1 0
BITMAP
0070
1FF8
3FF8
3FF8
3C00
3C00
7800
7800
7800
7800
7000
F000
F000
F000
F000
F000
ENDCHAR
STARTCHAR 0434
ENCODING 1076
SWIDTH 585 0
DWIDTH 13 0
BBX 13 18 1 -3
BITMAP
00E0
01E0
01E0
03E0
07E0
07E0
0FE0
0EE0
1EE0
3CE0
3CE0
79E0
FFF8
FFF0
FFF0
E0E0
E0E0
E1C0
ENDCHAR
STARTCHAR 0435
ENCODING 1077
SWIDTH 495 0
DWIDTH 11 0
BBX 9 16 3 0
BITMAP
0800
7F80
FF00
7F00
7E00
F000
F000
FE00
FC00
F000
FF00
FF00
FF00
FF00
FE00
E000
ENDCHAR
STARTCHAR 0436
ENCODING 1078
SWIDTH 675 0
DWIDTH 15 0
BBX 17 15 1 0
BITMAP
1CE380
3FE700
3FEF00
3FEF00
1FFE00
1FFC00
1FFC00
1FF800
1FFC00
3FFC00
7FFE00
7BFE00
FBDE00
F39C00
E38000
ENDCHAR
STARTCHAR 0437
ENCODING 1079
SWIDTH 450 0
DWIDTH 10 0
BBX 10 15 2 1
BITMAP
3F80
7FC0
7FC0
43C0
03C0
03C0
3F80
3F80
2780
03C0
07C0
FF80
FF80
FF00
FC00
ENDCHAR
STARTCHAR 0438
ENCODING 1080
SWIDTH 540 0
DWIDTH 12 0
BBX 12 15 2 0
BITMAP
38F0
79F0
79F0
79F0
79E0
7BE0
7FE0
77E0
7FE0
FDE0
FDE0
F9E0
F3C0
F3C0
E1C0
ENDCHAR
STARTCHAR 0439
ENCODING 1081
SWIDTH 540 0
DWIDTH 12 0
BBX 12 19 2 0
BITMAP
0C60
0FC0
0780
0000
38F0
79F0
79F0
79F0
79E0
7BE0
7FE0
77E0
7FE0
FDE0
FDE0
F9E0
F3C0
F3C0
E1C0
ENDCHAR
STARTCHAR 043A
ENCODING 1082
SWIDTH 540 0
DWIDTH 12 0
BBX 14 15 1 0
BITMAP
3F90
1F3C
3F78
3FF0
3FE0
3FC0
7F80
7F00
7F80
7F80
FFC0
FDE0
F9E0
FCE0
F880
ENDCHAR
STARTCHAR 043B
ENCODING 1083
SWIDTH 585 0
DWIDTH 13 0
BBX 12 15 1 0
BITMAP
0700
0700
0F80
0F80
0FC0
1FC0
1FC0
3DE0
3DE0
79E0
79F0
F9F0
F9F0
F1F0
E000
ENDCHAR
STARTCHAR 043C
ENCODING 1084
SWIDTH 630 0
DWIDTH 14 0
BBX 14 15 1 0
BITMAP
0C04
0C0C
0E1C
1E3C
1F3C
1F7C
3FFC
3FFC
3FFC
7D7C
787C
78F8
F0F8
F0F8
E0E0
ENDCHAR
STARTCHAR 043D
ENCODING 1085
SWIDTH 540 0
DWIDTH 12 0
BBX 14 15 1 0
BITMAP
0F84
1F3C
0F3C
1F78
1E78
1E78
3FF8
3FF0
3FF0
7FF0
7DF0
7DE0
F9E0
F9E0
7B00
ENDCHAR
STARTCHAR 043E
ENCODING 1086
SWIDTH 495 0
DWIDTH 11 0
BBX 11 16 2 0
BITMAP
0400
0F00
1F80
1FC0
3FE0
7FE0
79E0
F1E0
F1E0
F3E0
FFE0
FFC0
FFC0
FF80
7F80
3E00
ENDCHAR
STARTCHAR 043F
ENCODING 1087
SWIDTH 540 0
DWIDTH 12 0
BBX 14 15 1 0
BITMAP
1FFC
3FFC
3FF8
3FF8
3C78
3878
7870
78F0
78F0
78F0
78F0
78E0
F1E0
F1E0
F1E0
ENDCHAR
STARTCHAR 0440
ENCODING 1088
SWIDTH 495 0
DWIDTH 11 0
BBX 13 15 0 0
BITMAP
0FE0
0FF0
0FF8
0E78
1E38
1E78
1EF0
3FF0
3FE0
3E00
7E00
7E00
7C00
7C00
FC00
ENDCHAR
STARTCHAR 0441
ENCODING 1089
SWIDTH 450 0
DWIDTH 10 0
BBX 11 15 2 0
BITMAP
07C0
1FE0
3FE0
7FE0
7E00
F800
F800
F000
F9C0
FFC0
FF80
FF80
FF80
7F00
1C00
ENDCHAR
STARTCHAR 0442
ENCODING 1090
SWIDTH 540 0
DWIDTH 12 0
BBX 12 15 3 0
BITMAP
7FF0
FFF0
FFF0
FFF0
FF80
0E00
0E00
1E00
1E00
1C00
1C00
1C00
3C00
3800
3800
ENDCHAR
STARTCHAR 0443
ENCODING 1091
SWIDTH 495 0
DWIDTH 11 0
BBX 13 15 1 0
BITMAP
3E78
1EF0
1EF0
1EE0
1FE0
0FE0
0FC0
0FC0
0FC0
0F80
7F80
7F80
FF00
FE00
F000
ENDCHAR
STARTCHAR 0444
ENCODING 1092
SWIDTH 630 0
DWIDTH 14 0
BBX 14 17 2 0
BITMAP
01E0
05E0
3FFC
3FFC
7FFC
7FFC
FBBC
F7BC
F7BC
F73C
FF78
FFF0
FFF0
FFE0
FFC0
1C00
3C00
ENDCHAR
STARTCHAR 0445
ENCODING 1093
SWIDTH 540 0
DWIDTH 12 0
BBX 15 15 1 0
BITMAP
1C1E
3E3C
3E78
3E78
3EF0
1FF0
0FE0
0FC0
0FC0
1FC0
1FC0
3DC0
79E0
78C0
F000
ENDCHAR
STARTCHAR 0446
ENCODING 1094
SWIDTH 495 0
DWIDTH 11 0
BBX 13 18 1 -3
BITMAP
1C18
1C38
3C78
3C78
3C78
3870
3870
78F0
78F0
70F0
F0E0
FFE0
FFE0
FFE0
13C0
01C0
01C0
03C0
ENDCHAR
STARTCHAR 0447
ENCODING 1095
SWIDTH 495 0
DWIDTH 11 0
BBX 11 15 2 0
BITMAP
39E0
79E0
79E0
71E0
71E0
71C0
F1C0
FFC0
7FC0
7FC0
1BC0
03C0
0380
0380
0380
ENDCHAR
STARTCHAR 0448
ENCODING 1096
SWIDTH 720 0
DWIDTH 16 0
BBX 17 15 2 0
BITMAP
38E780
78E780
79E700
79E700
71CF00
71CF00
73CF00
F3CE00
F3CE00
F39E00
FFFE00
FFFC00
FFFC00
FFFC00
FFFC00
ENDCHAR
STARTCHAR 0449
ENCODING 1097
SWIDTH 720 0
DWIDTH 16 0
BBX 17 18 2 -3
BITMAP
380780
78E700
78C700
78C700
79CF00
79CF00
F9CE00
F9DE00
FB9E00
F39E00
FF9C00
FFFC00
FFFC00
FFFC00
FFF800
003800
007800
007800
ENDCHAR
STARTCHAR 044A
ENCODING 1098
SWIDTH 630 0
DWIDTH 14 0
BBX 12 15 3 0
BITMAP
FC00
7C00
FC00
FC00
1C00
1FE0
1FE0
1FF0
3CF0
3C70
3C70
38E0
3FE0
7FC0
7E00
ENDCHAR
STARTCHAR 044B
ENCODING 1099
SWIDTH 630 0
DWIDTH 14 0
BBX 16 15 1 0
BITMAP
3C07
3C07
3C07
3C07
3C0F
3F8F
7FCE
7FCE
78EE
78EE
79DE
7BDC
7FDC
FF1C
701C
ENDCHAR
STARTCHAR 044C
ENCODING 1100
SWIDTH 495 0
DWIDTH 11 0
BBX 11 15 1 0
BITMAP
3C00
3C00
3C00
3C00
3C00
3F80
7FC0
7FC0
78E0
78E0
79E0
79C0
7FC0
FF80
FF00
ENDCHAR
STARTCHAR 044D
ENCODING 1101
SWIDTH 495 0
DWIDTH 11 0
BBX 12 15 1 0
BITMAP
0FC0
1FE0
3FE0
3FE0
3FF0
20F0
1FF0
1FE0
1FE0
01E0
7FC0
FFC0
FF80
FF00
3800
ENDCHAR
STARTCHAR 044E
ENCODING 1102
SWIDTH 675 0
DWIDTH 15 0
BBX 16 16 1 0
BITMAP
0018
0E3C
0E7E
1E7E
1EFE
1EFF
3EEF
3FCF
3FCE
7FCE
7FDE
7DFC
FDFC
F9FC
F8F8
0070
ENDCHAR
STARTCHAR 044F
ENCODING 1103
SWIDTH 495 0
DWIDTH 11 0
BBX 13 16 1 -1
BITMAP
07F8
0FF8
1DF0
39F0
31F0
39F0
3FF0
3FF0
1FF0
1FF0
3BE0
3BE0
73E0
F3E0
E3C0
6000
ENDCHAR
STARTCHAR 0450
ENCODING 1104
SWIDTH 495 0
DWIDTH 11 0
BBX 9 19 3 0
BITMAP
7800
3800
1C00
0800
7F80
FF00
7F00
7E00
F000
F000
FE00
FC00
F000
FF00
FF00
FF00
FF00
FE00
E000
ENDCHAR
STARTCHAR 0451
ENCODING 1105
SWIDTH 495 0
DWIDTH 11 0
BBX 9 18 3 0
BITMAP
3600
6600
0800
7F80
FF00
7F00
7E00
F000
F000
FE00
FC00
F000
FF00
FF00
FF00
FF00
FE00
E000
ENDCHAR
STARTCHAR 0452
ENCODING 1106
SWIDTH 675 0
DWIDTH 15 0
BBX 13 18 3 -3
BITMAP
7FF0
FFF0
FFF0
0F00
0F00
0FF0
1FF8
1FF8
1E78
1C78
1C78
1C70
3C70
3C70
38F0
01E0
03E0
0300
ENDCHAR
STARTCHAR 0453
ENCODING 1107
SWIDTH 495 0
DWIDTH 11 0
BBX 13 19 1 0
BITMAP
00E0
01C0
0180
0070
1FF8
3FF8
3FF8
3C00
3C00
7800
7800
7800
7800
7000
F000
F000
F000
F000
F000
ENDCHAR
STARTCHAR 0454
ENCODING 1108
SWIDTH 495 0
DWIDTH 11 0
BBX 11 15 2 0
BITMAP
07C0
1FE0
3FE0
3FE0
7FE0
7840
FF80
FF00
FF00
E000
FF80
FF80
FF80
7F80
1E00
ENDCHAR
STARTCHAR 0455
ENCODING 1109
SWIDTH 495 0
DWIDTH 11 0
BBX 13 15 1 0
BITMAP
07F8
0FF0
1FF0
1FE0
3FC0
3CC0
3E00
1F80
0FC0
03C0
43C0
FFC0
FFC0
FF80
7E00
ENDCHAR
STARTCHAR 0456
ENCODING 1110
SWIDTH 315 0
DWIDTH 7 0
BBX 9 15 1 0
BITMAP
0F80
0F80
0F00
1F00
1F00
1E00
3E00
3E00
3E00
3C00
7C00
7C00
7800
F800
E000
ENDCHAR
STARTCHAR 0457
ENCODING 1111
SWIDTH 315 0
DWIDTH 7 0
BBX 10 18 1 0
BITMAP
06C0
0EC0
0000
0F80
0F80
0F00
1F00
1F00
1E00
3E00
3E00
3E00
3C00
7C00
7C00
7800
F800
E000
ENDCHAR
STARTCHAR 0458
ENCODING 1112
SWIDTH 450 0
DWIDTH 10 0
BBX 11 15 1 0
BITMAP
01E0
03E0
03E0
03E0
07E0
07E0
07E0
07C0
07C0
07C0
F7C0
F780
FF00
7E00
3C00
ENDCHAR
STARTCHAR 0459
ENCODING 1113
SWIDTH 720 0
DWIDTH 16 0
BBX 16 15 1 0
BITMAP
03F8
03F8
07F8
07F0
0FF0
0FFC
1EFE
1EFF
3CE7
3DE7
79C7
79CF
FBFE
F3FE
E3F8
ENDCHAR
STARTCHAR 045A
ENCODING 1114
SWIDTH 720 0
DWIDTH 16 0
BBX 16 15 1 0
BITMAP
0F38
1E78
1E78
1E70
1EF0
3EFC
3FFE
3FFF
3FE7
7FE7
79C7
79CF
FBFE
FBFE
73F8
ENDCHAR
STARTCHAR 045B
ENCODING 1115
SWIDTH 675 0
DWIDTH 15 0
BBX 13 15 3 0
BITMAP
7FF0
FFF0
FFF0
0F00
0F00
0FF0
1FF8
1FF8
1E78
1C78
1C78
1C70
3C70
3CF0
38F0
ENDCHAR
STARTCHAR 045C
ENCODING 1116
SWIDTH 540 0
DWIDTH 12 0
BBX 14 19 1 0
BITMAP
001C
0038
0060
0000
3F90
1F3C
3F78
3FF0
3FE0
3FC0
7F80
7F00
7F80
7F80
FFC0
FDE0
F9E0
FCE0
F880
ENDCHAR
STARTCHAR 045D
ENCODING 1117
SWIDTH 540 0
DWIDTH 12 0
BBX 12 19 2 0
BITMAP
0E00
0600
0700
0000
38F0
79F0
79F0
79F0
79E0
7BE0
7FE0
77E0
7FE0
FDE0
FDE0
F9E0
F3C0
F3C0
E1C0
ENDCHAR
STARTCHAR 045E
ENCODING 1118
SWIDTH 495 0
DWIDTH 11 0
BBX 13 19 1 0
BITMAP
0630
07E0
03C0
0000
3E78
1EF0
1EF0
1EE0
1FE0
0FE0
0FC0
0FC0
0FC0
0F80
7F80
7F80
FF00
FE00
F000
ENDCHAR
STARTCHAR 045F
ENCODING 1119
SWIDTH 495 0
DWIDTH 11 0
BBX 13 18 1 -3
BITMAP
1838
3C78
3C78
3C78
3C70
78F0
78F0
78F0
70F0
70F0
F0E0
FFE0
FFE0
FFE0
FE00
1C00
1C00
1C00
ENDCHAR
STARTCHAR 0462
ENCODING 1122
SWIDTH 630 0
DWIDTH 14 0
BBX 12 15 3 0
BITMAP
0E00
FFE0
FFE0
FFE0
1E00
1FC0
3FE0
3FE0
3C70
3C70
3CF0
3CE0
3FE0
7FC0
7F80
ENDCHAR
STARTCHAR 0463
ENCODING 1123
SWIDTH 630 0
DWIDTH 14 0
BBX 12 15 3 0
BITMAP
0E00
FFE0
FFE0
FFE0
1E00
1FC0
3FE0
3FE0
3C70
3C70
3CF0
3CE0
3FE0
7FC0
7F80
ENDCHAR
STARTCHAR 0474
ENCODING 1140
SWIDTH 540 0
DWIDTH 12 0
BBX 12 15 3 0
BITMAP
6070
F0F0
F1F0
F3F0
F380
F780
7700
7F00
7E00
7E00
7C00
7C00
7800
7800
7000
ENDCHAR
STARTCHAR 0475
ENCODING 1141
SWIDTH 540 0
DWIDTH 12 0
BBX 12 15 3 0
BITMAP
6070
F0F0
F1F0
F3F0
F380
F780
7700
7F00
7E00
7E00
7C00
7C00
7800
7800
7000
ENDCHAR
STARTCHAR 0476
ENCODING 1142
SWIDTH 540 0
DWIDTH 12 0
BBX 12 19 3 0
BITMAP
7F80
3B80
1980
0000
6070
F0F0
F1F0
F3F0
F380
F780
7700
7F00
7E00
7E00
7C00
7C00
7800
7800
7000
ENDCHAR
STARTCHAR 0477
ENCODING 1143
SWIDTH 540 0
DWIDTH 12 0
BBX 12 19 3 0
BITMAP
7F80
3B80
1980
0000
6070
F0F0
F1F0
F3F0
F380
F780
7700
7F00
7E00
7E00
7C00
7C00
7800
7800
7000
ENDCHAR
STARTCHAR 0480
ENCODING 1152
SWIDTH 495 0
DWIDTH 11 0
BBX 13 19 1 -3
BITMAP
0060
07F8
0FF8
1FF0
3FF0
3C00
7800
7800
7000
7000
7000
F000
7FE0
7FC0
7FC0
1FC0
03C0
03C0
0380
ENDCHAR
STARTCHAR 0481
ENCODING 1153
SWIDTH 495 0
DWIDTH 11 0
BBX 13 19 1 -3
BITMAP
0060
07F8
0FF8
1FF0
3FF0
3C00
7800
7800
7000
7000
7000
F000
7FE0
7FC0
7FC0
1FC0
03C0
03C0
0380
ENDCHAR
STARTCHAR 048C
ENCODING 1164
SWIDTH 540 0
DWIDTH 12 0
BBX 11 15 2 0
BITMAP
1E00
7F00
7F00
7F00
3C00
3F80
3FC0
3FE0
78E0
78E0
79E0
79E0
7FC0
7F80
FF00
ENDCHAR
STARTCHAR 048D
ENCODING 1165
SWIDTH 540 0
DWIDTH 12 0
BBX 11 15 2 0
BITMAP
1E00
7F00
7F00
7F00
3C00
3F80
3FC0
3FE0
78E0
78E0
79E0
79E0
7FC0
7F80
FF00
ENDCHAR
STARTCHAR 0490
ENCODING 1168
SWIDTH 495 0
DWIDTH 11 0
BBX 14 19 1 0
BITMAP
003C
003C
0038
0078
1FF8
3FF8
3FF8
3C00
3C00
7800
7800
7800
7800
7000
F000
F000
F000
F000
F000
ENDCHAR
STARTCHAR 0491
ENCODING 1169
SWIDTH 495 0
DWIDTH 11 0
BBX 14 19 1 0
BITMAP
003C
003C
0038
0078
1FF8
3FF8
3FF8
3C00
3C00
7800
7800
7800
7800
7000
F000
F000
F000
F000
F000
ENDCHAR
STARTCHAR 0492
ENCODING 1170
SWIDTH 540 0
DWIDTH 12 0
BBX 13 16 2 0
BITMAP
0070
1FF8
3FF8
3FF8
3C00
3C00
7800
7800
FF00
FF00
FF00
F000
F000
F000
F000
F000
ENDCHAR
STARTCHAR 0493
ENCODING 1171
SWIDTH 540 0
DWIDTH 12 0
BBX 13 16 2 0
BITMAP
0070
1FF8
3FF8
3FF8
3C00
3C00
7800
7800
FF00
FF00
FF00
F000
F000
F000
F000
F000
ENDCHAR
STARTCHAR 0496
ENCODING 1174
SWIDTH 675 0
DWIDTH 15 0
BBX 16 18 1 -3
BITMAP
1CE7
3DEF
3DCE
3FDE
1FDE
1FFC
1FF8
1FF8
1FF8
3FFC
7FBC
7BBE
FBBE
F3BE
E30E
001C
001C
0018
ENDCHAR
STARTCHAR 0497
ENCODING 1175
SWIDTH 675 0
DWIDTH 15 0
BBX 16 18 1 -3
BITMAP
1CE7
3DEF
3DCE
3FDE
1FDE
1FFC
1FF8
1FF8
1FF8
3FFC
7FBC
7BBE
FBBE
F3BE
E30E
001C
001C
0018
ENDCHAR
STARTCHAR 0498
ENCODING 1176
SWIDTH 450 0
DWIDTH 10 0
BBX 10 19 2 -3
BITMAP
3F80
7FC0
7FC0
43C0
03C0
03C0
3F80
3F80
2780
03C0
07C0
FF80
FF80
FF00
FC00
1C00
0E00
7E00
3800
ENDCHAR
STARTCHAR 0499
ENCODING 1177
SWIDTH 450 0
DWIDTH 10 0
BBX 10 19 2 -3
BITMAP
3F80
7FC0
7FC0
43C0
03C0
03C0
3F80
3F80
2780
03C0
07C0
FF80
FF80
FF00
FC00
1C00
0E00
7E00
3800
ENDCHAR
STARTCHAR 049A
ENCODING 1178
SWIDTH 540 0
DWIDTH 12 0
BBX 13 18 1 -3
BITMAP
3F30
1F78
3F70
3FE0
3FE0
3FC0
7F80
7F00
7F00
7F80
FFC0
FFC0
F9F0
F9E0
F9E0
00E0
01C0
01C0
ENDCHAR
STARTCHAR 049B
ENCODING 1179
SWIDTH 540 0
DWIDTH 12 0
BBX 13 18 1 -3
BITMAP
3F30
1F78
3F70
3FE0
3FE0
3FC0
7F80
7F00
7F00
7F80
FFC0
FFC0
F9F0
F9E0
F9E0
00E0
01C0
01C0
ENDCHAR
STARTCHAR 04A0
ENCODING 1184
SWIDTH 630 0
DWIDTH 14 0
BBX 14 15 2 0
BITMAP
7F98
7FBC
7FBC
7F78
1FF0
3FE0
3FC0
3F80
3F80
7FC0
7FE0
7FE0
7CF0
7CF0
FCC0
ENDCHAR
STARTCHAR 04A1
ENCODING 1185
SWIDTH 630 0
DWIDTH 14 0
BBX 14 15 2 0
BITMAP
7F98
7FBC
7FBC
7F78
1FF0
3FE0
3FC0
3F80
3F80
7FC0
7FE0
7FE0
7CF0
7CF0
FCC0
ENDCHAR
STARTCHAR 04A2
ENCODING 1186
SWIDTH 540 0
DWIDTH 12 0
BBX 14 18 1 -3
BITMAP
0F04
1F3C
1F38
1E78
1E78
1EF0
3FF0
3FF0
3FF0
7FF0
7DE0
79E0
F9F0
F9E0
73E0
00E0
00C0
01C0
ENDCHAR
STARTCHAR 04A3
ENCODING 1187
SWIDTH 540 0
DWIDTH 12 0
BBX 14 18 1 -3
BITMAP
0F04
1F3C
1F38
1E78
1E78
1EF0
3FF0
3FF0
3FF0
7FF0
7DE0
79E0
F9F0
F9E0
73E0
00E0
00C0
01C0
ENDCHAR
STARTCHAR 04A4
ENCODING 1188
SWIDTH 630 0
DWIDTH 14 0
BBX 16 15 1 0
BITMAP
0FBF
1F3F
0F3F
1F7F
1E78
1E78
3FF8
3FF0
3FF0
7FF0
7DF0
7DE0
F9E0
F9E0
7B00
ENDCHAR
STARTCHAR 04A5
ENCODING 1189
SWIDTH 630 0
DWIDTH 14 0
BBX 16 15 1 0
BITMAP
0FBF
1F3F
0F3F
1F7F
1E78
1E78
3FF8
3FF0
3FF0
7FF0
7DF0
7DE0
F9E0
F9E0
7B00
ENDCHAR
STARTCHAR 04AA
ENCODING 1194
SWIDTH 450 0
DWIDTH 10 0
BBX 11 19 2 -4
BITMAP
07C0
1FE0
3FE0
7FE0
7E00
F800
F800
F000
F9C0
FFC0
FF80
FF80
FF80
7F00
3C00
3800
1C00
FC00
7000
ENDCHAR
STARTCHAR 04AB
ENCODING 1195
SWIDTH 450 0
DWIDTH 10 0
BBX 11 19 2 -4
BITMAP
07C0
1FE0
3FE0
7FE0
7E00
F800
F800
F000
F9C0
FFC0
FF80
FF80
FF80
7F00
3C00
3800
1C00
FC00
7000
ENDCHAR
STARTCHAR 04AC
ENCODING 1196
SWIDTH 540 0
DWIDTH 12 0
BBX 12 18 3 -3
BITMAP
7FF0
FFF0
FFF0
FFF0
FF80
0E00
0E00
1E00
1E00
1C00
1C00
1C00
3F00
3E00
3E00
0E00
1C00
1C00
ENDCHAR
STARTCHAR 04AD
ENCODING 1197
SWIDTH 540 0
DWIDTH 12 0
BBX 12 18 3 -3
BITMAP
7FF0
FFF0
FFF0
FFF0
FF80
0E00
0E00
1E00
1E00
1C00
1C00
1C00
3F00
3E00
3E00
0E00
1C00
1C00
ENDCHAR
STARTCHAR 04AE
ENCODING 1198
SWIDTH 585 0
DWIDTH 13 0
BBX 13 15 3 0
BITMAP
1078
F078
F8F0
78E0
79C0
7BC0
3F80
3F00
3F00
3E00
1C00
1C00
1C00
3C00
3C00
ENDCHAR
STARTCHAR 04AF
ENCODING 1199
SWIDTH 585 0
DWIDTH 13 0
BBX 13 15 3 0
BITMAP
1078
F078
F8F0
78E0
79C0
7BC0
3F80
3F00
3F00
3E00
1C00
1C00
1C00
3C00
3C00
ENDCHAR
STARTCHAR 04B0
ENCODING 1200
SWIDTH 585 0
DWIDTH 13 0
BBX 14 15 2 0
BITMAP
083C
783C
7C78
3C70
3CE0
3DE0
1FC0
1F80
1F80
1F00
7FE0
FFC0
FFC0
1E00
1E00
ENDCHAR
STARTCHAR 04B1
ENCODING 1201
SWIDTH 585 0
DWIDTH 13 0
BBX 14 15 2 0
BITMAP
083C
783C
7C78
3C70
3CE0
3DE0
1FC0
1F80
1F80
1F00
7FE0
FFC0
FFC0
1E00
1E00
ENDCHAR
STARTCHAR 04B2
ENCODING 1202
SWIDTH 540 0
DWIDTH 12 0
BBX 14 18 1 -3
BITMAP
1C1C
3C3C
3E78
3EF0
3EF0
1FE0
0FC0
0FC0
0F80
1FC0
1FC0
3FC0
79F0
79F0
E0E0
00E0
00E0
00C0
ENDCHAR
STARTCHAR 04B3
ENCODING 1203
SWIDTH 540 0
DWIDTH 12 0
BBX 14 18 1 -3
BITMAP
1C1C
3C3C
3E78
3EF0
3EF0
1FE0
0FC0
0FC0
0F80
1FC0
1FC0
3FC0
79F0
79F0
E0E0
00E0
00E0
00C0
ENDCHAR
STARTCHAR 04B6
ENCODING 1206
SWIDTH 495 0
DWIDTH 11 0
BBX 11 18 2 -3
BITMAP
39E0
79E0
71E0
71C0
71C0
71C0
F3C0
FFC0
7FC0
7F80
1B80
0380
07C0
07C0
0780
0380
0380
0700
ENDCHAR
STARTCHAR 04B7
ENCODING 1207
SWIDTH 495 0
DWIDTH 11 0
BBX 11 18 2 -3
BITMAP
39E0
79E0
71E0
71C0
71C0
71C0
F3C0
FFC0
7FC0
7F80
1B80
0380
07C0
07C0
0780
0380
0380
0700
ENDCHAR
STARTCHAR 04B8
ENCODING 1208
SWIDTH 495 0
DWIDTH 11 0
BBX 11 15 2 0
BITMAP
39E0
79E0
79E0
71E0
77E0
77C0
FDC0
FFC0
7FC0
7FC0
1FC0
1BC0
0380
0380
0380
ENDCHAR
STARTCHAR 04B9
ENCODING 1209
SWIDTH 495 0
DWIDTH 11 0
BBX 11 15 2 0
BITMAP
39E0
79E0
79E0
71E0
77E0
77C0
FDC0
FFC0
7FC0
7FC0
1FC0
1BC0
0380
0380
0380
ENDCHAR
STARTCHAR 04BA
ENCODING 1210
SWIDTH 495 0
DWIDTH 11 0
BBX 10 15 2 0
BITMAP
3800
3800
7800
7800
7B00
7FC0
7FC0
7FC0
73C0
F3C0
F3C0
F3C0
F3C0
E3C0
E300
ENDCHAR
STARTCHAR 04BB
ENCODING 1211
SWIDTH 495 0
DWIDTH 11 0
BBX 10 15 2 0
BITMAP
3800
3800
7800
7800
7B00
7FC0
7FC0
7FC0
73C0
F3C0
F3C0
F3C0
F3C0
E3C0
E300
ENDCHAR
STARTCHAR 04BC
ENCODING 1212
SWIDTH 540 0
DWIDTH 12 0
BBX 12 15 2 0
BITMAP
07E0
0FF0
1FF0
1FF0
3EF0
3CF0
FFF0
FFF0
FFE0
3800
3800
3FE0
3FE0
1FC0
0F00
ENDCHAR
STARTCHAR 04BD
ENCODING 1213
SWIDTH 540 0
DWIDTH 12 0
BBX 12 15 2 0
BITMAP
07E0
0FF0
1FF0
1FF0
3EF0
3CF0
FFF0
FFF0
FFE0
3800
3800
3FE0
3FE0
1FC0
0F00
ENDCHAR
STARTCHAR 04BE
ENCODING 1214
SWIDTH 540 0
DWIDTH 12 0
BBX 12 18 2 -3
BITMAP
07E0
0FF0
1FF0
1FF0
3EF0
3CF0
FFF0
FFF0
FFE0
3800
3800
3FE0
3FE0
1FC0
1F00
1E00
1C00
1C00
ENDCHAR
STARTCHAR 04BF
ENCODING 1215
SWIDTH 540 0
DWIDTH 12 0
BBX 12 18 2 -3
BITMAP
07E0
0FF0
1FF0
1FF0
3EF0
3CF0
FFF0
FFF0
FFE0
3800
3800
3FE0
3FE0
1FC0
1F00
1E00
1C00
1C00
ENDCHAR
STARTCHAR 04C0
ENCODING 1216
SWIDTH 180 0
DWIDTH 4 0
BBX 6 15 1 0
BITMAP
1C
3C
38
38
38
78
78
70
70
70
F0
E0
E0
E0
E0
ENDCHAR
STARTCHAR 04C1
ENCODING 1217
SWIDTH 675 0
DWIDTH 15 0
BBX 17 19 1 0
BITMAP
031800
01F000
01E000
000000
1CE380
3FE700
3FEF00
3FEF00
1FFE00
1FFC00
1FFC00
1FF800
1FFC00
3FFC00
7FFE00
7BFE00
FBDE00
F39C00
E38000
ENDCHAR
STARTCHAR 04C2
ENCODING 1218
SWIDTH 675 0
DWIDTH 15 0
BBX 17 19 1 0
BITMAP
031800
01F000
01E000
000000
1CE380
3FE700
3FEF00
3FEF00
1FFE00
1FFC00
1FFC00
1FF800
1FFC00
3FFC00
7FFE00
7BFE00
FBDE00
F39C00
E38000
ENDCHAR
STARTCHAR 04CB
ENCODING 1227
SWIDTH 495 0
DWIDTH 11 0
BBX 11 18 2 -3
BITMAP
39E0
79E0
79E0
71E0
71E0
71C0
F1C0
FFC0
7FC0
7FC0
1BC0
03C0
0780
0F80
0F80
0E00
0E00
0E00
ENDCHAR
STARTCHAR 04CC
ENCODING 1228
SWIDTH 495 0
DWIDTH 11 0
BBX 11 18 2 -3
BITMAP
39E0
79E0
79E0
71E0
71E0
71C0
F1C0
FFC0
7FC0
7FC0
1BC0
03C0
0780
0F80
0F80
0E00
0E00
0E00
ENDCHAR
STARTCHAR 04CF
ENCODING 1231
SWIDTH 180 0
DWIDTH 4 0
BBX 6 15 1 0
BITMAP
1C
3C
38
38
38
78
78
70
70
70
F0
E0
E0
E0
E0
ENDCHAR
STARTCHAR 04D0
ENCODING 1232
SWIDTH 630 0
DWIDTH 14 0
BBX 15 20 0 -1
BITMAP
00CE
00FC
0078
0000
0070
0070
00F0
00F0
01F0
01F0
03F0
07F0
06F0
0CF8
1FF8
1FF8
3CF8
78F8
78FC
8000
ENDCHAR
STARTCHAR 04D1
ENCODING 1233
SWIDTH 630 0
DWIDTH 14 0
BBX 15 20 0 -1
BITMAP
00CE
00FC
0078
0000
0070
0070
00F0
00F0
01F0
01F0
03F0
07F0
06F0
0CF8
1FF8
1FF8
3CF8
78F8
78FC
8000
ENDCHAR
STARTCHAR 04D2
ENCODING 1234
SWIDTH 630 0
DWIDTH 14 0
BBX 14 19 0 -1
BITMAP
006C
00CC
0000
0070
0070
00F0
00F0
01F0
01F0
03F0
07F0
06F0
0CF8
1FF8
1FF8
3CF8
78F8
78FC
8000
ENDCHAR
STARTCHAR 04D3
ENCODING 1235
SWIDTH 630 0
DWIDTH 14 0
BBX 14 19 0 -1
BITMAP
006C
00CC
0000
0070
0070
00F0
00F0
01F0
01F0
03F0
07F0
06F0
0CF8
1FF8
1FF8
3CF8
78F8
78FC
8000
ENDCHAR
STARTCHAR 04D4
ENCODING 1236
SWIDTH 720 0
DWIDTH 16 0
BBX 16 15 1 0
BITMAP
00FF
00FE
01FE
01FE
03F0
07F0
07FC
0FFC
0DE0
19FE
3FFE
3FFE
79FE
F1FE
F1E0
ENDCHAR
STARTCHAR 04D5
ENCODING 1237
SWIDTH 720 0
DWIDTH 16 0
BBX 16 15 1 0
BITMAP
00FF
00FE
01FE
01FE
03F0
07F0
07FC
0FFC
0DE0
19FE
3FFE
3FFE
79FE
F1FE
F1E0
ENDCHAR
STARTCHAR 04D6
ENCODING 1238
SWIDTH 495 0
DWIDTH 11 0
BBX 9 20 3 0
BITMAP
0100
6300
3E00
3C00
0800
7F80
FF00
7F00
7E00
F000
F000
FE00
FC00
F000
FF00
FF00
FF00
FF00
FE00
E000
ENDCHAR
STARTCHAR 04D7
ENCODING 1239
SWIDTH 495 0
DWIDTH 11 0
BBX 9 20 3 0
BITMAP
0100
6300
3E00
3C00
0800
7F80
FF00
7F00
7E00
F000
F000
FE00
FC00
F000
FF00
FF00
FF00
FF00
FE00
E000
ENDCHAR
STARTCHAR 04D8
ENCODING 1240
SWIDTH 450 0
DWIDTH 10 0
BBX 10 15 2 0
BITMAP
1F80
3F80
7FC0
23C0
01C0
01C0
FFC0
FFC0
F3C0
F3C0
FF80
FF80
FF80
7F00
3C00
ENDCHAR
STARTCHAR 04D9
ENCODING 1241
SWIDTH 450 0
DWIDTH 10 0
BBX 10 15 2 0
BITMAP
1F80
3F80
7FC0
23C0
01C0
01C0
FFC0
FFC0
F3C0
F3C0
FF80
FF80
FF80
7F00
3C00
ENDCHAR
STARTCHAR 04DA
ENCODING 1242
SWIDTH 450 0
DWIDTH 10 0
BBX 10 18 2 0
BITMAP
1980
1980
0000
1F80
3F80
7FC0
23C0
01C0
01C0
FFC0
FFC0
F3C0
F3C0
FF80
FF80
FF80
7F00
3C00
ENDCHAR
STARTCHAR 04DB
ENCODING 1243
SWIDTH 450 0
DWIDTH 10 0
BBX 10 18 2 0
BITMAP
1980
1980
0000
1F80
3F80
7FC0
23C0
01C0
01C0
FFC0
FFC0
F3C0
F3C0
FF80
FF80
FF80
7F00
3C00
ENDCHAR
STARTCHAR 04DC
ENCODING 1244
SWIDTH 675 0
DWIDTH 15 0
BBX 17 18 1 0
BITMAP
019000
01B800
000000
1CE380
3FE700
3FEF00
3FEF00
1FFE00
1FFC00
1FFC00
1FF800
1FFC00
3FFC00
7FFE00
7BFE00
FBDE00
F39C00
E38000
ENDCHAR
STARTCHAR 04DD
ENCODING 1245
SWIDTH 675 0
DWIDTH 15 0
BBX 17 18 1 0
BITMAP
019000
01B800
000000
1CE380
3FE700
3FEF00
3FEF00
1FFE00
1FFC00
1FFC00
1FF800
1FFC00
3FFC00
7FFE00
7BFE00
FBDE00
F39C00
E38000
ENDCHAR
STARTCHAR 04DE
ENCODING 1246
SWIDTH 450 0
DWIDTH 10 0
BBX 10 18 2 0
BITMAP
1980
1980
0000
3F80
7FC0
7FC0
43C0
03C0
03C0
3F80
3F80
2780
03C0
07C0
FF80
FF80
FF00
FC00
ENDCHAR
STARTCHAR 04DF
ENCODING 1247
SWIDTH 450 0
DWIDTH 10 0
BBX 10 18 2 0
BITMAP
1980
1980
0000
3F80
7FC0
7FC0
43C0
03C0
03C0
3F80
3F80
2780
03C0
07C0
FF80
FF80
FF00
FC00
ENDCHAR
STARTCHAR 04E0
ENCODING 1248
SWIDTH 495 0
DWIDTH 11 0
BBX 11 15 1 0
BITMAP
1FE0
1FE0
00E0
01C0
0780
0FC0
3FC0
1FE0
00E0
00E0
80E0
FBC0
FFC0
FF80
3E00
ENDCHAR
STARTCHAR 04E1
ENCODING 1249
SWIDTH 495 0
DWIDTH 11 0
BBX 11 15 1 0
BITMAP
1FE0
1FE0
00E0
01C0
0780
0FC0
3FC0
1FE0
00E0
00E0
80E0
FBC0
FFC0
FF80
3E00
ENDCHAR
STARTCHAR 04E2
ENCODING 1250
SWIDTH 540 0
DWIDTH 12 0
BBX 12 18 2 0
BITMAP
0FC0
0FC0
0000
38F0
79F0
79F0
79F0
79E0
7BE0
7FE0
77E0
7FE0
FDE0
FDE0
F9E0
F3C0
F3C0
E1C0
ENDCHAR
STARTCHAR 04E3
ENCODING 1251
SWIDTH 540 0
DWIDTH 12 0
BBX 12 18 2 0
BITMAP
0FC0
0FC0
0000
38F0
79F0
79F0
79F0
79E0
7BE0
7FE0
77E0
7FE0
FDE0
FDE0
F9E0
F3C0
F3C0
E1C0
ENDCHAR
STARTCHAR 04E4
ENCODING 1252
SWIDTH 540 0
DWIDTH 12 0
BBX 12 18 2 0
BITMAP
0CC0
0CC0
0000
38F0
79F0
79F0
79F0
79E0
7BE0
7FE0
77E0
7FE0
FDE0
FDE0
F9E0
F3C0
F3C0
E1C0
ENDCHAR
STARTCHAR 04E5
ENCODING 1253
SWIDTH 540 0
DWIDTH 12 0
BBX 12 18 2 0
BITMAP
0CC0
0CC0
0000
38F0
79F0
79F0
79F0
79E0
7BE0
7FE0
77E0
7FE0
FDE0
FDE0
F9E0
F3C0
F3C0
E1C0
ENDCHAR
STARTCHAR 04E6
ENCODING 1254
SWIDTH 495 0
DWIDTH 11 0
BBX 11 18 2 0
BITMAP
1980
1980
0400
0F00
1F80
1FC0
3FE0
7FE0
79E0
F1E0
F1E0
F3E0
FFE0
FFC0
FFC0
FF80
7F80
3E00
ENDCHAR
STARTCHAR 04E7
ENCODING 1255
SWIDTH 495 0
DWIDTH 11 0
BBX 11 18 2 0
BITMAP
1980
1980
0400
0F00
1F80
1FC0
3FE0
7FE0
79E0
F1E0
F1E0
F3E0
FFE0
FFC0
FFC0
FF80
7F80
3E00
ENDCHAR
STARTCHAR 04E8
ENCODING 1256
SWIDTH 495 0
DWIDTH 11 0
BBX 11 15 2 0
BITMAP
0FC0
3FE0
3FE0
7FE0
7FE0
F9E0
F7E0
FFE0
F9E0
F3C0
FFC0
FFC0
7F80
7F00
1E00
ENDCHAR
STARTCHAR 04E9
ENCODING 1257
SWIDTH 495 0
DWIDTH 11 0
BBX 11 15 2 0
BITMAP
0FC0
3FE0
3FE0
7FE0
7FE0
F9E0
F7E0
FFE0
F9E0
F3C0
FFC0
FFC0
7F80
7F00
1E00
ENDCHAR
STARTCHAR 04EA
ENCODING 1258
SWIDTH 495 0
DWIDTH 11 0
BBX 11 18 2 0
BITMAP
0CC0
0CC0
0000
0FC0
3FE0
3FE0
7FE0
7FE0
F9E0
F7E0
FFE0
F9E0
F3C0
FFC0
FFC0
7F80
7F00
1E00
ENDCHAR
STARTCHAR 04EB
ENCODING 1259
SWIDTH 495 0
DWIDTH 11 0
BBX 11 18 2 0
BITMAP
0CC0
0CC0
0000
0FC0
3FE0
3FE0
7FE0
7FE0
F9E0
F7E0
FFE0
F9E0
F3C0
FFC0
FFC0
7F80
7F00
1E00
ENDCHAR
STARTCHAR 04EC
ENCODING 1260
SWIDTH 495 0
DWIDTH 11 0
BBX 12 18 1 0
BITMAP
0CC0
0CC0
0000
0FC0
1FE0
3FE0
3FE0
3FF0
20F0
1FF0
1FE0
1FE0
01E0
7FC0
FFC0
FF80
FF00
3800
ENDCHAR
STARTCHAR 04ED
ENCODING 1261
SWIDTH 495 0
DWIDTH 11 0
BBX 12 18 1 0
BITMAP
0CC0
0CC0
0000
0FC0
1FE0
3FE0
3FE0
3FF0
20F0
1FF0
1FE0
1FE0
01E0
7FC0
FFC0
FF80
FF00
3800
ENDCHAR
STARTCHAR 04EE
ENCODING 1262
SWIDTH 495 0
DWIDTH 11 0
BBX 13 18 1 0
BITMAP
07E0
07E0
0000
3E78
1EF0
1EF0
1EE0
1FE0
0FE0
0FC0
0FC0
0FC0
0F80
7F80
7F80
FF00
FE00
F000
ENDCHAR
STARTCHAR 04EF
ENCODING 1263
SWIDTH 495 0
DWIDTH 11 0
BBX 13 18 1 0
BITMAP
07E0
07E0
0000
3E78
1EF0
1EF0
1EE0
1FE0
0FE0
0FC0
0FC0
0FC0
0F80
7F80
7F80
FF00
FE00
F000
ENDCHAR
STARTCHAR 04F0
ENCODING 1264
SWIDTH 495 0
DWIDTH 11 0
BBX 13 18 1 0
BITMAP
0660
0660
0000
3E78
1EF0
1EF0
1EE0
1FE0
0FE0
0FC0
0FC0
0FC0
0F80
7F80
7F80
FF00
FE00
F000
ENDCHAR
STARTCHAR 04F1
ENCODING 1265
SWIDTH 495 0
DWIDTH 11 0
BBX 13 18 1 0
BITMAP
0660
0660
0000
3E78
1EF0
1EF0
1EE0
1FE0
0FE0
0FC0
0FC0
0FC0
0F80
7F80
7F80
FF00
FE00
F000
ENDCHAR
STARTCHAR 04F2
ENCODING 1266
SWIDTH 495 0
DWIDTH 11 0
BBX 14 19 1 0
BITMAP
01DC
03B8
0370
0000
3E78
1EF0
1EF0
1EE0
1FE0
0FE0
0FC0
0FC0
0FC0
0F80
7F80
7F80
FF00
FE00
F000
ENDCHAR
STARTCHAR 04F3
ENCODING 1267
SWIDTH 495 0
DWIDTH 11 0
BBX 14 19 1 0
BITMAP
01DC
03B8
0370
0000
3E78
1EF0
1EF0
1EE0
1FE0
0FE0
0FC0
0FC0
0FC0
0F80
7F80
7F80
FF00
FE00
F000
ENDCHAR
STARTCHAR 04F4
ENCODING 1268
SWIDTH 495 0
DWIDTH 11 0
BBX 11 18 2 0
BITMAP
0CC0
0DC0
0000
39E0
79E0
79E0
71E0
71E0
71C0
F1C0
FFC0
7FC0
7FC0
1BC0
03C0
0380
0380
0380
ENDCHAR
STARTCHAR 04F5
ENCODING 1269
SWIDTH 495 0
DWIDTH 11 0
BBX 11 18 2 0
BITMAP
0CC0
0DC0
0000
39E0
79E0
79E0
71E0
71E0
71C0
F1C0
FFC0
7FC0
7FC0
1BC0
03C0
0380
0380
0380
ENDCHAR
STARTCHAR 04F6
ENCODING 1270
SWIDTH 495 0
DWIDTH 11 0
BBX 13 19 1 -3
BITMAP
0070
1FF8
3FF8
3FF8
3C00
3C00
7800
7800
7800
7800
7000
F000
F000
FC00
F800
F800
3800
3000
7000
ENDCHAR
STARTCHAR 04F7
ENCODING 1271
SWIDTH 495 0
DWIDTH 11 0
BBX 13 19 1 -3
BITMAP
0070
1FF8
3FF8
3FF8
3C00
3C00
7800
7800
7800
7800
7000
F000
F000
FC00
F800
F800
3800
3000
7000
ENDCHAR
STARTCHAR 04F8
ENCODING 1272
SWIDTH 630 0
DWIDTH 14 0
BBX 16 18 1 0
BITMAP
00D8
01D8
0000
3C07
3C07
3C07
3C07
3C0F
3F8F
7FCE
7FCE
78EE
78EE
79DE
7BDC
7FDC
FF1C
701C
ENDCHAR
STARTCHAR 04F9
ENCODING 1273
SWIDTH 630 0
DWIDTH 14 0
BBX 16 18 1 0
BITMAP
00D8
01D8
0000
3C07
3C07
3C07
3C07
3C0F
3F8F
7FCE
7FCE
78EE
78EE
79DE
7BDC
7FDC
FF1C
701C
ENDCHAR
STARTCHAR 0500
ENCODING 1280
SWIDTH 495 0
DWIDTH 11 0
BBX 13 15 1 0
BITMAP
0078
0078
00F0
00F0
00F0
0FE0
1FE0
3FE0
71E0
71C0
F3C0
F3C0
FFC0
7F80
7F80
ENDCHAR
STARTCHAR 0501
ENCODING 1281
SWIDTH 495 0
DWIDTH 11 0
BBX 13 15 1 0
BITMAP
0078
0078
00F0
00F0
00F0
0FE0
1FE0
3FE0
71E0
71C0
F3C0
F3C0
FFC0
7F80
7F80
ENDCHAR
STARTCHAR 0510
ENCODING 1296
SWIDTH 450 0
DWIDTH 10 0
BBX 12 15 1 1
BITMAP
07F0
0FF0
1FF0
1E10
3C00
3C00
1F80
3F80
7D80
7800
F800
FF80
FF80
7F80
3F00
ENDCHAR
STARTCHAR 0511
ENCODING 1297
SWIDTH 450 0
DWIDTH 10 0
BBX 12 15 1 1
BITMAP
07F0
0FF0
1FF0
1E10
3C00
3C00
1F80
3F80
7D80
7800
F800
FF80
FF80
7F80
3F00
ENDCHAR
STARTCHAR 0524
ENCODING 1316
SWIDTH 540 0
DWIDTH 12 0
BBX 13 18 1 -3
BITMAP
1FF8
3FF8
3FF8
3FF8
3878
3870
78F0
78F0
78F0
78E0
79E0
71E0
F1F0
F1E0
F1E0
00E0
01C0
01C0
ENDCHAR
STARTCHAR 0525
ENCODING 1317
SWIDTH 540 0
DWIDTH 12 0
BBX 13 18 1 -3
BITMAP
1FF8
3FF8
3FF8
3FF8
3878
3870
78F0
78F0
78F0
78E0
79E0
71E0
F1F0
F1E0
F1E0
00E0
01C0
01C0
ENDCHAR
STARTCHAR 0526
ENCODING 1318
SWIDTH 495 0
DWIDTH 11 0
BBX 10 18 2 -3
BITMAP
3800
3800
7800
7800
7B00
7F80
7FC0
7FC0
73C0
F3C0
F3C0
E380
E3C0
E3C0
E780
0380
0380
0700
ENDCHAR
STARTCHAR 0527
ENCODING 1319
SWIDTH 495 0
DWIDTH 11 0
BBX 10 18 2 -3
BITMAP
3800
3800
7800
7800
7B00
7F80
7FC0
7FC0
73C0
F3C0
F3C0
E380
E3C0
E3C0
E780
0380
0380
0700
ENDCHAR
STARTCHAR 052E
ENCODING 1326
SWIDTH 585 0
DWIDTH 13 0
BBX 12 18 1 -3
BITMAP
0700
0700
0F00
0F80
0F80
1FC0
1FC0
3FC0
3FE0
7BE0
7BE0
FBE0
F3F0
F1F0
C070
0070
00E0
00E0
ENDCHAR
STARTCHAR 052F
ENCODING 1327
SWIDTH 585 0
DWIDTH 13 0
BBX 12 18 1 -3
BITMAP
0700
0700
0F00
0F80
0F80
1FC0
1FC0
3FC0
3FE0
7BE0
7BE0
FBE0
F3F0
F1F0
C070
0070
00E0
00E0
ENDCHAR
STARTCHAR 058F
ENCODING 1423
SWIDTH 540 0
DWIDTH 12 0
BBX 12 16 2 0
BITMAP
0200
1F80
3F80
7FC0
73C0
73C0
F3C0
E3F0
1FF0
0F80
0780
1FE0
1FE0
0700
0F00
0F00
ENDCHAR
STARTCHAR 1E02
ENCODING 7682
SWIDTH 495 0
DWIDTH 11 0
BBX 10 18 2 0
BITMAP
0C00
1C00
0000
3F80
7F80
7FC0
7BC0
7980
7B80
7F00
7F80
7FC0
79C0
7BC0
FFC0
FF80
FF00
F800
ENDCHAR
STARTCHAR 1E03
ENCODING 7683
SWIDTH 495 0
DWIDTH 11 0
BBX 10 18 2 0
BITMAP
0C00
1C00
0000
3F80
7F80
7FC0
7BC0
7980
7B80
7F00
7F80
7FC0
79C0
7BC0
FFC0
FF80
FF00
F800
ENDCHAR
STARTCHAR 1E06
ENCODING 7686
SWIDTH 495 0
DWIDTH 11 0
BBX 10 18 2 -3
BITMAP
3F80
7F80
7FC0
7BC0
7980
7B80
7F00
7F80
7FC0
79C0
7BC0
FFC0
FF80
FF00
F800
0000
7E00
FE00
ENDCHAR
STARTCHAR 1E07
ENCODING 7687
SWIDTH 495 0
DWIDTH 11 0
BBX 10 18 2 -3
BITMAP
3F80
7F80
7FC0
7BC0
7980
7B80
7F00
7F80
7FC0
79C0
7BC0
FFC0
FF80
FF00
F800
0000
7E00
FE00
ENDCHAR
STARTCHAR 1E08
ENCODING 7688
SWIDTH 450 0
DWIDTH 10 0
BBX 12 23 2 -4
BITMAP
0070
00E0
01C0
0000
07C0
1FE0
3FE0
7FE0
7E00
F800
F800
F000
F9C0
FFC0
FF80
FF80
FF80
7F00
3C00
3800
1C00
FC00
7000
ENDCHAR
STARTCHAR 1E09
ENCODING 7689
SWIDTH 450 0
DWIDTH 10 0
BBX 12 23 2 -4
BITMAP
0070
00E0
01C0
0000
07C0
1FE0
3FE0
7FE0
7E00
F800
F800
F000
F9C0
FFC0
FF80
FF80
FF80
7F00
3C00
3800
1C00
FC00
7000
ENDCHAR
STARTCHAR 1E0A
ENCODING 7690
SWIDTH 450 0
DWIDTH 10 0
BBX 10 18 2 0
BITMAP
1800
1800
0000
3E00
7F00
7F80
7FC0
79C0
71C0
F1C0
F380
F780
FF00
FE00
FC00
F800
F000
C000
ENDCHAR
STARTCHAR 1E0B
ENCODING 7691
SWIDTH 450 0
DWIDTH 10 0
BBX 10 18 2 0
BITMAP
1800
1800
0000
3E00
7F00
7F80
7FC0
79C0
71C0
F1C0
F380
F780
FF00
FE00
FC00
F800
F000
C000
ENDCHAR
STARTCHAR 1E0C
ENCODING 7692
SWIDTH 450 0
DWIDTH 10 0
BBX 10 18 2 -4
BITMAP
3E00
7F00
7F80
7FC0
79C0
71C0
F1C0
F380
F780
FF00
FE00
FC00
F800
F000
C000
0000
6000
6000
ENDCHAR
STARTCHAR 1E0D
ENCODING 7693
SWIDTH 450 0
DWIDTH 10 0
BBX 10 18 2 -4
BITMAP
3E00
7F00
7F80
7FC0
79C0
71C0
F1C0
F380
F780
FF00
FE00
FC00
F800
F000
C000
0000
6000
6000
ENDCHAR
STARTCHAR 1E0E
ENCODING 7694
SWIDTH 450 0
DWIDTH 10 0
BBX 10 18 2 -3
BITMAP
3E00
7F00
7F80
7FC0
79C0
71C0
F1C0
F380
F780
FF00
FE00
FC00
F800
F000
C000
0000
FC00
FC00
ENDCHAR
STARTCHAR 1E0F
ENCODING 7695
SWIDTH 450 0
DWIDTH 10 0
BBX 10 18 2 -3
BITMAP
3E00
7F00
7F80
7FC0
79C0
71C0
F1C0
F380
F780
FF00
FE00
FC00
F800
F000
C000
0000
FC00
FC00
ENDCHAR
STARTCHAR 1E10
ENCODING 7696
SWIDTH 450 0
DWIDTH 10 0
BBX 11 19 1 -4
BITMAP
1F00
3F80
3FC0
3FE0
3CE0
38E0
78E0
79C0
7BC0
7F80
7F00
7E00
7C00
7800
7800
1800
0C00
FC00
7800
ENDCHAR
STARTCHAR 1E11
ENCODING 7697
SWIDTH 450 0
DWIDTH 10 0
BBX 11 19 1 -4
BITMAP
1F00
3F80
3FC0
3FE0
3CE0
38E0
78E0
79C0
7BC0
7F80
7F00
7E00
7C00
7800
7800
1800
0C00
FC00
7800
ENDCHAR
STARTCHAR 1E1C
ENCODING 7708
SWIDTH 495 0
DWIDTH 11 0
BBX 9 24 3 -4
BITMAP
0100
6300
3E00
3C00
0800
7F80
FF00
7F00
7E00
F000
F000
FE00
FC00
F000
FF00
FF00
FF00
FF00
FE00
F800
1800
0C00
FC00
7800
ENDCHAR
STARTCHAR 1E1D
ENCODING 7709
SWIDTH 495 0
DWIDTH 11 0
BBX 9 24 3 -4
BITMAP
0100
6300
3E00
3C00
0800
7F80
FF00
7F00
7E00
F000
F000
FE00
FC00
F000
FF00
FF00
FF00
FF00
FE00
F800
1800
0C00
FC00
7800
ENDCHAR
STARTCHAR 1E1E
ENCODING 7710
SWIDTH 495 0
DWIDTH 11 0
BBX 13 18 1 0
BITMAP
0380
0300
0070
1FF8
3FF8
3FF8
3C00
3C00
7F00
7F00
7E00
7800
7000
F000
F000
F000
F000
F000
ENDCHAR
STARTCHAR 1E1F
ENCODING 7711
SWIDTH 495 0
DWIDTH 11 0
BBX 13 18 1 0
BITMAP
0380
0300
0070
1FF8
3FF8
3FF8
3C00
3C00
7F00
7F00
7E00
7800
7000
F000
F000
F000
F000
F000
ENDCHAR
STARTCHAR 1E24
ENCODING 7716
SWIDTH 540 0
DWIDTH 12 0
BBX 14 18 1 -4
BITMAP
0F84
1F3C
0F3C
1F78
1E78
1E78
3FF8
3FF0
3FF0
7FF0
7DF0
7DE0
F9E0
F9E0
7B00
0000
0C00
0C00
ENDCHAR
STARTCHAR 1E25
ENCODING 7717
SWIDTH 540 0
DWIDTH 12 0
BBX 14 18 1 -4
BITMAP
0F84
1F3C
0F3C
1F78
1E78
1E78
3FF8
3FF0
3FF0
7FF0
7DF0
7DE0
F9E0
F9E0
7B00
0000
0C00
0C00
ENDCHAR
STARTCHAR 1E28
ENCODING 7720
SWIDTH 540 0
DWIDTH 12 0
BBX 15 19 0 -4
BITMAP
07C2
0F9E
079E
0FBC
0F3C
0F3C
1FFC
1FF8
1FF8
3FF8
3EF8
3EF0
7CF0
7CF0
3D80
3800
1C00
FC00
7800
ENDCHAR
STARTCHAR 1E29
ENCODING 7721
SWIDTH 540 0
DWIDTH 12 0
BBX 15 19 0 -4
BITMAP
07C2
0F9E
079E
0FBC
0F3C
0F3C
1FFC
1FF8
1FF8
3FF8
3EF8
3EF0
7CF0
7CF0
3D80
3800
1C00
FC00
7800
ENDCHAR
STARTCHAR 1E2A
ENCODING 7722
SWIDTH 540 0
DWIDTH 12 0
BBX 14 19 1 -4
BITMAP
0F84
1F3C
0F3C
1F78
1E78
1E78
3FF8
3FF0
3FF0
7FF0
7DF0
7DE0
F9E0
F9E0
7B00
3180
3F00
3E00
0800
ENDCHAR
STARTCHAR 1E2B
ENCODING 7723
SWIDTH 540 0
DWIDTH 12 0
BBX 14 19 1 -4
BITMAP
0F84
1F3C
0F3C
1F78
1E78
1E78
3FF8
3FF0
3FF0
7FF0
7DF0
7DE0
F9E0
F9E0
7B00
3180
3F00
3E00
0800
ENDCHAR
STARTCHAR 1E30
ENCODING 7728
SWIDTH 540 0
DWIDTH 12 0
BBX 14 19 1 0
BITMAP
001C
0038
0060
0000
3F90
1F3C
3F78
3FF0
3FE0
3FC0
7F80
7F00
7F80
7F80
FFC0
FDE0
F9E0
FCE0
F880
ENDCHAR
STARTCHAR 1E31
ENCODING 7729
SWIDTH 540 0
DWIDTH 12 0
BBX 14 19 1 0
BITMAP
001C
0038
0060
0000
3F90
1F3C
3F78
3FF0
3FE0
3FC0
7F80
7F00
7F80
7F80
FFC0
FDE0
F9E0
FCE0
F880
ENDCHAR
STARTCHAR 1E34
ENCODING 7732
SWIDTH 540 0
DWIDTH 12 0
BBX 14 18 1 -3
BITMAP
3F90
1F3C
3F78
3FF0
3FE0
3FC0
7F80
7F00
7F80
7F80
FFC0
FDE0
F9E0
FCE0
F880
0000
7F00
7E00
ENDCHAR
STARTCHAR 1E35
ENCODING 7733
SWIDTH 540 0
DWIDTH 12 0
BBX 14 18 1 -3
BITMAP
3F90
1F3C
3F78
3FF0
3FE0
3FC0
7F80
7F00
7F80
7F80
FFC0
FDE0
F9E0
FCE0
F880
0000
7F00
7E00
ENDCHAR
STARTCHAR 1E36
ENCODING 7734
SWIDTH 495 0
DWIDTH 11 0
BBX 11 18 1 -4
BITMAP
07C0
0FC0
0F80
1F80
1F80
1F00
1F00
3F00
3E00
7E00
7FE0
7FC0
FFC0
FFC0
FF00
0000
1800
1800
ENDCHAR
STARTCHAR 1E37
ENCODING 7735
SWIDTH 495 0
DWIDTH 11 0
BBX 11 18 1 -4
BITMAP
07C0
0FC0
0F80
1F80
1F80
1F00
1F00
3F00
3E00
7E00
7FE0
7FC0
FFC0
FFC0
FF00
0000
1800
1800
ENDCHAR
STARTCHAR 1E3A
ENCODING 7738
SWIDTH 495 0
DWIDTH 11 0
BBX 11 18 1 -3
BITMAP
07C0
0FC0
0F80
1F80
1F80
1F00
1F00
3F00
3E00
7E00
7FE0
7FC0
FFC0
FFC0
FF00
0000
7F00
7E00
ENDCHAR
STARTCHAR 1E3B
ENCODING 7739
SWIDTH 495 0
DWIDTH 11 0
BBX 11 18 1 -3
BITMAP
07C0
0FC0
0F80
1F80
1F80
1F00
1F00
3F00
3E00
7E00
7FE0
7FC0
FFC0
FFC0
FF00
0000
7F00
7E00
ENDCHAR
STARTCHAR 1E3E
ENCODING 7742
SWIDTH 630 0
DWIDTH 14 0
BBX 14 19 1 0
BITMAP
001C
0038
0030
0000
0C04
0C0C
0E1C
1E3C
1F3C
1F7C
3FFC
3FFC
3FFC
7D7C
787C
78F8
F0F8
F0F8
E0E0
ENDCHAR
STARTCHAR 1E3F
ENCODING 7743
SWIDTH 630 0
DWIDTH 14 0
BBX 14 19 1 0
BITMAP
001C
0038
0030
0000
0C04
0C0C
0E1C
1E3C
1F3C
1F7C
3FFC
3FFC
3FFC
7D7C
787C
78F8
F0F8
F0F8
E0E0
ENDCHAR
STARTCHAR 1E40
ENCODING 7744
SWIDTH 630 0
DWIDTH 14 0
BBX 14 18 1 0
BITMAP
0060
0060
0000
0C04
0C0C
0E1C
1E3C
1F3C
1F7C
3FFC
3FFC
3FFC
7D7C
787C
78F8
F0F8
F0F8
E0E0
ENDCHAR
STARTCHAR 1E41
ENCODING 7745
SWIDTH 630 0
DWIDTH 14 0
BBX 14 18 1 0
BITMAP
0060
0060
0000
0C04
0C0C
0E1C
1E3C
1F3C
1F7C
3FFC
3FFC
3FFC
7D7C
787C
78F8
F0F8
F0F8
E0E0
ENDCHAR
STARTCHAR 1E44
ENCODING 7748
SWIDTH 540 0
DWIDTH 12 0
BBX 15 18 0 0
BITMAP
0030
0070
0000
078E
079E
0F9E
0FBC
1FBC
1FBC
1FB8
3FF8
3FF8
3DF8
3DF0
7DF0
79F0
79F0
F1C0
ENDCHAR
STARTCHAR 1E45
ENCODING 7749
SWIDTH 540 0
DWIDTH 12 0
BBX 15 18 0 0
BITMAP
0030
0070
0000
078E
079E
0F9E
0FBC
1FBC
1FBC
1FB8
3FF8
3FF8
3DF8
3DF0
7DF0
79F0
79F0
F1C0
ENDCHAR
STARTCHAR 1E48
ENCODING 7752
SWIDTH 540 0
DWIDTH 12 0
BBX 15 18 0 -3
BITMAP
078E
079E
0F9E
0FBC
1FBC
1FBC
1FB8
3FF8
3FF8
3DF8
3DF0
7DF0
79F0
79F0
F1C0
0000
1F80
1F80
ENDCHAR
STARTCHAR 1E49
ENCODING 7753
SWIDTH 540 0
DWIDTH 12 0
BBX 15 18 0 -3
BITMAP
078E
079E
0F9E
0FBC
1FBC
1FBC
1FB8
3FF8
3FF8
3DF8
3DF0
7DF0
79F0
79F0
F1C0
0000
1F80
1F80
ENDCHAR
STARTCHAR 1E54
ENCODING 7764
SWIDTH 495 0
DWIDTH 11 0
BBX 13 19 0 0
BITMAP
0070
00E0
01C0
0000
0FE0
0FF0
0FF8
0E78
1E38
1E78
1EF0
3FF0
3FE0
3E00
7E00
7E00
7C00
7C00
FC00
ENDCHAR
STARTCHAR 1E55
ENCODING 7765
SWIDTH 495 0
DWIDTH 11 0
BBX 13 19 0 0
BITMAP
0070
00E0
01C0
0000
0FE0
0FF0
0FF8
0E78
1E38
1E78
1EF0
3FF0
3FE0
3E00
7E00
7E00
7C00
7C00
FC00
ENDCHAR
STARTCHAR 1E56
ENCODING 7766
SWIDTH 495 0
DWIDTH 11 0
BBX 13 18 0 0
BITMAP
00C0
00C0
0000
0FE0
0FF0
0FF8
0E78
1E38
1E78
1EF0
3FF0
3FE0
3E00
7E00
7E00
7C00
7C00
FC00
ENDCHAR
STARTCHAR 1E57
ENCODING 7767
SWIDTH 495 0
DWIDTH 11 0
BBX 13 18 0 0
BITMAP
00C0
00C0
0000
0FE0
0FF0
0FF8
0E78
1E38
1E78
1EF0
3FF0
3FE0
3E00
7E00
7E00
7C00
7C00
FC00
ENDCHAR
STARTCHAR 1E5A
ENCODING 7770
SWIDTH 585 0
DWIDTH 13 0
BBX 11 18 2 -4
BITMAP
3F80
7FE0
7CE0
7C60
7C60
7CE0
7FC0
FF80
FF80
FF80
FB80
FBC0
F9C0
F9E0
F9C0
0000
0400
0C00
ENDCHAR
STARTCHAR 1E5B
ENCODING 7771
SWIDTH 585 0
DWIDTH 13 0
BBX 11 18 2 -4
BITMAP
3F80
7FE0
7CE0
7C60
7C60
7CE0
7FC0
FF80
FF80
FF80
FB80
FBC0
F9C0
F9E0
F9C0
0000
0400
0C00
ENDCHAR
STARTCHAR 1E5E
ENCODING 7774
SWIDTH 585 0
DWIDTH 13 0
BBX 11 18 2 -3
BITMAP
3F80
7FE0
7CE0
7C60
7C60
7CE0
7FC0
FF80
FF80
FF80
FB80
FBC0
F9C0
F9E0
F9C0
0000
7F00
7F00
ENDCHAR
STARTCHAR 1E5F
ENCODING 7775
SWIDTH 585 0
DWIDTH 13 0
BBX 11 18 2 -3
BITMAP
3F80
7FE0
7CE0
7C60
7C60
7CE0
7FC0
FF80
FF80
FF80
FB80
FBC0
F9C0
F9E0
F9C0
0000
7F00
7F00
ENDCHAR
STARTCHAR 1E60
ENCODING 7776
SWIDTH 495 0
DWIDTH 11 0
BBX 13 18 1 0
BITMAP
00C0
01C0
0000
07F8
0FF0
1FF0
1FE0
3FC0
3CC0
3E00
1F80
0FC0
03C0
43C0
FFC0
FFC0
FF80
7E00
ENDCHAR
STARTCHAR 1E61
ENCODING 7777
SWIDTH 495 0
DWIDTH 11 0
BBX 13 18 1 0
BITMAP
00C0
01C0
0000
07F8
0FF0
1FF0
1FE0
3FC0
3CC0
3E00
1F80
0FC0
03C0
43C0
FFC0
FFC0
FF80
7E00
ENDCHAR
STARTCHAR 1E62
ENCODING 7778
SWIDTH 495 0
DWIDTH 11 0
BBX 13 18 1 -4
BITMAP
07F8
0FF0
1FF0
1FE0
3FC0
3CC0
3E00
1F80
0FC0
03C0
43C0
FFC0
FFC0
FF80
7E00
0000
1800
3800
ENDCHAR
STARTCHAR 1E63
ENCODING 7779
SWIDTH 495 0
DWIDTH 11 0
BBX 13 18 1 -4
BITMAP
07F8
0FF0
1FF0
1FE0
3FC0
3CC0
3E00
1F80
0FC0
03C0
43C0
FFC0
FFC0
FF80
7E00
0000
1800
3800
ENDCHAR
STARTCHAR 1E6A
ENCODING 7786
SWIDTH 540 0
DWIDTH 12 0
BBX 12 18 3 0
BITMAP
0180
0380
0000
7FF0
FFF0
FFF0
FFF0
FF80
0E00
0E00
1E00
1E00
1C00
1C00
1C00
3C00
3800
3800
ENDCHAR
STARTCHAR 1E6B
ENCODING 7787
SWIDTH 540 0
DWIDTH 12 0
BBX 12 18 3 0
BITMAP
0180
0380
0000
7FF0
FFF0
FFF0
FFF0
FF80
0E00
0E00
1E00
1E00
1C00
1C00
1C00
3C00
3800
3800
ENDCHAR
STARTCHAR 1E6C
ENCODING 7788
SWIDTH 540 0
DWIDTH 12 0
BBX 12 18 3 -4
BITMAP
7FF0
FFF0
FFF0
FFF0
FF80
0E00
0E00
1E00
1E00
1C00
1C00
1C00
3C00
3800
3800
0000
3000
3000
ENDCHAR
STARTCHAR 1E6D
ENCODING 7789
SWIDTH 540 0
DWIDTH 12 0
BBX 12 18 3 -4
BITMAP
7FF0
FFF0
FFF0
FFF0
FF80
0E00
0E00
1E00
1E00
1C00
1C00
1C00
3C00
3800
3800
0000
3000
3000
ENDCHAR
STARTCHAR 1E6E
ENCODING 7790
SWIDTH 540 0
DWIDTH 12 0
BBX 12 18 3 -3
BITMAP
7FF0
FFF0
FFF0
FFF0
FF80
0E00
0E00
1E00
1E00
1C00
1C00
1C00
3C00
3800
3800
0000
FE00
FC00
ENDCHAR
STARTCHAR 1E6F
ENCODING 7791
SWIDTH 540 0
DWIDTH 12 0
BBX 12 18 3 -3
BITMAP
7FF0
FFF0
FFF0
FFF0
FF80
0E00
0E00
1E00
1E00
1C00
1C00
1C00
3C00
3800
3800
0000
FE00
FC00
ENDCHAR
STARTCHAR 1E7C
ENCODING 7804
SWIDTH 585 0
DWIDTH 13 0
BBX 13 18 3 1
BITMAP
0760
07E0
0DC0
0000
0038
F8F8
7CF0
7CF0
7DE0
7DE0
3DE0
3FC0
3FC0
1F80
1F80
0F00
0F00
0F00
ENDCHAR
STARTCHAR 1E7D
ENCODING 7805
SWIDTH 585 0
DWIDTH 13 0
BBX 13 18 3 1
BITMAP
0760
07E0
0DC0
0000
0038
F8F8
7CF0
7CF0
7DE0
7DE0
3DE0
3FC0
3FC0
1F80
1F80
0F00
0F00
0F00
ENDCHAR
STARTCHAR 1E80
ENCODING 7808
SWIDTH 720 0
DWIDTH 16 0
BBX 16 19 3 0
BITMAP
0700
0380
0180
0000
700F
F98E
F99E
F9BC
FBBC
FBFC
7FF8
7FF8
7FF0
7FF0
3DF0
39E0
38E0
18C0
1000
ENDCHAR
STARTCHAR 1E81
ENCODING 7809
SWIDTH 720 0
DWIDTH 16 0
BBX 16 19 3 0
BITMAP
0700
0380
0180
0000
700F
F98E
F99E
F9BC
FBBC
FBFC
7FF8
7FF8
7FF0
7FF0
3DF0
39E0
38E0
18C0
1000
ENDCHAR
STARTCHAR 1E82
ENCODING 7810
SWIDTH 720 0
DWIDTH 16 0
BBX 16 19 3 0
BITMAP
0070
00E0
00C0
0000
700F
F98E
F99E
F9BC
FBBC
FBFC
7FF8
7FF8
7FF0
7FF0
3DF0
39E0
38E0
18C0
1000
ENDCHAR
STARTCHAR 1E83
ENCODING 7811
SWIDTH 720 0
DWIDTH 16 0
BBX 16 19 3 0
BITMAP
0070
00E0
00C0
0000
700F
F98E
F99E
F9BC
FBBC
FBFC
7FF8
7FF8
7FF0
7FF0
3DF0
39E0
38E0
18C0
1000
ENDCHAR
STARTCHAR 1E84
ENCODING 7812
SWIDTH 720 0
DWIDTH 16 0
BBX 16 18 3 0
BITMAP
0330
0760
0000
700F
F98E
F99E
F9BC
FBBC
FBFC
7FF8
7FF8
7FF0
7FF0
3DF0
39E0
38E0
18C0
1000
ENDCHAR
STARTCHAR 1E85
ENCODING 7813
SWIDTH 720 0
DWIDTH 16 0
BBX 16 18 3 0
BITMAP
0330
0760
0000
700F
F98E
F99E
F9BC
FBBC
FBFC
7FF8
7FF8
7FF0
7FF0
3DF0
39E0
38E0
18C0
1000
ENDCHAR
STARTCHAR 1E90
ENCODING 7824
SWIDTH 585 0
DWIDTH 13 0
BBX 11 19 3 0
BITMAP
0700
0F80
1DC0
0000
3FE0
7FC0
FF80
FF80
0700
0E00
1E00
1C00
3C00
3800
7800
7FE0
FFC0
FF80
0F00
ENDCHAR
STARTCHAR 1E91
ENCODING 7825
SWIDTH 585 0
DWIDTH 13 0
BBX 11 19 3 0
BITMAP
0700
0F80
1DC0
0000
3FE0
7FC0
FF80
FF80
0700
0E00
1E00
1C00
3C00
3800
7800
7FE0
FFC0
FF80
0F00
ENDCHAR
STARTCHAR 1E92
ENCODING 7826
SWIDTH 585 0
DWIDTH 13 0
BBX 11 19 3 -4
BITMAP
3FE0
7FC0
FF80
FF80
0700
0E00
1E00
1C00
3C00
3800
7800
7FE0
FFC0
FF80
0F00
0000
1800
1800
1000
ENDCHAR
STARTCHAR 1E93
ENCODING 7827
SWIDTH 585 0
DWIDTH 13 0
BBX 11 19 3 -4
BITMAP
3FE0
7FC0
FF80
FF80
0700
0E00
1E00
1C00
3C00
3800
7800
7FE0
FFC0
FF80
0F00
0000
1800
1800
1000
ENDCHAR
STARTCHAR 1E94
ENCODING 7828
SWIDTH 585 0
DWIDTH 13 0
BBX 11 18 3 -3
BITMAP
3FE0
7FC0
FF80
FF80
0700
0E00
1E00
1C00
3C00
3800
7800
7FE0
FFC0
FF80
0F00
0000
7E00
FE00
ENDCHAR
STARTCHAR 1E95
ENCODING 7829
SWIDTH 585 0
DWIDTH 13 0
BBX 11 18 3 -3
BITMAP
3FE0
7FC0
FF80
FF80
0700
0E00
1E00
1C00
3C00
3800
7800
7FE0
FFC0
FF80
0F00
0000
7E00
FE00
ENDCHAR
STARTCHAR 1E96
ENCODING 7830
SWIDTH 540 0
DWIDTH 12 0
BBX 14 18 1 -3
BITMAP
0F84
1F3C
0F3C
1F78
1E78
1E78
3FF8
3FF0
3FF0
7FF0
7DF0
7DE0
F9E0
F9E0
7B00
0000
3F00
3F00
ENDCHAR
STARTCHAR 1E9B
ENCODING 7835
SWIDTH 405 0
DWIDTH 9 0
BBX 11 21 1 -3
BITMAP
0300
0300
0000
0FE0
1FE0
3FE0
3C00
3800
3800
7800
7800
7800
7800
7000
7000
7000
F000
F000
E000
E000
E000
ENDCHAR
STARTCHAR 1E9C
ENCODING 7836
SWIDTH 450 0
DWIDTH 10 0
BBX 12 18 1 -3
BITMAP
07E0
0FF0
1FF0
3C00
3C00
3C00
3D80
3F80
3F80
3F00
FC00
F800
F800
7800
7000
7000
7000
7000
ENDCHAR
STARTCHAR 1E9D
ENCODING 7837
SWIDTH 450 0
DWIDTH 10 0
BBX 11 18 2 -3
BITMAP
0FC0
1FE0
3FE0
7800
7E00
FF00
FF00
7800
7000
7000
7000
7000
F000
F000
E000
E000
E000
E000
ENDCHAR
STARTCHAR 1E9E
ENCODING 7838
SWIDTH 540 0
DWIDTH 12 0
BBX 12 16 1 0
BITMAP
0FC0
1FC0
3FE0
38E0
38C0
79C0
7B80
7BE0
73F0
70F0
70F0
70F0
73E0
F7E0
F780
E000
ENDCHAR
STARTCHAR 1EA0
ENCODING 7840
SWIDTH 630 0
DWIDTH 14 0
BBX 14 18 0 -4
BITMAP
0070
0070
00F0
00F0
01F0
01F0
03F0
07F0
06F0
0CF8
1FF8
1FF8
3CF8
78F8
78FC
8000
0600
0600
ENDCHAR
STARTCHAR 1EA1
ENCODING 7841
SWIDTH 630 0
DWIDTH 14 0
BBX 14 18 0 -4
BITMAP
0070
0070
00F0
00F0
01F0
01F0
03F0
07F0
06F0
0CF8
1FF8
1FF8
3CF8
78F8
78FC
8000
0600
0600
ENDCHAR
STARTCHAR 1EA2
ENCODING 7842
SWIDTH 630 0
DWIDTH 14 0
BBX 14 20 0 -1
BITMAP
007C
000C
0078
0000
0070
0070
00F0
00F0
01F0
01F0
03F0
07F0
06F0
0CF8
1FF8
1FF8
3CF8
78F8
78FC
8000
ENDCHAR
STARTCHAR 1EA3
ENCODING 7843
SWIDTH 630 0
DWIDTH 14 0
BBX 14 20 0 -1
BITMAP
007C
000C
0078
0000
0070
0070
00F0
00F0
01F0
01F0
03F0
07F0
06F0
0CF8
1FF8
1FF8
3CF8
78F8
78FC
8000
ENDCHAR
STARTCHAR 1EA4
ENCODING 7844
SWIDTH 630 0
DWIDTH 14 0
BBX 17 21 0 -1
BITMAP
000380
000600
003000
00FC00
000800
007000
007000
00F000
00F000
01F000
01F000
03F000
07F000
06F000
0CF800
1FF800
1FF800
3CF800
78F800
78FC00
800000
ENDCHAR
STARTCHAR 1EA5
ENCODING 7845
SWIDTH 630 0
DWIDTH 14 0
BBX 17 21 0 -1
BITMAP
000380
000600
003000
00FC00
000800
007000
007000
00F000
00F000
01F000
01F000
03F000
07F000
06F000
0CF800
1FF800
1FF800
3CF800
78F800
78FC00
800000
ENDCHAR
STARTCHAR 1EA6
ENCODING 7846
SWIDTH 630 0
DWIDTH 14 0
BBX 14 21 0 -1
BITMAP
03C0
00C0
0030
00FC
0008
0070
0070
00F0
00F0
01F0
01F0
03F0
07F0
06F0
0CF8
1FF8
1FF8
3CF8
78F8
78FC
8000
ENDCHAR
STARTCHAR 1EA7
ENCODING 7847
SWIDTH 630 0
DWIDTH 14 0
BBX 14 21 0 -1
BITMAP
03C0
00C0
0030
00FC
0008
0070
0070
00F0
00F0
01F0
01F0
03F0
07F0
06F0
0CF8
1FF8
1FF8
3CF8
78F8
78FC
8000
ENDCHAR
STARTCHAR 1EA8
ENCODING 7848
SWIDTH 630 0
DWIDTH 14 0
BBX 17 21 0 -1
BITMAP
001F80
000F00
003000
00FC00
000800
007000
007000
00F000
00F000
01F000
01F000
03F000
07F000
06F000
0CF800
1FF800
1FF800
3CF800
78F800
78FC00
800000
ENDCHAR
STARTCHAR 1EA9
ENCODING 7849
SWIDTH 630 0
DWIDTH 14 0
BBX 17 21 0 -1
BITMAP
001F80
000F00
003000
00FC00
000800
007000
007000
00F000
00F000
01F000
01F000
03F000
07F000
06F000
0CF800
1FF800
1FF800
3CF800
78F800
78FC00
800000
ENDCHAR
STARTCHAR 1EAA
ENCODING 7850
SWIDTH 630 0
DWIDTH 14 0
BBX 15 21 0 -1
BITMAP
007E
00FC
0030
00FC
0008
0070
0070
00F0
00F0
01F0
01F0
03F0
07F0
06F0
0CF8
1FF8
1FF8
3CF8
78F8
78FC
8000
ENDCHAR
STARTCHAR 1EAB
ENCODING 7851
SWIDTH 630 0
DWIDTH 14 0
BBX 15 21 0 -1
BITMAP
007E
00FC
0030
00FC
0008
0070
0070
00F0
00F0
01F0
01F0
03F0
07F0
06F0
0CF8
1FF8
1FF8
3CF8
78F8
78FC
8000
ENDCHAR
STARTCHAR 1EAC
ENCODING 7852
SWIDTH 630 0
DWIDTH 14 0
BBX 14 22 0 -4
BITMAP
0038
007C
00CC
0000
0070
0070
00F0
00F0
01F0
01F0
03F0
07F0
06F0
0CF8
1FF8
1FF8
3CF8
78F8
78FC
8000
0600
0600
ENDCHAR
STARTCHAR 1EAD
ENCODING 7853
SWIDTH 630 0
DWIDTH 14 0
BBX 14 22 0 -4
BITMAP
0038
007C
00CC
0000
0070
0070
00F0
00F0
01F0
01F0
03F0
07F0
06F0
0CF8
1FF8
1FF8
3CF8
78F8
78FC
8000
0600
0600
ENDCHAR
STARTCHAR 1EAE
ENCODING 7854
SWIDTH 630 0
DWIDTH 14 0
BBX 14 21 0 -1
BITMAP
001C
0038
00CC
00FC
0020
0070
0070
00F0
00F0
01F0
01F0
03F0
07F0
06F0
0CF8
1FF8
1FF8
3CF8
78F8
78FC
8000
ENDCHAR
STARTCHAR 1EAF
ENCODING 7855
SWIDTH 630 0
DWIDTH 14 0
BBX 14 21 0 -1
BITMAP
001C
0038
00CC
00FC
0020
0070
0070
00F0
00F0
01F0
01F0
03F0
07F0
06F0
0CF8
1FF8
1FF8
3CF8
78F8
78FC
8000
ENDCHAR
STARTCHAR 1EB0
ENCODING 7856
SWIDTH 630 0
DWIDTH 14 0
BBX 14 21 0 -1
BITMAP
0070
0030
00CC
00FC
0020
0070
0070
00F0
00F0
01F0
01F0
03F0
07F0
06F0
0CF8
1FF8
1FF8
3CF8
78F8
78FC
8000
ENDCHAR
STARTCHAR 1EB1
ENCODING 7857
SWIDTH 630 0
DWIDTH 14 0
BBX 14 21 0 -1
BITMAP
0070
0030
00CC
00FC
0020
0070
0070
00F0
00F0
01F0
01F0
03F0
07F0
06F0
0CF8
1FF8
1FF8
3CF8
78F8
78FC
8000
ENDCHAR
STARTCHAR 1EB2
ENCODING 7858
SWIDTH 630 0
DWIDTH 14 0
BBX 15 21 0 -1
BITMAP
007E
0038
00CC
00FC
0020
0070
0070
00F0
00F0
01F0
01F0
03F0
07F0
06F0
0CF8
1FF8
1FF8
3CF8
78F8
78FC
8000
ENDCHAR
STARTCHAR 1EB3
ENCODING 7859
SWIDTH 630 0
DWIDTH 14 0
BBX 15 21 0 -1
BITMAP
007E
0038
00CC
00FC
0020
0070
0070
00F0
00F0
01F0
01F0
03F0
07F0
06F0
0CF8
1FF8
1FF8
3CF8
78F8
78FC
8000
ENDCHAR
STARTCHAR 1EB4
ENCODING 7860
SWIDTH 630 0
DWIDTH 14 0
BBX 15 21 0 -1
BITMAP
007E
00FC
00CC
00FC
0020
0070
0070
00F0
00F0
01F0
01F0
03F0
07F0
06F0
0CF8
1FF8
1FF8
3CF8
78F8
78FC
8000
ENDCHAR
STARTCHAR 1EB5
ENCODING 7861
SWIDTH 630 0
DWIDTH 14 0
BBX 15 21 0 -1
BITMAP
007E
00FC
00CC
00FC
0020
0070
0070
00F0
00F0
01F0
01F0
03F0
07F0
06F0
0CF8
1FF8
1FF8
3CF8
78F8
78FC
8000
ENDCHAR
STARTCHAR 1EB6
ENCODING 7862
SWIDTH 630 0
DWIDTH 14 0
BBX 15 22 0 -4
BITMAP
00CE
00FC
0078
0000
0070
0070
00F0
00F0
01F0
01F0
03F0
07F0
06F0
0CF8
1FF8
1FF8
3CF8
78F8
78FC
8000
0600
0600
ENDCHAR
STARTCHAR 1EB7
ENCODING 7863
SWIDTH 630 0
DWIDTH 14 0
BBX 15 22 0 -4
BITMAP
00CE
00FC
0078
0000
0070
0070
00F0
00F0
01F0
01F0
03F0
07F0
06F0
0CF8
1FF8
1FF8
3CF8
78F8
78FC
8000
0600
0600
ENDCHAR
STARTCHAR 1EB8
ENCODING 7864
SWIDTH 495 0
DWIDTH 11 0
BBX 9 19 3 -3
BITMAP
0800
7F80
FF00
7F00
7E00
F000
F000
FE00
FC00
F000
FF00
FF00
FF00
FF00
FE00
E000
0000
3000
3000
ENDCHAR
STARTCHAR 1EB9
ENCODING 7865
SWIDTH 495 0
DWIDTH 11 0
BBX 9 19 3 -3
BITMAP
0800
7F80
FF00
7F00
7E00
F000
F000
FE00
FC00
F000
FF00
FF00
FF00
FF00
FE00
E000
0000
3000
3000
ENDCHAR
STARTCHAR 1EBA
ENCODING 7866
SWIDTH 495 0
DWIDTH 11 0
BBX 9 19 3 0
BITMAP
3F00
0E00
1800
0800
7F80
FF00
7F00
7E00
F000
F000
FE00
FC00
F000
FF00
FF00
FF00
FF00
FE00
E000
ENDCHAR
STARTCHAR 1EBB
ENCODING 7867
SWIDTH 495 0
DWIDTH 11 0
BBX 9 19 3 0
BITMAP
3F00
0E00
1800
0800
7F80
FF00
7F00
7E00
F000
F000
FE00
FC00
F000
FF00
FF00
FF00
FF00
FE00
E000
ENDCHAR
STARTCHAR 1EBC
ENCODING 7868
SWIDTH 495 0
DWIDTH 11 0
BBX 9 19 3 0
BITMAP
3700
7E00
7C00
0800
7F80
FF00
7F00
7E00
F000
F000
FE00
FC00
F000
FF00
FF00
FF00
FF00
FE00
E000
ENDCHAR
STARTCHAR 1EBD
ENCODING 7869
SWIDTH 495 0
DWIDTH 11 0
BBX 9 19 3 0
BITMAP
3700
7E00
7C00
0800
7F80
FF00
7F00
7E00
F000
F000
FE00
FC00
F000
FF00
FF00
FF00
FF00
FE00
E000
ENDCHAR
STARTCHAR 1EBE
ENCODING 7870
SWIDTH 495 0
DWIDTH 11 0
BBX 10 20 3 0
BITMAP
01C0
0380
1C00
7E00
0800
7F80
FF00
7F00
7E00
F000
F000
FE00
FC00
F000
FF00
FF00
FF00
FF00
FE00
E000
ENDCHAR
STARTCHAR 1EBF
ENCODING 7871
SWIDTH 495 0
DWIDTH 11 0
BBX 10 20 3 0
BITMAP
01C0
0380
1C00
7E00
0800
7F80
FF00
7F00
7E00
F000
F000
FE00
FC00
F000
FF00
FF00
FF00
FF00
FE00
E000
ENDCHAR
STARTCHAR 1EC0
ENCODING 7872
SWIDTH 495 0
DWIDTH 11 0
BBX 9 20 3 0
BITMAP
E000
7000
1C00
7E00
0800
7F80
FF00
7F00
7E00
F000
F000
FE00
FC00
F000
FF00
FF00
FF00
FF00
FE00
E000
ENDCHAR
STARTCHAR 1EC1
ENCODING 7873
SWIDTH 495 0
DWIDTH 11 0
BBX 9 20 3 0
BITMAP
E000
7000
1C00
7E00
0800
7F80
FF00
7F00
7E00
F000
F000
FE00
FC00
F000
FF00
FF00
FF00
FF00
FE00
E000
ENDCHAR
STARTCHAR 1EC2
ENCODING 7874
SWIDTH 495 0
DWIDTH 11 0
BBX 10 20 3 0
BITMAP
07C0
0380
1C00
7E00
0800
7F80
FF00
7F00
7E00
F000
F000
FE00
FC00
F000
FF00
FF00
FF00
FF00
FE00
E000
ENDCHAR
STARTCHAR 1EC3
ENCODING 7875
SWIDTH 495 0
DWIDTH 11 0
BBX 10 20 3 0
BITMAP
07C0
0380
1C00
7E00
0800
7F80
FF00
7F00
7E00
F000
F000
FE00
FC00
F000
FF00
FF00
FF00
FF00
FE00
E000
ENDCHAR
STARTCHAR 1EC4
ENCODING 7876
SWIDTH 495 0
DWIDTH 11 0
BBX 9 20 3 0
BITMAP
3F00
3E00
1C00
7E00
0800
7F80
FF00
7F00
7E00
F000
F000
FE00
FC00
F000
FF00
FF00
FF00
FF00
FE00
E000
ENDCHAR
STARTCHAR 1EC5
ENCODING 7877
SWIDTH 495 0
DWIDTH 11 0
BBX 9 20 3 0
BITMAP
3F00
3E00
1C00
7E00
0800
7F80
FF00
7F00
7E00
F000
F000
FE00
FC00
F000
FF00
FF00
FF00
FF00
FE00
E000
ENDCHAR
STARTCHAR 1EC6
ENCODING 7878
SWIDTH 495 0
DWIDTH 11 0
BBX 9 22 3 -2
BITMAP
1C00
3F00
6600
0800
7F80
FF00
7F00
7E00
F000
F000
FE00
FC00
F000
FF00
FF00
FF00
FF00
FE00
E000
0000
3000
3000
ENDCHAR
STARTCHAR 1EC7
ENCODING 7879
SWIDTH 495 0
DWIDTH 11 0
BBX 9 22 3 -2
BITMAP
1C00
3F00
6600
0800
7F80
FF00
7F00
7E00
F000
F000
FE00
FC00
F000
FF00
FF00
FF00
FF00
FE00
E000
0000
3000
3000
ENDCHAR
STARTCHAR 1EC8
ENCODING 7880
SWIDTH 315 0
DWIDTH 7 0
BBX 10 19 1 0
BITMAP
07C0
00C0
0780
0000
0F80
0F80
0F00
1F00
1F00
1E00
3E00
3E00
3E00
3C00
7C00
7C00
7800
F800
E000
ENDCHAR
STARTCHAR 1EC9
ENCODING 7881
SWIDTH 315 0
DWIDTH 7 0
BBX 10 19 1 0
BITMAP
07C0
00C0
0780
0000
0F80
0F80
0F00
1F00
1F00
1E00
3E00
3E00
3E00
3C00
7C00
7C00
7800
F800
E000
ENDCHAR
STARTCHAR 1ECA
ENCODING 7882
SWIDTH 315 0
DWIDTH 7 0
BBX 9 19 1 -4
BITMAP
0F80
0F80
0F00
1F00
1F00
1E00
3E00
3E00
3E00
3C00
7C00
7C00
7800
F800
E000
0000
6000
6000
4000
ENDCHAR
STARTCHAR 1ECB
ENCODING 7883
SWIDTH 315 0
DWIDTH 7 0
BBX 9 19 1 -4
BITMAP
0F80
0F80
0F00
1F00
1F00
1E00
3E00
3E00
3E00
3C00
7C00
7C00
7800
F800
E000
0000
6000
6000
4000
ENDCHAR
STARTCHAR 1ECC
ENCODING 7884
SWIDTH 495 0
DWIDTH 11 0
BBX 11 19 2 -4
BITMAP
0400
0F00
1F80
1FC0
3FE0
7FE0
79E0
F1E0
F1E0
F3E0
FFE0
FFC0
FFC0
FF80
7F80
3E00
0000
1800
1800
ENDCHAR
STARTCHAR 1ECD
ENCODING 7885
SWIDTH 495 0
DWIDTH 11 0
BBX 11 19 2 -4
BITMAP
0400
0F00
1F80
1FC0
3FE0
7FE0
79E0
F1E0
F1E0
F3E0
FFE0
FFC0
FFC0
FF80
7F80
3E00
0000
1800
1800
ENDCHAR
STARTCHAR 1ECE
ENCODING 7886
SWIDTH 495 0
DWIDTH 11 0
BBX 11 19 2 0
BITMAP
0F80
0380
0600
0400
0F00
1F80
1FC0
3FE0
7FE0
79E0
F1E0
F1E0
F3E0
FFE0
FFC0
FFC0
FF80
7F80
3E00
ENDCHAR
STARTCHAR 1ECF
ENCODING 7887
SWIDTH 495 0
DWIDTH 11 0
BBX 11 19 2 0
BITMAP
0F80
0380
0600
0400
0F00
1F80
1FC0
3FE0
7FE0
79E0
F1E0
F1E0
F3E0
FFE0
FFC0
FFC0
FF80
7F80
3E00
ENDCHAR
STARTCHAR 1ED0
ENCODING 7888
SWIDTH 495 0
DWIDTH 11 0
BBX 12 20 2 0
BITMAP
0070
00C0
0600
1F80
0500
0F00
1F80
1FC0
3FE0
7FE0
79E0
F1E0
F1E0
F3E0
FFE0
FFC0
FFC0
FF80
7F80
3E00
ENDCHAR
STARTCHAR 1ED1
ENCODING 7889
SWIDTH 495 0
DWIDTH 11 0
BBX 12 20 2 0
BITMAP
0070
00C0
0600
1F80
0500
0F00
1F80
1FC0
3FE0
7FE0
79E0
F1E0
F1E0
F3E0
FFE0
FFC0
FFC0
FF80
7F80
3E00
ENDCHAR
STARTCHAR 1ED2
ENCODING 7890
SWIDTH 495 0
DWIDTH 11 0
BBX 11 20 2 0
BITMAP
7000
1800
0600
1F80
0500
0F00
1F80
1FC0
3FE0
7FE0
79E0
F1E0
F1E0
F3E0
FFE0
FFC0
FFC0
FF80
7F80
3E00
ENDCHAR
STARTCHAR 1ED3
ENCODING 7891
SWIDTH 495 0
DWIDTH 11 0
BBX 11 20 2 0
BITMAP
7000
1800
0600
1F80
0500
0F00
1F80
1FC0
3FE0
7FE0
79E0
F1E0
F1E0
F3E0
FFE0
FFC0
FFC0
FF80
7F80
3E00
ENDCHAR
STARTCHAR 1ED4
ENCODING 7892
SWIDTH 495 0
DWIDTH 11 0
BBX 12 20 2 0
BITMAP
03F0
01E0
0600
1F80
0500
0F00
1F80
1FC0
3FE0
7FE0
79E0
F1E0
F1E0
F3E0
FFE0
FFC0
FFC0
FF80
7F80
3E00
ENDCHAR
STARTCHAR 1ED5
ENCODING 7893
SWIDTH 495 0
DWIDTH 11 0
BBX 12 20 2 0
BITMAP
03F0
01E0
0600
1F80
0500
0F00
1F80
1FC0
3FE0
7FE0
79E0
F1E0
F1E0
F3E0
FFE0
FFC0
FFC0
FF80
7F80
3E00
ENDCHAR
STARTCHAR 1ED6
ENCODING 7894
SWIDTH 495 0
DWIDTH 11 0
BBX 11 20 2 0
BITMAP
0FC0
1F80
0600
1F80
0500
0F00
1F80
1FC0
3FE0
7FE0
79E0
F1E0
F1E0
F3E0
FFE0
FFC0
FFC0
FF80
7F80
3E00
ENDCHAR
STARTCHAR 1ED7
ENCODING 7895
SWIDTH 495 0
DWIDTH 11 0
BBX 11 20 2 0
BITMAP
0FC0
1F80
0600
1F80
0500
0F00
1F80
1FC0
3FE0
7FE0
79E0
F1E0
F1E0
F3E0
FFE0
FFC0
FFC0
FF80
7F80
3E00
ENDCHAR
STARTCHAR 1ED8
ENCODING 7896
SWIDTH 495 0
DWIDTH 11 0
BBX 11 22 2 -4
BITMAP
0700
1F80
1980
0400
0F00
1F80
1FC0
3FE0
7FE0
79E0
F1E0
F1E0
F3E0
FFE0
FFC0
FFC0
FF80
7F80
3E00
0000
1800
1800
ENDCHAR
STARTCHAR 1ED9
ENCODING 7897
SWIDTH 495 0
DWIDTH 11 0
BBX 11 22 2 -4
BITMAP
0700
1F80
1980
0400
0F00
1F80
1FC0
3FE0
7FE0
79E0
F1E0
F1E0
F3E0
FFE0
FFC0
FFC0
FF80
7F80
3E00
0000
1800
1800
ENDCHAR
STARTCHAR 1EDA
ENCODING 7898
SWIDTH 540 0
DWIDTH 12 0
BBX 13 19 2 0
BITMAP
01C0
0380
0700
0418
0F18
1F98
1FD8
3FF0
7FF0
79E0
F1E0
F1E0
F3E0
FFE0
FFC0
FFC0
FF80
7F80
3E00
ENDCHAR
STARTCHAR 1EDB
ENCODING 7899
SWIDTH 540 0
DWIDTH 12 0
BBX 13 19 2 0
BITMAP
01C0
0380
0700
0418
0F18
1F98
1FD8
3FF0
7FF0
79E0
F1E0
F1E0
F3E0
FFE0
FFC0
FFC0
FF80
7F80
3E00
ENDCHAR
STARTCHAR 1EDC
ENCODING 7900
SWIDTH 540 0
DWIDTH 12 0
BBX 13 19 2 0
BITMAP
1C00
1C00
0C00
0418
0F18
1F98
1FD8
3FF0
7FF0
79E0
F1E0
F1E0
F3E0
FFE0
FFC0
FFC0
FF80
7F80
3E00
ENDCHAR
STARTCHAR 1EDD
ENCODING 7901
SWIDTH 540 0
DWIDTH 12 0
BBX 13 19 2 0
BITMAP
1C00
1C00
0C00
0418
0F18
1F98
1FD8
3FF0
7FF0
79E0
F1E0
F1E0
F3E0
FFE0
FFC0
FFC0
FF80
7F80
3E00
ENDCHAR
STARTCHAR 1EDE
ENCODING 7902
SWIDTH 540 0
DWIDTH 12 0
BBX 13 19 2 0
BITMAP
0F80
0380
0600
0418
0F18
1F98
1FD8
3FF0
7FF0
79E0
F1E0
F1E0
F3E0
FFE0
FFC0
FFC0
FF80
7F80
3E00
ENDCHAR
STARTCHAR 1EDF
ENCODING 7903
SWIDTH 540 0
DWIDTH 12 0
BBX 13 19 2 0
BITMAP
0F80
0380
0600
0418
0F18
1F98
1FD8
3FF0
7FF0
79E0
F1E0
F1E0
F3E0
FFE0
FFC0
FFC0
FF80
7F80
3E00
ENDCHAR
STARTCHAR 1EE0
ENCODING 7904
SWIDTH 540 0
DWIDTH 12 0
BBX 13 19 2 0
BITMAP
0D80
1F80
1F00
0418
0F18
1F98
1FD8
3FF0
7FF0
79E0
F1E0
F1E0
F3E0
FFE0
FFC0
FFC0
FF80
7F80
3E00
ENDCHAR
STARTCHAR 1EE1
ENCODING 7905
SWIDTH 540 0
DWIDTH 12 0
BBX 13 19 2 0
BITMAP
0D80
1F80
1F00
0418
0F18
1F98
1FD8
3FF0
7FF0
79E0
F1E0
F1E0
F3E0
FFE0
FFC0
FFC0
FF80
7F80
3E00
ENDCHAR
STARTCHAR 1EE2
ENCODING 7906
SWIDTH 540 0
DWIDTH 12 0
BBX 13 19 2 -4
BITMAP
0418
0F18
1F98
1FD8
3FF0
7FF0
79E0
F1E0
F1E0
F3E0
FFE0
FFC0
FFC0
FF80
7F80
3E00
0000
1800
1800
ENDCHAR
STARTCHAR 1EE3
ENCODING 7907
SWIDTH 540 0
DWIDTH 12 0
BBX 13 19 2 -4
BITMAP
0418
0F18
1F98
1FD8
3FF0
7FF0
79E0
F1E0
F1E0
F3E0
FFE0
FFC0
FFC0
FF80
7F80
3E00
0000
1800
1800
ENDCHAR
STARTCHAR 1EE4
ENCODING 7908
SWIDTH 540 0
DWIDTH 12 0
BBX 13 19 2 -4
BITMAP
1C78
3C78
3870
7870
78F0
70F0
F0F0
F9E0
FDE0
FFC0
FFC0
FF80
FF00
7E00
1800
0000
3000
3000
2000
ENDCHAR
STARTCHAR 1EE5
ENCODING 7909
SWIDTH 540 0
DWIDTH 12 0
BBX 13 19 2 -4
BITMAP
1C78
3C78
3870
7870
78F0
70F0
F0F0
F9E0
FDE0
FFC0
FFC0
FF80
FF00
7E00
1800
0000
3000
3000
2000
ENDCHAR
STARTCHAR 1EE6
ENCODING 7910
SWIDTH 540 0
DWIDTH 12 0
BBX 13 19 2 0
BITMAP
01F0
0070
01E0
0000
1C78
3C78
3870
7870
78F0
70F0
F0F0
F9E0
FDE0
FFC0
FFC0
FF80
FF00
7E00
1800
ENDCHAR
STARTCHAR 1EE7
ENCODING 7911
SWIDTH 540 0
DWIDTH 12 0
BBX 13 19 2 0
BITMAP
01F0
0070
01E0
0000
1C78
3C78
3870
7870
78F0
70F0
F0F0
F9E0
FDE0
FFC0
FFC0
FF80
FF00
7E00
1800
ENDCHAR
STARTCHAR 1EE8
ENCODING 7912
SWIDTH 585 0
DWIDTH 13 0
BBX 14 19 2 0
BITMAP
00E0
01C0
0380
000C
38EC
78EC
70EC
71FC
71F8
71F0
F1E0
F3E0
F7C0
FFC0
FFC0
FF80
7F00
7F00
3C00
ENDCHAR
STARTCHAR 1EE9
ENCODING 7913
SWIDTH 585 0
DWIDTH 13 0
BBX 14 19 2 0
BITMAP
00E0
01C0
0380
000C
38EC
78EC
70EC
71FC
71F8
71F0
F1E0
F3E0
F7C0
FFC0
FFC0
FF80
7F00
7F00
3C00
ENDCHAR
STARTCHAR 1EEA
ENCODING 7914
SWIDTH 585 0
DWIDTH 13 0
BBX 14 19 2 0
BITMAP
0E00
0E00
0700
000C
38EC
78EC
70EC
71FC
71F8
71F0
F1E0
F3E0
F7C0
FFC0
FFC0
FF80
7F00
7F00
3C00
ENDCHAR
STARTCHAR 1EEB
ENCODING 7915
SWIDTH 585 0
DWIDTH 13 0
BBX 14 19 2 0
BITMAP
0E00
0E00
0700
000C
38EC
78EC
70EC
71FC
71F8
71F0
F1E0
F3E0
F7C0
FFC0
FFC0
FF80
7F00
7F00
3C00
ENDCHAR
STARTCHAR 1EEC
ENCODING 7916
SWIDTH 585 0
DWIDTH 13 0
BBX 14 19 2 0
BITMAP
07C0
01C0
0780
000C
38EC
78EC
70EC
71FC
71F8
71F0
F1E0
F3E0
F7C0
FFC0
FFC0
FF80
7F00
7F00
3C00
ENDCHAR
STARTCHAR 1EED
ENCODING 7917
SWIDTH 585 0
DWIDTH 13 0
BBX 14 19 2 0
BITMAP
07C0
01C0
0780
000C
38EC
78EC
70EC
71FC
71F8
71F0
F1E0
F3E0
F7C0
FFC0
FFC0
FF80
7F00
7F00
3C00
ENDCHAR
STARTCHAR 1EEE
ENCODING 7918
SWIDTH 585 0
DWIDTH 13 0
BBX 14 19 2 0
BITMAP
06C0
0FC0
1B80
000C
38EC
78EC
70EC
71FC
71F8
71F0
F1E0
F3E0
F7C0
FFC0
FFC0
FF80
7F00
7F00
3C00
ENDCHAR
STARTCHAR 1EEF
ENCODING 7919
SWIDTH 585 0
DWIDTH 13 0
BBX 14 19 2 0
BITMAP
06C0
0FC0
1B80
000C
38EC
78EC
70EC
71FC
71F8
71F0
F1E0
F3E0
F7C0
FFC0
FFC0
FF80
7F00
7F00
3C00
ENDCHAR
STARTCHAR 1EF0
ENCODING 7920
SWIDTH 585 0
DWIDTH 13 0
BBX 14 19 2 -4
BITMAP
000C
38EC
78EC
70EC
71FC
71F8
71F0
F1E0
F3E0
F7C0
FFC0
FFC0
FF80
7F00
7F00
3C00
0000
1800
1800
ENDCHAR
STARTCHAR 1EF1
ENCODING 7921
SWIDTH 585 0
DWIDTH 13 0
BBX 14 19 2 -4
BITMAP
000C
38EC
78EC
70EC
71FC
71F8
71F0
F1E0
F3E0
F7C0
FFC0
FFC0
FF80
7F00
7F00
3C00
0000
1800
1800
ENDCHAR
STARTCHAR 1EF2
ENCODING 7922
SWIDTH 585 0
DWIDTH 13 0
BBX 13 19 3 0
BITMAP
0E00
0700
0300
0000
1078
F078
F8F0
78E0
79C0
7BC0
3F80
3F00
3F00
3E00
1C00
1C00
1C00
3C00
3C00
ENDCHAR
STARTCHAR 1EF3
ENCODING 7923
SWIDTH 585 0
DWIDTH 13 0
BBX 13 19 3 0
BITMAP
0E00
0700
0300
0000
1078
F078
F8F0
78E0
79C0
7BC0
3F80
3F00
3F00
3E00
1C00
1C00
1C00
3C00
3C00
ENDCHAR
STARTCHAR 1EF4
ENCODING 7924
SWIDTH 585 0
DWIDTH 13 0
BBX 13 18 3 -4
BITMAP
1078
F078
F8F0
78E0
79C0
7BC0
3F80
3F00
3F00
3E00
1C00
1C00
1C00
3C00
3C00
0000
1800
1800
ENDCHAR
STARTCHAR 1EF5
ENCODING 7925
SWIDTH 585 0
DWIDTH 13 0
BBX 13 18 3 -4
BITMAP
1078
F078
F8F0
78E0
79C0
7BC0
3F80
3F00
3F00
3E00
1C00
1C00
1C00
3C00
3C00
0000
1800
1800
ENDCHAR
STARTCHAR 1EF6
ENCODING 7926
SWIDTH 585 0
DWIDTH 13 0
BBX 13 19 3 0
BITMAP
03E0
00E0
0380
0000
1078
F078
F8F0
78E0
79C0
7BC0
3F80
3F00
3F00
3E00
1C00
1C00
1C00
3C00
3C00
ENDCHAR
STARTCHAR 1EF7
ENCODING 7927
SWIDTH 585 0
DWIDTH 13 0
BBX 13 19 3 0
BITMAP
03E0
00E0
0380
0000
1078
F078
F8F0
78E0
79C0
7BC0
3F80
3F00
3F00
3E00
1C00
1C00
1C00
3C00
3C00
ENDCHAR
STARTCHAR 1EF8
ENCODING 7928
SWIDTH 585 0
DWIDTH 13 0
BBX 13 19 3 0
BITMAP
0760
0FE0
0DC0
0000
1078
F078
F8F0
78E0
79C0
7BC0
3F80
3F00
3F00
3E00
1C00
1C00
1C00
3C00
3C00
ENDCHAR
STARTCHAR 1EF9
ENCODING 7929
SWIDTH 585 0
DWIDTH 13 0
BBX 13 19 3 0
BITMAP
0760
0FE0
0DC0
0000
1078
F078
F8F0
78E0
79C0
7BC0
3F80
3F00
3F00
3E00
1C00
1C00
1C00
3C00
3C00
ENDCHAR
STARTCHAR 1F70
ENCODING 8048
SWIDTH 630 0
DWIDTH 14 0
BBX 14 17 0 -1
BITMAP
0600
0770
0370
00F0
00F0
01F0
01F0
03F0
07F0
06F0
0CF8
1FF8
1FF8
3CF8
78F8
78FC
8000
ENDCHAR
STARTCHAR 1F72
ENCODING 8050
SWIDTH 585 0
DWIDTH 13 0
BBX 11 16 3 0
BITMAP
E300
7FE0
7FE0
1FC0
1FC0
1E00
1E00
1F80
1F80
1E00
1FE0
1FE0
1FE0
1FE0
1FC0
1C00
ENDCHAR
STARTCHAR 1F74
ENCODING 8052
SWIDTH 630 0
DWIDTH 14 0
BBX 15 16 2 0
BITMAP
7000
3782
3F9E
0F9C
0F3C
0F3C
1F7C
1FF8
1FF8
3FF8
3FF8
3CF8
3CF0
7CF0
7CF0
B980
ENDCHAR
STARTCHAR 1F76
ENCODING 8054
SWIDTH 360 0
DWIDTH 8 0
BBX 10 16 2 0
BITMAP
7000
37C0
3F80
0F80
0F00
1F00
1F00
1E00
3E00
3E00
3E00
3E00
7C00
7C00
7C00
E000
ENDCHAR
STARTCHAR 1F78
ENCODING 8056
SWIDTH 585 0
DWIDTH 13 0
BBX 11 16 3 0
BITMAP
E400
6F00
7F80
1FC0
3FE0
7FE0
79E0
F1E0
F1E0
F3E0
FFE0
FFC0
FFC0
FF80
7F80
3E00
ENDCHAR
STARTCHAR 1F7A
ENCODING 8058
SWIDTH 720 0
DWIDTH 16 0
BBX 16 16 3 0
BITMAP
E000
640F
7E1E
1E1C
1E3C
1F78
0FF0
0FF0
0FE0
07C0
0780
0780
0780
0780
0780
0700
ENDCHAR
STARTCHAR 1F7C
ENCODING 8060
SWIDTH 675 0
DWIDTH 15 0
BBX 14 16 2 0
BITMAP
7100
37F8
3FF8
1FFC
1FFC
3E3C
3C1C
381C
381C
381C
3838
3878
3CF0
FCF8
FCF8
FDF8
ENDCHAR
STARTCHAR 1FBA
ENCODING 8122
SWIDTH 630 0
DWIDTH 14 0
BBX 14 17 0 -1
BITMAP
0600
0770
0370
00F0
00F0
01F0
01F0
03F0
07F0
06F0
0CF8
1FF8
1FF8
3CF8
78F8
78FC
8000
ENDCHAR
STARTCHAR 1FC0
ENCODING 8128
SWIDTH 315 0
DWIDTH 7 0
BBX 7 3 4 16
BITMAP
66
FE
FC
ENDCHAR
STARTCHAR 1FC6
ENCODING 8134
SWIDTH 540 0
DWIDTH 12 0
BBX 14 19 1 0
BITMAP
00CC
01FC
01F8
0000
0F84
1F3C
0F3C
1F78
1E78
1E78
3FF8
3FF0
3FF0
7FF0
7DF0
7DE0
F9E0
F9E0
7B00
ENDCHAR
STARTCHAR 1FC8
ENCODING 8136
SWIDTH 585 0
DWIDTH 13 0
BBX 11 16 3 0
BITMAP
E300
7FE0
7FE0
1FC0
1FC0
1E00
1E00
1F80
1F80
1E00
1FE0
1FE0
1FE0
1FE0
1FC0
1C00
ENDCHAR
STARTCHAR 1FCA
ENCODING 8138
SWIDTH 630 0
DWIDTH 14 0
BBX 15 16 2 0
BITMAP
7000
3782
3F9E
0F9C
0F3C
0F3C
1F7C
1FF8
1FF8
3FF8
3FF8
3CF8
3CF0
7CF0
7CF0
B980
ENDCHAR
STARTCHAR 1FDA
ENCODING 8154
SWIDTH 360 0
DWIDTH 8 0
BBX 10 16 2 0
BITMAP
7000
37C0
3F80
0F80
0F00
1F00
1F00
1E00
3E00
3E00
3E00
3E00
7C00
7C00
7C00
E000
ENDCHAR
STARTCHAR 1FEA
ENCODING 8170
SWIDTH 720 0
DWIDTH 16 0
BBX 16 16 3 0
BITMAP
E000
640F
7E1E
1E1C
1E3C
1F78
0FF0
0FF0
0FE0
07C0
0780
0780
0780
0780
0780
0700
ENDCHAR
STARTCHAR 1FEF
ENCODING 8175
SWIDTH 135 0
DWIDTH 3 0
BBX 2 3 4 13
BITMAP
C0
C0
C0
ENDCHAR
STARTCHAR 1FF6
ENCODING 8182
SWIDTH 585 0
DWIDTH 13 0
BBX 15 19 0 0
BITMAP
00D8
01F8
01F0
0040
03F8
07FC
0FFE
1FFE
1E1E
1C1E
3C1E
3C1E
3C1C
1C1C
1C38
1C70
7C7C
7CFC
FCF8
ENDCHAR
STARTCHAR 1FF8
ENCODING 8184
SWIDTH 585 0
DWIDTH 13 0
BBX 11 16 3 0
BITMAP
E400
6F00
7F80
1FC0
3FE0
7FE0
79E0
F1E0
F1E0
F3E0
FFE0
FFC0
FFC0
FF80
7F80
3E00
ENDCHAR
STARTCHAR 1FFA
ENCODING 8186
SWIDTH 675 0
DWIDTH 15 0
BBX 14 16 2 0
BITMAP
7100
37F8
3FF8
1FFC
1FFC
3E3C
3C1C
381C
381C
381C
3838
3878
3CF0
FCF8
FCF8
FDF8
ENDCHAR
STARTCHAR 200B
ENCODING 8203
SWIDTH 0 0
DWIDTH 0 0
BBX 0 0 0 0
BITMAP
ENDCHAR
STARTCHAR 2010
ENCODING 8208
SWIDTH 270 0
DWIDTH 6 0
BBX 6 4 2 6
BITMAP
60
FC
FC
FC
ENDCHAR
STARTCHAR 2011
ENCODING 8209
SWIDTH 360 0
DWIDTH 8 0
BBX 9 4 1 6
BITMAP
1500
7F80
7F80
FF80
ENDCHAR
STARTCHAR 2012
ENCODING 8210
SWIDTH 450 0
DWIDTH 10 0
BBX 10 4 2 6
BITMAP
2780
FFC0
FFC0
FFC0
ENDCHAR
STARTCHAR 2013
ENCODING 8211
SWIDTH 450 0
DWIDTH 10 0
BBX 10 3 2 7
BITMAP
FFC0
FFC0
FFC0
ENDCHAR
STARTCHAR 2014
ENCODING 8212
SWIDTH 585 0
DWIDTH 13 0
BBX 13 3 2 7
BITMAP
FFF8
FFF0
FFF0
ENDCHAR
STARTCHAR 2015
ENCODING 8213
SWIDTH 675 0
DWIDTH 15 0
BBX 15 4 2 6
BITMAP
0008
FFFE
FFFE
FFFC
ENDCHAR
STARTCHAR 2016
ENCODING 8214
SWIDTH 225 0
DWIDTH 5 0
BBX 9 22 0 -3
BITMAP
0D80
0D80
0D80
0D80
0F80
1B00
1B00
1B00
1B00
3E00
3600
3600
3600
3600
6C00
6C00
6C00
6C00
EC00
D800
D800
D800
ENDCHAR
STARTCHAR 2017
ENCODING 8215
SWIDTH 360 0
DWIDTH 8 0
BBX 8 5 0 -4
BITMAP
7F
FF
00
FF
FE
ENDCHAR
STARTCHAR 2018
ENCODING 8216
SWIDTH 180 0
DWIDTH 4 0
BBX 5 8 2 8
BITMAP
18
38
38
78
70
70
F0
E0
ENDCHAR
STARTCHAR 2019
ENCODING 8217
SWIDTH 180 0
DWIDTH 4 0
BBX 5 8 3 8
BITMAP
78
70
70
F0
E0
E0
C0
80
ENDCHAR
STARTCHAR 201A
ENCODING 8218
SWIDTH 180 0
DWIDTH 4 0
BBX 5 8 0 -4
BITMAP
38
78
78
70
F0
E0
E0
40
ENDCHAR
STARTCHAR 201B
ENCODING 8219
SWIDTH 180 0
DWIDTH 4 0
BBX 4 8 3 8
BITMAP
70
F0
F0
F0
F0
F0
60
40
ENDCHAR
STARTCHAR 201C
ENCODING 8220
SWIDTH 360 0
DWIDTH 8 0
BBX 10 8 2 8
BITMAP
1980
39C0
3B80
7F80
7780
7700
F700
E700
ENDCHAR
STARTCHAR 201D
ENCODING 8221
SWIDTH 360 0
DWIDTH 8 0
BBX 9 8 3 8
BITMAP
7F80
7780
7700
F700
EE00
EE00
CC00
8C00
ENDCHAR
STARTCHAR 201E
ENCODING 8222
SWIDTH 360 0
DWIDTH 8 0
BBX 9 8 0 -4
BITMAP
3B80
7F80
7F80
7700
F700
EE00
EE00
4400
ENDCHAR
STARTCHAR 201F
ENCODING 8223
SWIDTH 360 0
DWIDTH 8 0
BBX 8 8 3 8
BITMAP
77
F7
FF
FF
FF
FF
66
44
ENDCHAR
STARTCHAR 2020
ENCODING 8224
SWIDTH 450 0
DWIDTH 10 0
BBX 10 22 3 -3
BITMAP
0700
0700
0E00
0E00
7FC0
FFC0
FFC0
1C00
1C00
1C00
3C00
3C00
3800
3800
3800
7800
7800
7000
7000
7000
F000
E000
ENDCHAR
STARTCHAR 2021
ENCODING 8225
SWIDTH 450 0
DWIDTH 10 0
BBX 12 22 1 -3
BITMAP
0100
01C0
03C0
0380
1FF0
3FF0
3FF0
0780
0700
0700
0700
0F00
0E00
0E00
0E00
7FC0
FFC0
FFC0
1C00
1C00
1C00
3800
ENDCHAR
STARTCHAR 2022
ENCODING 8226
SWIDTH 270 0
DWIDTH 6 0
BBX 6 6 2 5
BITMAP
38
7C
FC
FC
FC
F0
ENDCHAR
STARTCHAR 2023
ENCODING 8227
SWIDTH 270 0
DWIDTH 6 0
BBX 6 6 2 5
BITMAP
40
F0
FC
FC
F0
C0
ENDCHAR
STARTCHAR 2024
ENCODING 8228
SWIDTH 180 0
DWIDTH 4 0
BBX 4 4 1 0
BITMAP
60
F0
F0
E0
ENDCHAR
STARTCHAR 2025
ENCODING 8229
SWIDTH 360 0
DWIDTH 8 0
BBX 8 4 1 0
BITMAP
67
EF
EF
EE
ENDCHAR
STARTCHAR 2026
ENCODING 8230
SWIDTH 585 0
DWIDTH 13 0
BBX 12 4 1 0
BITMAP
6670
EF70
EFF0
CE60
ENDCHAR
STARTCHAR 2027
ENCODING 8231
SWIDTH 180 0
DWIDTH 4 0
BBX 4 4 2 6
BITMAP
60
F0
F0
E0
ENDCHAR
STARTCHAR 202F
ENCODING 8239
SWIDTH 135 0
DWIDTH 3 0
BBX 0 0 0 0
BITMAP
ENDCHAR
STARTCHAR 2030
ENCODING 8240
SWIDTH 630 0
DWIDTH 14 0
BBX 13 15 2 1
BITMAP
1830
3C70
6CE0
6CC0
6D80
7B80
3700
0ED0
0DF8
1B78
3A58
72D8
E3F0
C160
8000
ENDCHAR
STARTCHAR 2031
ENCODING 8241
SWIDTH 720 0
DWIDTH 16 0
BBX 15 15 2 1
BITMAP
1830
3C70
6CE0
6CC0
6D80
7B80
3700
0EB4
0DFE
1BDE
3AD6
72F4
E3FC
C358
8000
ENDCHAR
STARTCHAR 2039
ENCODING 8249
SWIDTH 225 0
DWIDTH 5 0
BBX 6 9 1 0
BITMAP
04
0C
3C
78
60
F0
78
38
18
ENDCHAR
STARTCHAR 203A
ENCODING 8250
SWIDTH 225 0
DWIDTH 5 0
BBX 7 10 0 0
BITMAP
20
30
38
3E
0C
1C
78
70
60
80
ENDCHAR
STARTCHAR 203C
ENCODING 8252
SWIDTH 450 0
DWIDTH 10 0
BBX 12 17 2 0
BITMAP
0030
3DF0
7DE0
79E0
79E0
79C0
73C0
73C0
7380
7380
6380
6300
0000
4300
E700
E700
C700
ENDCHAR
STARTCHAR 203E
ENCODING 8254
SWIDTH 360 0
DWIDTH 8 0
BBX 8 2 4 16
BITMAP
FF
FF
ENDCHAR
STARTCHAR 2043
ENCODING 8259
SWIDTH 270 0
DWIDTH 6 0
BBX 6 3 2 6
BITMAP
FC
FC
FC
ENDCHAR
STARTCHAR 2044
ENCODING 8260
SWIDTH 405 0
DWIDTH 9 0
BBX 12 16 0 0
BITMAP
0070
00F0
01E0
01E0
03C0
03C0
0780
0700
0F00
0E00
1E00
1C00
3800
3800
7000
E000
ENDCHAR
STARTCHAR 2045
ENCODING 8261
SWIDTH 315 0
DWIDTH 7 0
BBX 11 21 0 -3
BITMAP
0FE0
0FE0
0FE0
0E00
1E00
1C00
1C00
1C00
3C00
3E00
3F80
3E00
3800
7800
7800
7000
7000
F000
FE00
FE00
FE00
ENDCHAR
STARTCHAR 2046
ENCODING 8262
SWIDTH 315 0
DWIDTH 7 0
BBX 11 21 0 -3
BITMAP
0FE0
0FE0
0FE0
01E0
01C0
01C0
01C0
03C0
0380
0F80
3F80
0F80
0780
0700
0700
0700
0F00
0E00
FE00
FE00
FE00
ENDCHAR
STARTCHAR 2047
ENCODING 8263
SWIDTH 675 0
DWIDTH 15 0
BBX 16 16 2 0
BITMAP
1E1E
3F3F
7F7F
7F67
4747
0606
0E0E
3E3C
3878
7070
7060
0000
0020
60E0
E0E0
E0C0
ENDCHAR
STARTCHAR 2048
ENCODING 8264
SWIDTH 585 0
DWIDTH 13 0
BBX 14 17 2 0
BITMAP
000C
1E7C
3F7C
7F78
7F78
4778
0670
0E70
3E70
3860
70E0
7040
0000
00C0
61E0
E1C0
E0C0
ENDCHAR
STARTCHAR 2049
ENCODING 8265
SWIDTH 585 0
DWIDTH 13 0
BBX 13 16 2 0
BITMAP
3CF8
7DF8
79F8
7BB8
7918
7038
7070
70F0
71E0
6180
6180
0000
4100
E380
E380
C300
ENDCHAR
STARTCHAR 204B
ENCODING 8267
SWIDTH 360 0
DWIDTH 8 0
BBX 11 18 0 -2
BITMAP
0F80
0FE0
1FE0
1BE0
1BE0
1BE0
3BC0
33C0
3780
3700
3600
7600
6E00
6C00
6C00
6C00
DC00
DC00
ENDCHAR
STARTCHAR 204F
ENCODING 8271
SWIDTH 180 0
DWIDTH 4 0
BBX 5 15 1 -4
BITMAP
38
78
78
70
00
00
00
60
F0
E0
E0
C0
70
60
40
ENDCHAR
STARTCHAR 2052
ENCODING 8274
SWIDTH 450 0
DWIDTH 10 0
BBX 13 15 1 1
BITMAP
0038
0070
3860
38C0
39C0
1380
0700
0600
0C00
1DC0
39C0
71C0
6080
C000
8000
ENDCHAR
STARTCHAR 2070
ENCODING 8304
SWIDTH 180 0
DWIDTH 4 0
BBX 4 8 3 8
BITMAP
20
60
F0
D0
B0
F0
E0
E0
ENDCHAR
STARTCHAR 2074
ENCODING 8308
SWIDTH 225 0
DWIDTH 5 0
BBX 4 8 3 7
BITMAP
60
60
40
F0
A0
60
60
C0
ENDCHAR
STARTCHAR 2075
ENCODING 8309
SWIDTH 225 0
DWIDTH 5 0
BBX 6 7 2 8
BITMAP
1C
30
38
18
0C
98
F8
ENDCHAR
STARTCHAR 2076
ENCODING 8310
SWIDTH 225 0
DWIDTH 5 0
BBX 5 8 3 7
BITMAP
38
60
C0
F0
98
98
F0
40
ENDCHAR
STARTCHAR 2077
ENCODING 8311
SWIDTH 225 0
DWIDTH 5 0
BBX 6 7 2 8
BITMAP
7C
78
18
38
30
70
E0
ENDCHAR
STARTCHAR 2078
ENCODING 8312
SWIDTH 225 0
DWIDTH 5 0
BBX 5 8 3 8
BITMAP
30
78
70
70
D8
98
F8
F0
ENDCHAR
STARTCHAR 2079
ENCODING 8313
SWIDTH 225 0
DWIDTH 5 0
BBX 5 7 3 8
BITMAP
78
D8
D8
F8
10
30
F0
ENDCHAR
STARTCHAR 2080
ENCODING 8320
SWIDTH 180 0
DWIDTH 4 0
BBX 4 8 1 0
BITMAP
20
70
70
D0
D0
F0
E0
60
ENDCHAR
STARTCHAR 2081
ENCODING 8321
SWIDTH 225 0
DWIDTH 5 0
BBX 4 7 2 1
BITMAP
30
F0
E0
60
60
E0
E0
ENDCHAR
STARTCHAR 2082
ENCODING 8322
SWIDTH 270 0
DWIDTH 6 0
BBX 5 8 1 0
BITMAP
30
78
58
10
30
78
78
E0
ENDCHAR
STARTCHAR 2083
ENCODING 8323
SWIDTH 225 0
DWIDTH 5 0
BBX 5 7 1 1
BITMAP
70
20
78
18
18
B0
E0
ENDCHAR
STARTCHAR 2084
ENCODING 8324
SWIDTH 225 0
DWIDTH 5 0
BBX 5 7 1 0
BITMAP
20
60
58
F8
20
60
60
ENDCHAR
STARTCHAR 2085
ENCODING 8325
SWIDTH 225 0
DWIDTH 5 0
BBX 5 8 1 0
BITMAP
08
38
60
78
18
18
B8
F0
ENDCHAR
STARTCHAR 2086
ENCODING 8326
SWIDTH 225 0
DWIDTH 5 0
BBX 5 8 1 -1
BITMAP
38
60
60
F8
D8
98
F0
40
ENDCHAR
STARTCHAR 2087
ENCODING 8327
SWIDTH 225 0
DWIDTH 5 0
BBX 5 7 1 0
BITMAP
78
78
18
30
70
60
E0
ENDCHAR
STARTCHAR 2088
ENCODING 8328
SWIDTH 225 0
DWIDTH 5 0
BBX 5 8 1 0
BITMAP
38
78
30
78
D8
D8
F8
70
ENDCHAR
STARTCHAR 2089
ENCODING 8329
SWIDTH 225 0
DWIDTH 5 0
BBX 5 8 1 0
BITMAP
30
78
48
F8
78
18
F0
E0
ENDCHAR
STARTCHAR 20A0
ENCODING 8352
SWIDTH 540 0
DWIDTH 12 0
BBX 12 15 2 0
BITMAP
1F80
3F80
7E00
7000
77F0
E7F0
E7E0
F700
FFC0
7F80
3E80
0E00
0FC0
0FC0
0F00
ENDCHAR
STARTCHAR 20A4
ENCODING 8356
SWIDTH 540 0
DWIDTH 12 0
BBX 13 15 1 0
BITMAP
01F0
03F8
07F8
07F8
0F38
3FC0
7FE0
7FE0
7FC0
7FC0
1FC0
FFB0
FFE0
FFE0
7FC0
ENDCHAR
STARTCHAR 20A6
ENCODING 8358
SWIDTH 495 0
DWIDTH 11 0
BBX 12 15 1 0
BITMAP
0E60
0E60
0EF0
3FF0
3FF0
1EC0
1FC0
3FC0
3FC0
3BE0
FFE0
FFE0
7380
7380
7300
ENDCHAR
STARTCHAR 20A7
ENCODING 8359
SWIDTH 675 0
DWIDTH 15 0
BBX 17 15 0 0
BITMAP
0F0000
1F8000
1F8000
1D8000
19F980
19FF80
3BFF80
3FFE00
3E6600
386700
78E300
70CF00
70CF00
70CE00
F0DE00
ENDCHAR
STARTCHAR 20A8
ENCODING 8360
SWIDTH 585 0
DWIDTH 13 0
BBX 15 16 1 0
BITMAP
0600
1F80
3FC0
39C0
39C0
399C
7BFE
7F7C
7E70
7E70
7E78
FE18
EEF8
EEF8
EFF0
EFE0
ENDCHAR
STARTCHAR 20A9
ENCODING 8361
SWIDTH 675 0
DWIDTH 15 0
BBX 16 16 2 0
BITMAP
0440
1CCE
1CFF
7FFF
7FFF
7FBC
1FF8
FFFE
FFFE
FFFC
1FE0
1DE0
1DC0
19C0
3980
3100
ENDCHAR
STARTCHAR 20AA
ENCODING 8362
SWIDTH 585 0
DWIDTH 13 0
BBX 16 15 1 0
BITMAP
0FC7
1FE6
3FEE
38EE
38EE
70EC
76FC
76DC
7E1C
6E1C
EE38
EE78
CFF8
CFF0
C3E0
ENDCHAR
STARTCHAR 20AB
ENCODING 8363
SWIDTH 450 0
DWIDTH 10 0
BBX 12 16 1 0
BITMAP
00E0
07F0
0FF0
0FF0
01C0
1FC0
3FC0
73C0
73C0
7380
7F80
3F80
1E00
3C00
FF80
FF80
ENDCHAR
STARTCHAR 20AC
ENCODING 8364
SWIDTH 540 0
DWIDTH 12 0
BBX 14 17 1 -1
BITMAP
0078
01FC
03FC
07FC
0F80
0FE0
7FE0
7FE0
7E00
7FE0
7FC0
FFC0
3E00
1FF0
1FF0
0FE0
0100
ENDCHAR
STARTCHAR 20AD
ENCODING 8365
SWIDTH 540 0
DWIDTH 12 0
BBX 12 15 2 0
BITMAP
1E60
1CF0
1DE0
3FC0
3F80
3F00
FFF0
FFE0
FFE0
7F00
7F00
7780
F780
F380
E200
ENDCHAR
STARTCHAR 20AE
ENCODING 8366
SWIDTH 450 0
DWIDTH 10 0
BBX 11 15 2 0
BITMAP
3FE0
7FE0
7FE0
0E00
0F80
1F80
7E00
7C00
1F80
7F80
FC00
3C00
3800
3800
3800
ENDCHAR
STARTCHAR 20B2
ENCODING 8370
SWIDTH 495 0
DWIDTH 11 0
BBX 12 20 1 -2
BITMAP
01C0
01C0
0380
03E0
07F0
0FF0
1F60
1F00
3F00
37F0
77E0
76E0
7EE0
FFE0
FFC0
FF80
7E00
3C00
1C00
1C00
ENDCHAR
STARTCHAR 20B4
ENCODING 8372
SWIDTH 450 0
DWIDTH 10 0
BBX 10 16 2 0
BITMAP
0700
1F80
3FC0
3FC0
33C0
01C0
7FC0
FFC0
3E00
FFC0
FFC0
7000
7F00
7F00
7F00
3F00
ENDCHAR
STARTCHAR 20B5
ENCODING 8373
SWIDTH 495 0
DWIDTH 11 0
BBX 11 19 2 -2
BITMAP
0180
0380
03C0
1FE0
3FE0
7FE0
7F60
F700
F700
E700
EE00
FF80
FF80
FF80
FF80
7F00
3C00
1C00
1C00
ENDCHAR
STARTCHAR 20B8
ENCODING 8376
SWIDTH 405 0
DWIDTH 9 0
BBX 10 16 2 0
BITMAP
3FC0
3FC0
7FC0
7F80
0000
7F80
FF80
FF80
1C00
1C00
3800
3800
3800
3800
7800
7000
ENDCHAR
STARTCHAR 20B9
ENCODING 8377
SWIDTH 540 0
DWIDTH 12 0
BBX 13 16 2 0
BITMAP
1C00
7FF8
7FF0
0380
7FF8
7FF0
03E0
FF00
FF00
FC00
1C00
1C00
1E00
0E00
0E00
0F00
ENDCHAR
STARTCHAR 20BA
ENCODING 8378
SWIDTH 540 0
DWIDTH 12 0
BBX 11 16 2 0
BITMAP
0C00
0E00
0E00
1F80
7F80
7E00
3F00
3F00
FC00
FCE0
3CE0
38E0
3FE0
3FC0
1F80
0E00
ENDCHAR
STARTCHAR 20BD
ENCODING 8381
SWIDTH 450 0
DWIDTH 10 0
BBX 11 16 1 0
BITMAP
0100
0FC0
1FE0
1FE0
1C60
1C60
1CE0
7FE0
7FC0
3F00
3800
FF80
FF80
FF80
7000
7000
ENDCHAR
STARTCHAR 20BF
ENCODING 8383
SWIDTH 495 0
DWIDTH 11 0
BBX 13 20 0 -2
BITMAP
0398
03B8
03B8
0FF8
1FF8
1FF8
0F78
0F38
0F30
0FF0
0FE0
1FF0
1E70
1E78
3EF0
7FF0
7FE0
FFC0
3B80
3B80
ENDCHAR
STARTCHAR 20C0
ENCODING 8384
SWIDTH 495 0
DWIDTH 11 0
BBX 12 15 1 0
BITMAP
07F0
0FF0
1FF0
3C00
3800
3800
3800
3FE0
3FE0
3FC0
1FC0
0200
FFC0
FFC0
FFC0
ENDCHAR
STARTCHAR 2116
ENCODING 8470
SWIDTH 630 0
DWIDTH 14 0
BBX 16 15 0 0
BITMAP
0E60
0E60
0EE0
1EE0
1EE6
1ECE
1EDF
3FD3
3FB3
3FBE
379C
7380
73BE
777E
F704
ENDCHAR
STARTCHAR 2117
ENCODING 8471
SWIDTH 630 0
DWIDTH 14 0
BBX 14 14 2 1
BITMAP
07E0
1FF8
3C7C
381C
73CC
634C
E74C
C7CC
C60C
C618
CE38
6070
7FE0
1FC0
ENDCHAR
STARTCHAR 2120
ENCODING 8480
SWIDTH 630 0
DWIDTH 14 0
BBX 14 7 2 8
BITMAP
3E44
3CCC
74FC
38FC
0DFC
FD98
F998
ENDCHAR
STARTCHAR 2122
ENCODING 8482
SWIDTH 630 0
DWIDTH 14 0
BBX 13 7 3 8
BITMAP
7C88
FD98
B1F8
31F8
33F8
2330
6330
ENDCHAR
STARTCHAR 2139
ENCODING 8505
SWIDTH 720 0
DWIDTH 16 0
BBX 18 16 1 0
BITMAP
00FFC0
1FFFC0
3F9FC0
3F0FC0
3F1F80
3F1F80
3FFF80
783F80
783F00
7E3F00
7E3F00
FE7F00
F00E00
F00E00
FFFE00
FFFE00
ENDCHAR
STARTCHAR 2150
ENCODING 8528
SWIDTH 540 0
DWIDTH 12 0
BBX 12 15 2 1
BITMAP
1830
7870
18E0
38C0
3980
3380
7700
0EF0
0DF0
1820
3860
70C0
E1C0
C180
8200
ENDCHAR
STARTCHAR 2151
ENCODING 8529
SWIDTH 540 0
DWIDTH 12 0
BBX 12 15 2 1
BITMAP
1830
7870
18E0
38C0
3980
3380
7700
0E40
0DE0
1920
3BE0
71E0
E060
C3C0
81C0
ENDCHAR
STARTCHAR 2152
ENCODING 8530
SWIDTH 675 0
DWIDTH 15 0
BBX 15 15 2 1
BITMAP
1830
7870
18E0
38C0
3980
3380
7700
0EC8
0DDC
19DE
38D6
71F4
E1BC
C1BC
8018
ENDCHAR
STARTCHAR 2153
ENCODING 8531
SWIDTH 540 0
DWIDTH 12 0
BBX 12 15 2 1
BITMAP
1830
7870
18E0
38C0
3980
3380
7700
0E00
0DC0
1880
39E0
7060
E060
C2C0
8380
ENDCHAR
STARTCHAR 2154
ENCODING 8532
SWIDTH 540 0
DWIDTH 12 0
BBX 12 15 2 1
BITMAP
3830
7870
08E0
10C0
3D80
7B80
FF00
0E00
0DC0
1880
39E0
7060
E060
C2C0
8380
ENDCHAR
STARTCHAR 2155
ENCODING 8533
SWIDTH 540 0
DWIDTH 12 0
BBX 12 15 2 1
BITMAP
1830
7870
18E0
38C0
3980
3380
7700
0E20
0CE0
1980
39C0
7060
E060
C4C0
83C0
ENDCHAR
STARTCHAR 2156
ENCODING 8534
SWIDTH 540 0
DWIDTH 12 0
BBX 12 15 2 1
BITMAP
3830
7870
08E0
10C0
3D80
7B80
FF00
0E20
0CE0
1980
39C0
7060
E060
C4C0
83C0
ENDCHAR
STARTCHAR 2157
ENCODING 8535
SWIDTH 540 0
DWIDTH 12 0
BBX 12 15 2 1
BITMAP
3830
1070
30E0
78C0
0980
0B80
FF00
0E20
0CE0
1980
39C0
7060
E060
C4C0
83C0
ENDCHAR
STARTCHAR 2158
ENCODING 8536
SWIDTH 540 0
DWIDTH 12 0
BBX 12 15 2 1
BITMAP
3030
3070
20E0
78C0
5180
3380
3700
6E20
0CE0
1980
39C0
7060
E060
C4C0
83C0
ENDCHAR
STARTCHAR 2159
ENCODING 8537
SWIDTH 540 0
DWIDTH 12 0
BBX 12 16 2 0
BITMAP
1830
7870
18E0
38C0
3980
3380
7700
0E00
0CE0
1980
3B00
73C0
E360
C260
83C0
0100
ENDCHAR
STARTCHAR 215A
ENCODING 8538
SWIDTH 540 0
DWIDTH 12 0
BBX 12 16 2 0
BITMAP
1C30
3070
38E0
18C0
0D80
9B80
FF00
0E00
0CE0
1980
3B00
73C0
E360
C260
83C0
0100
ENDCHAR
STARTCHAR 215B
ENCODING 8539
SWIDTH 540 0
DWIDTH 12 0
BBX 12 15 2 1
BITMAP
1830
7870
18E0
38C0
3980
3380
7700
0EC0
0DE0
19C0
39C0
7360
E260
C3C0
83C0
ENDCHAR
STARTCHAR 215C
ENCODING 8540
SWIDTH 540 0
DWIDTH 12 0
BBX 12 15 2 1
BITMAP
3830
1070
30E0
78C0
0980
0B80
FF00
0EC0
0DE0
19C0
39C0
7360
E260
C3C0
83C0
ENDCHAR
STARTCHAR 215D
ENCODING 8541
SWIDTH 540 0
DWIDTH 12 0
BBX 12 15 2 1
BITMAP
1C30
3070
38E0
18C0
0D80
9B80
FF00
0EC0
0DE0
19C0
39C0
7360
E260
C3C0
83C0
ENDCHAR
STARTCHAR 215E
ENCODING 8542
SWIDTH 540 0
DWIDTH 12 0
BBX 12 15 2 1
BITMAP
7C30
7870
18E0
38C0
3180
7380
E700
0EC0
0DE0
19C0
39C0
7360
E260
C3C0
83C0
ENDCHAR
STARTCHAR 215F
ENCODING 8543
SWIDTH 540 0
DWIDTH 12 0
BBX 12 15 2 1
BITMAP
1830
7870
18E0
38C0
3980
3380
7700
0E00
0C00
1800
3800
7000
E000
C000
8000
ENDCHAR
STARTCHAR 2189
ENCODING 8585
SWIDTH 540 0
DWIDTH 12 0
BBX 12 16 2 0
BITMAP
1000
3030
7870
68E0
58C0
7980
7380
7700
0E00
0DC0
1880
39E0
7060
E060
C2C0
8380
ENDCHAR
STARTCHAR 2190
ENCODING 8592
SWIDTH 675 0
DWIDTH 15 0
BBX 15 12 2 2
BITMAP
0100
0700
0E00
1E00
7E00
FFFE
FFFE
7FFC
7C00
3C00
1800
0800
ENDCHAR
STARTCHAR 2191
ENCODING 8593
SWIDTH 675 0
DWIDTH 15 0
BBX 12 15 4 0
BITMAP
0380
0780
1FC0
3FC0
7FE0
FFF0
0E00
0E00
1E00
1E00
1C00
1C00
1C00
3C00
0800
ENDCHAR
STARTCHAR 2192
ENCODING 8594
SWIDTH 675 0
DWIDTH 15 0
BBX 15 12 2 2
BITMAP
0040
0020
0070
0078
7FFC
FFFE
FFFE
FFFC
00F8
00E0
01C0
0180
ENDCHAR
STARTCHAR 2193
ENCODING 8595
SWIDTH 675 0
DWIDTH 15 0
BBX 12 15 3 0
BITMAP
01C0
0380
0380
0380
0380
0780
0700
0700
FFF0
7FE0
7FC0
3F80
1F00
1E00
0800
ENDCHAR
STARTCHAR 2194
ENCODING 8596
SWIDTH 675 0
DWIDTH 15 0
BBX 15 12 2 2
BITMAP
0410
0C18
1C18
381C
7FFC
FFFE
FFFE
FFFC
7038
3070
3060
1040
ENDCHAR
STARTCHAR 2195
ENCODING 8597
SWIDTH 675 0
DWIDTH 15 0
BBX 13 15 3 0
BITMAP
03C0
07E0
1FF0
3FF8
47A0
0780
0700
0700
0F00
0F00
FFF0
7FC0
3F80
1E00
0C00
ENDCHAR
STARTCHAR 2196
ENCODING 8598
SWIDTH 675 0
DWIDTH 15 0
BBX 11 12 3 2
BITMAP
3F00
3FC0
7F80
7F00
7E00
7F00
7F80
E780
C3C0
83E0
01E0
00C0
ENDCHAR
STARTCHAR 2197
ENCODING 8599
SWIDTH 675 0
DWIDTH 15 0
BBX 13 12 3 2
BITMAP
01F8
07F8
07F8
03F8
01F8
07F0
0FF0
1F70
3C30
7800
F000
6000
ENDCHAR
STARTCHAR 2198
ENCODING 8600
SWIDTH 675 0
DWIDTH 15 0
BBX 11 12 5 2
BITMAP
2000
E000
F000
F820
7CC0
3FC0
1FC0
0FC0
1FC0
3FC0
7F80
FF80
ENDCHAR
STARTCHAR 2199
ENCODING 8601
SWIDTH 675 0
DWIDTH 15 0
BBX 13 12 3 2
BITMAP
0010
0078
00F8
41F0
63C0
7780
7F00
FE00
FC00
FE00
FF00
FF00
ENDCHAR
STARTCHAR 2212
ENCODING 8722
SWIDTH 450 0
DWIDTH 10 0
BBX 10 4 2 6
BITMAP
4000
FFC0
FFC0
FFC0
ENDCHAR
STARTCHAR 2213
ENCODING 8723
SWIDTH 450 0
DWIDTH 10 0
BBX 12 14 1 1
BITMAP
1FF0
3FF0
3FF0
0000
0100
0700
0700
0FC0
7FE0
7FC0
FFC0
1E00
1C00
1C00
ENDCHAR
STARTCHAR 2214
ENCODING 8724
SWIDTH 450 0
DWIDTH 10 0
BBX 10 13 2 3
BITMAP
0200
0600
0200
0E00
0E00
0E00
0E80
FFC0
FFC0
FFC0
1C00
1C00
1C00
ENDCHAR
STARTCHAR 2215
ENCODING 8725
SWIDTH 405 0
DWIDTH 9 0
BBX 12 16 0 0
BITMAP
0070
00F0
01E0
01E0
03C0
03C0
0780
0700
0F00
0E00
1E00
1C00
3800
3800
7000
E000
ENDCHAR
STARTCHAR 2216
ENCODING 8726
SWIDTH 405 0
DWIDTH 9 0
BBX 5 16 4 0
BITMAP
40
C0
E0
E0
E0
E0
F0
F0
70
70
70
78
78
78
78
78
ENDCHAR
STARTCHAR 2219
ENCODING 8729
SWIDTH 180 0
DWIDTH 4 0
BBX 4 4 2 6
BITMAP
60
F0
F0
E0
ENDCHAR
STARTCHAR 221A
ENCODING 8730
SWIDTH 450 0
DWIDTH 10 0
BBX 11 16 2 -1
BITMAP
0020
0060
00E0
00C0
01C0
0180
F380
F300
7600
7600
3C00
3C00
3800
3000
3000
2000
ENDCHAR
STARTCHAR 2248
ENCODING 8776
SWIDTH 450 0
DWIDTH 10 0
BBX 12 12 1 2
BITMAP
0C70
1E70
3FF0
3FE0
77C0
0000
0000
39E0
7FC0
FFC0
FF80
E700
ENDCHAR
STARTCHAR 2260
ENCODING 8800
SWIDTH 450 0
DWIDTH 10 0
BBX 12 13 1 1
BITMAP
00C0
01C0
0BF0
3FF0
7FE0
3700
0600
7FE0
7FC0
FFC0
1800
3000
3000
ENDCHAR
STARTCHAR 2261
ENCODING 8801
SWIDTH 450 0
DWIDTH 10 0
BBX 12 12 1 2
BITMAP
3FF0
3FF0
3FF0
0000
0000
7FE0
7FE0
7C00
0000
3FC0
FFC0
FFC0
ENDCHAR
STARTCHAR 2310
ENCODING 8976
SWIDTH 450 0
DWIDTH 10 0
BBX 11 5 1 5
BITMAP
7FE0
7FE0
7FE0
7000
F000
ENDCHAR
STARTCHAR 2319
ENCODING 8985
SWIDTH 450 0
DWIDTH 10 0
BBX 11 6 1 4
BITMAP
3800
7000
7000
7FE0
7FC0
FFC0
ENDCHAR
STARTCHAR 2609
ENCODING 9737
SWIDTH 630 0
DWIDTH 14 0
BBX 14 14 2 1
BITMAP
03F0
0FF8
1C3C
301C
600C
638C
E78C
C78C
C78C
C018
E038
F0F0
7FE0
7FC0
ENDCHAR
STARTCHAR 2615
ENCODING 9749
SWIDTH 585 0
DWIDTH 13 0
BBX 13 16 1 0
BITMAP
1800
3900
3900
1D80
0480
0000
7FF8
7FF8
7FC8
7FC8
7FD8
FFF0
FFF0
FFC0
FF80
FF00
ENDCHAR
STARTCHAR 2621
ENCODING 9761
SWIDTH 585 0
DWIDTH 13 0
BBX 13 15 1 0
BITMAP
01F8
01F0
03F0
03F0
07F0
0760
0FE0
0EE0
1EE0
1CE0
3CE0
39F8
79F8
F1F8
F1F0
ENDCHAR
STARTCHAR 262E
ENCODING 9774
SWIDTH 675 0
DWIDTH 15 0
BBX 15 16 2 0
BITMAP
0040
07F8
1FFC
39CE
31CE
6186
6186
C7C6
DFF6
FBFE
F33C
C718
E738
F7F0
7FC0
0F00
ENDCHAR
STARTCHAR 2647
ENCODING 9799
SWIDTH 450 0
DWIDTH 10 0
BBX 11 16 1 0
BITMAP
0200
3FC0
3FE0
3FE0
3CE0
38E0
79E0
7FE0
7FC0
7F80
7800
F000
F000
FF80
FF80
FF80
ENDCHAR
STARTCHAR 29EB
ENCODING 10731
SWIDTH 450 0
DWIDTH 10 0
BBX 10 20 2 -3
BITMAP
0700
0700
0F00
0F00
1F80
1F80
3F80
7FC0
7FC0
FFC0
FFC0
FF80
FF80
FF00
7E00
7E00
7C00
7800
7000
7000
ENDCHAR
STARTCHAR 2E2E
ENCODING 11822
SWIDTH 450 0
DWIDTH 10 0
BBX 10 16 3 0
BITMAP
1F80
7F80
FFC0
FBC0
E180
E000
F000
FC00
7C00
3C00
3C00
0000
0000
3800
7800
7000
ENDCHAR
STARTCHAR 2E38
ENCODING 11832
SWIDTH 450 0
DWIDTH 10 0
BBX 10 22 1 -3
BITMAP
0180
03C0
0380
0380
0380
0380
0780
0700
0700
0700
0F00
0F00
0E00
0E00
0E00
FE00
FFC0
FFC0
1E00
1C00
3C00
3800
ENDCHAR
STARTCHAR 2E4B
ENCODING 11851
SWIDTH 450 0
DWIDTH 10 0
BBX 12 22 1 -3
BITMAP
01C0
01C0
0380
0380
1FF0
3FF0
3FF0
0700
0700
0700
7FE0
7FE0
7E00
0E00
0E00
1FC0
FFC0
FFC0
3C00
1C00
3C00
3800
ENDCHAR
STARTCHAR 3012
ENCODING 12306
SWIDTH 540 0
DWIDTH 12 0
BBX 13 16 2 0
BITMAP
3FF8
3FF8
7FF8
7FF8
0000
1FF0
7FF0
FFF0
FFF0
0E00
0E00
0E00
1E00
1E00
1C00
1C00
ENDCHAR
STARTCHAR 3036
ENCODING 12342
SWIDTH 630 0
DWIDTH 14 0
BBX 14 14 2 1
BITMAP
03F0
1FF8
3C3C
301C
67EC
600C
CFCC
CFCC
C30C
C218
E238
E670
7FE0
7F80
ENDCHAR
STARTCHAR 4E00
ENCODING 19968
SWIDTH 675 0
DWIDTH 15 0
BBX 15 4 2 6
BITMAP
0200
FFFE
FFFE
FFFE
ENDCHAR
STARTCHAR 5186
ENCODING 20870
SWIDTH 675 0
DWIDTH 15 0
BBX 17 15 1 0
BITMAP
1FFF80
3FFF80
3FFF80
38E780
38C700
38C700
79CF00
7FFF00
7FFE00
7FFE00
701E00
F01C00
F01C00
E01C00
E03C00
ENDCHAR
STARTCHAR 8336
ENCODING 33590
SWIDTH 675 0
DWIDTH 15 0
BBX 17 16 1 0
BITMAP
060600
1FFF80
3FFF80
3FFF80
0DFC00
07F800
1F3C00
3DDE00
41C000
1FFC00
3FFC00
038000
1BB000
3BF800
733800
E31800
ENDCHAR
STARTCHAR 9F99
ENCODING 40857
SWIDTH 675 0
DWIDTH 15 0
BBX 16 15 1 1
BITMAP
01DC
01DE
038C
1FDF
3FFF
3FFF
07E0
06E4
0EEE
1CFC
18F0
3BE4
77FC
E7FC
80F8
ENDCHAR
STARTCHAR A78B
ENCODING 42891
SWIDTH 225 0
DWIDTH 5 0
BBX 4 12 3 4
BITMAP
70
F0
F0
F0
F0
F0
F0
E0
E0
E0
E0
C0
ENDCHAR
STARTCHAR A78C
ENCODING 42892
SWIDTH 225 0
DWIDTH 5 0
BBX 4 12 3 4
BITMAP
70
F0
F0
F0
F0
F0
F0
E0
E0
E0
E0
C0
ENDCHAR
STARTCHAR FFFD
ENCODING 65533
SWIDTH 450 0
DWIDTH 10 0
BBX 10 20 2 -3
BITMAP
0300
0300
0780
0F80
1F80
1F80
2080
6080
4CC0
FCC0
F9C0
E380
E780
E700
7E00
6600
4400
7C00
3800
3000
ENDCHAR
ENDFONT
